<mxfile host="app.diagrams.net" modified="2024-05-02T13:33:33.325Z" agent="Mozilla/5.0 (Windows NT 10.0; Win64; x64) AppleWebKit/537.36 (KHTML, like Gecko) Chrome/124.0.0.0 Safari/537.36 Edg/124.0.0.0" etag="3JNZeRoLiE1ZSW1fgV2U" version="24.3.1" type="device">
  <diagram name="Página-1" id="nhInQ5zMr4UL0PS8iZIy">
    <mxGraphModel dx="1386" dy="1954" grid="0" gridSize="10" guides="1" tooltips="1" connect="1" arrows="1" fold="1" page="1" pageScale="1" pageWidth="827" pageHeight="1169" background="none" math="0" shadow="1">
      <root>
        <mxCell id="0" />
        <mxCell id="1" parent="0" />
        <mxCell id="mkIjakdbtP-4XP5yUZ4M-1" value="TABELA DE USUARIO" style="swimlane;fontStyle=0;childLayout=stackLayout;horizontal=1;startSize=26;fillColor=none;horizontalStack=0;resizeParent=1;resizeParentMax=0;resizeLast=0;collapsible=1;marginBottom=0;whiteSpace=wrap;html=1;" vertex="1" parent="1">
          <mxGeometry x="51.82" y="-957" width="177" height="234" as="geometry" />
        </mxCell>
        <mxCell id="mkIjakdbtP-4XP5yUZ4M-2" value="&lt;div style=&quot;&quot;&gt;&lt;font style=&quot;font-size: 12px;&quot;&gt;&lt;font style=&quot;background-color: initial;&quot;&gt;ID_do_usuário:&lt;/font&gt;&lt;span style=&quot;background-color: initial;&quot;&gt; IntegerField&lt;/span&gt;&lt;/font&gt;&lt;/div&gt;" style="text;strokeColor=none;fillColor=none;align=left;verticalAlign=top;spacingLeft=4;spacingRight=4;overflow=hidden;rotatable=0;points=[[0,0.5],[1,0.5]];portConstraint=eastwest;whiteSpace=wrap;html=1;" vertex="1" parent="mkIjakdbtP-4XP5yUZ4M-1">
          <mxGeometry y="26" width="177" height="26" as="geometry" />
        </mxCell>
        <mxCell id="mkIjakdbtP-4XP5yUZ4M-3" value="&lt;font style=&quot;font-size: 12px;&quot;&gt;&lt;font style=&quot;&quot;&gt;nome:&lt;/font&gt; CharField&amp;nbsp;&lt;/font&gt;" style="text;strokeColor=none;fillColor=none;align=left;verticalAlign=top;spacingLeft=4;spacingRight=4;overflow=hidden;rotatable=0;points=[[0,0.5],[1,0.5]];portConstraint=eastwest;whiteSpace=wrap;html=1;" vertex="1" parent="mkIjakdbtP-4XP5yUZ4M-1">
          <mxGeometry y="52" width="177" height="26" as="geometry" />
        </mxCell>
        <mxCell id="mkIjakdbtP-4XP5yUZ4M-26" value="&lt;font style=&quot;font-size: 12px;&quot;&gt;&lt;font style=&quot;&quot;&gt;email:&lt;/font&gt; EmailField&lt;/font&gt;" style="text;strokeColor=none;fillColor=none;align=left;verticalAlign=top;spacingLeft=4;spacingRight=4;overflow=hidden;rotatable=0;points=[[0,0.5],[1,0.5]];portConstraint=eastwest;whiteSpace=wrap;html=1;" vertex="1" parent="mkIjakdbtP-4XP5yUZ4M-1">
          <mxGeometry y="78" width="177" height="26" as="geometry" />
        </mxCell>
        <mxCell id="mkIjakdbtP-4XP5yUZ4M-27" value="&lt;font style=&quot;font-size: 12px;&quot;&gt;nascimento: DateField&lt;/font&gt;" style="text;strokeColor=none;fillColor=none;align=left;verticalAlign=top;spacingLeft=4;spacingRight=4;overflow=hidden;rotatable=0;points=[[0,0.5],[1,0.5]];portConstraint=eastwest;whiteSpace=wrap;html=1;" vertex="1" parent="mkIjakdbtP-4XP5yUZ4M-1">
          <mxGeometry y="104" width="177" height="26" as="geometry" />
        </mxCell>
        <mxCell id="mkIjakdbtP-4XP5yUZ4M-28" value="&lt;font style=&quot;font-size: 12px;&quot;&gt;Gênero: CharField&lt;/font&gt;&lt;div&gt;&amp;nbsp;&lt;/div&gt;" style="text;strokeColor=none;fillColor=none;align=left;verticalAlign=top;spacingLeft=4;spacingRight=4;overflow=hidden;rotatable=0;points=[[0,0.5],[1,0.5]];portConstraint=eastwest;whiteSpace=wrap;html=1;" vertex="1" parent="mkIjakdbtP-4XP5yUZ4M-1">
          <mxGeometry y="130" width="177" height="26" as="geometry" />
        </mxCell>
        <mxCell id="mkIjakdbtP-4XP5yUZ4M-29" value="&lt;font style=&quot;font-size: 12px;&quot;&gt;&lt;font style=&quot;&quot;&gt;data_de_registro:&lt;/font&gt; DateField&lt;/font&gt;" style="text;strokeColor=none;fillColor=none;align=left;verticalAlign=top;spacingLeft=4;spacingRight=4;overflow=hidden;rotatable=0;points=[[0,0.5],[1,0.5]];portConstraint=eastwest;whiteSpace=wrap;html=1;" vertex="1" parent="mkIjakdbtP-4XP5yUZ4M-1">
          <mxGeometry y="156" width="177" height="26" as="geometry" />
        </mxCell>
        <mxCell id="mkIjakdbtP-4XP5yUZ4M-30" value="&lt;font style=&quot;font-size: 12px;&quot;&gt;ultimo_login: DateField&lt;/font&gt;" style="text;strokeColor=none;fillColor=none;align=left;verticalAlign=top;spacingLeft=4;spacingRight=4;overflow=hidden;rotatable=0;points=[[0,0.5],[1,0.5]];portConstraint=eastwest;whiteSpace=wrap;html=1;" vertex="1" parent="mkIjakdbtP-4XP5yUZ4M-1">
          <mxGeometry y="182" width="177" height="26" as="geometry" />
        </mxCell>
        <mxCell id="mkIjakdbtP-4XP5yUZ4M-32" value="&lt;font style=&quot;font-size: 12px;&quot;&gt;ativo: BooleanField&lt;/font&gt;" style="text;strokeColor=none;fillColor=none;align=left;verticalAlign=top;spacingLeft=4;spacingRight=4;overflow=hidden;rotatable=0;points=[[0,0.5],[1,0.5]];portConstraint=eastwest;whiteSpace=wrap;html=1;" vertex="1" parent="mkIjakdbtP-4XP5yUZ4M-1">
          <mxGeometry y="208" width="177" height="26" as="geometry" />
        </mxCell>
        <mxCell id="mkIjakdbtP-4XP5yUZ4M-5" value="TABELA DE MOTOS" style="swimlane;fontStyle=0;childLayout=stackLayout;horizontal=1;startSize=26;fillColor=none;horizontalStack=0;resizeParent=1;resizeParentMax=0;resizeLast=0;collapsible=1;marginBottom=0;whiteSpace=wrap;html=1;" vertex="1" parent="1">
          <mxGeometry x="322" y="-960" width="200" height="338" as="geometry" />
        </mxCell>
        <mxCell id="mkIjakdbtP-4XP5yUZ4M-6" value="&lt;font style=&quot;font-size: 12px;&quot;&gt;&lt;font style=&quot;&quot;&gt;ID_da_moto:&lt;/font&gt; IntegerField&lt;/font&gt;" style="text;strokeColor=none;fillColor=none;align=left;verticalAlign=top;spacingLeft=4;spacingRight=4;overflow=hidden;rotatable=0;points=[[0,0.5],[1,0.5]];portConstraint=eastwest;whiteSpace=wrap;html=1;" vertex="1" parent="mkIjakdbtP-4XP5yUZ4M-5">
          <mxGeometry y="26" width="200" height="26" as="geometry" />
        </mxCell>
        <mxCell id="mkIjakdbtP-4XP5yUZ4M-7" value="&lt;font style=&quot;font-size: 12px;&quot;&gt;&lt;font style=&quot;&quot;&gt;marca&lt;/font&gt;: CharField&lt;/font&gt;" style="text;strokeColor=none;fillColor=none;align=left;verticalAlign=top;spacingLeft=4;spacingRight=4;overflow=hidden;rotatable=0;points=[[0,0.5],[1,0.5]];portConstraint=eastwest;whiteSpace=wrap;html=1;" vertex="1" parent="mkIjakdbtP-4XP5yUZ4M-5">
          <mxGeometry y="52" width="200" height="26" as="geometry" />
        </mxCell>
        <mxCell id="mkIjakdbtP-4XP5yUZ4M-8" value="&lt;font style=&quot;font-size: 12px;&quot;&gt;modelo: CharField&lt;/font&gt;" style="text;strokeColor=none;fillColor=none;align=left;verticalAlign=top;spacingLeft=4;spacingRight=4;overflow=hidden;rotatable=0;points=[[0,0.5],[1,0.5]];portConstraint=eastwest;whiteSpace=wrap;html=1;" vertex="1" parent="mkIjakdbtP-4XP5yUZ4M-5">
          <mxGeometry y="78" width="200" height="26" as="geometry" />
        </mxCell>
        <mxCell id="mkIjakdbtP-4XP5yUZ4M-33" value="&lt;font style=&quot;font-size: 12px;&quot;&gt;ano: positiveIntegerField&lt;/font&gt;" style="text;strokeColor=none;fillColor=none;align=left;verticalAlign=top;spacingLeft=4;spacingRight=4;overflow=hidden;rotatable=0;points=[[0,0.5],[1,0.5]];portConstraint=eastwest;whiteSpace=wrap;html=1;" vertex="1" parent="mkIjakdbtP-4XP5yUZ4M-5">
          <mxGeometry y="104" width="200" height="26" as="geometry" />
        </mxCell>
        <mxCell id="mkIjakdbtP-4XP5yUZ4M-34" value="cor: CharField" style="text;strokeColor=none;fillColor=none;align=left;verticalAlign=top;spacingLeft=4;spacingRight=4;overflow=hidden;rotatable=0;points=[[0,0.5],[1,0.5]];portConstraint=eastwest;whiteSpace=wrap;html=1;" vertex="1" parent="mkIjakdbtP-4XP5yUZ4M-5">
          <mxGeometry y="130" width="200" height="26" as="geometry" />
        </mxCell>
        <mxCell id="mkIjakdbtP-4XP5yUZ4M-35" value="tipo_de_motor:" style="text;strokeColor=none;fillColor=none;align=left;verticalAlign=top;spacingLeft=4;spacingRight=4;overflow=hidden;rotatable=0;points=[[0,0.5],[1,0.5]];portConstraint=eastwest;whiteSpace=wrap;html=1;" vertex="1" parent="mkIjakdbtP-4XP5yUZ4M-5">
          <mxGeometry y="156" width="200" height="26" as="geometry" />
        </mxCell>
        <mxCell id="mkIjakdbtP-4XP5yUZ4M-36" value="cilindradas: FloatField" style="text;strokeColor=none;fillColor=none;align=left;verticalAlign=top;spacingLeft=4;spacingRight=4;overflow=hidden;rotatable=0;points=[[0,0.5],[1,0.5]];portConstraint=eastwest;whiteSpace=wrap;html=1;" vertex="1" parent="mkIjakdbtP-4XP5yUZ4M-5">
          <mxGeometry y="182" width="200" height="26" as="geometry" />
        </mxCell>
        <mxCell id="mkIjakdbtP-4XP5yUZ4M-37" value="potência: FloatField" style="text;strokeColor=none;fillColor=none;align=left;verticalAlign=top;spacingLeft=4;spacingRight=4;overflow=hidden;rotatable=0;points=[[0,0.5],[1,0.5]];portConstraint=eastwest;whiteSpace=wrap;html=1;" vertex="1" parent="mkIjakdbtP-4XP5yUZ4M-5">
          <mxGeometry y="208" width="200" height="26" as="geometry" />
        </mxCell>
        <mxCell id="mkIjakdbtP-4XP5yUZ4M-38" value="preço: FloatField" style="text;strokeColor=none;fillColor=none;align=left;verticalAlign=top;spacingLeft=4;spacingRight=4;overflow=hidden;rotatable=0;points=[[0,0.5],[1,0.5]];portConstraint=eastwest;whiteSpace=wrap;html=1;" vertex="1" parent="mkIjakdbtP-4XP5yUZ4M-5">
          <mxGeometry y="234" width="200" height="26" as="geometry" />
        </mxCell>
        <mxCell id="mkIjakdbtP-4XP5yUZ4M-39" value="descrição: TextField" style="text;strokeColor=none;fillColor=none;align=left;verticalAlign=top;spacingLeft=4;spacingRight=4;overflow=hidden;rotatable=0;points=[[0,0.5],[1,0.5]];portConstraint=eastwest;whiteSpace=wrap;html=1;" vertex="1" parent="mkIjakdbtP-4XP5yUZ4M-5">
          <mxGeometry y="260" width="200" height="26" as="geometry" />
        </mxCell>
        <mxCell id="mkIjakdbtP-4XP5yUZ4M-40" value="disponibilidade: BooleanField" style="text;strokeColor=none;fillColor=none;align=left;verticalAlign=top;spacingLeft=4;spacingRight=4;overflow=hidden;rotatable=0;points=[[0,0.5],[1,0.5]];portConstraint=eastwest;whiteSpace=wrap;html=1;" vertex="1" parent="mkIjakdbtP-4XP5yUZ4M-5">
          <mxGeometry y="286" width="200" height="26" as="geometry" />
        </mxCell>
        <mxCell id="mkIjakdbtP-4XP5yUZ4M-41" value="data_de_registro: DateField" style="text;strokeColor=none;fillColor=none;align=left;verticalAlign=top;spacingLeft=4;spacingRight=4;overflow=hidden;rotatable=0;points=[[0,0.5],[1,0.5]];portConstraint=eastwest;whiteSpace=wrap;html=1;" vertex="1" parent="mkIjakdbtP-4XP5yUZ4M-5">
          <mxGeometry y="312" width="200" height="26" as="geometry" />
        </mxCell>
        <mxCell id="mkIjakdbtP-4XP5yUZ4M-13" value="TABELA DE VENDAS" style="swimlane;fontStyle=0;childLayout=stackLayout;horizontal=1;startSize=26;fillColor=none;horizontalStack=0;resizeParent=1;resizeParentMax=0;resizeLast=0;collapsible=1;marginBottom=0;whiteSpace=wrap;html=1;" vertex="1" parent="1">
          <mxGeometry x="322" y="-570" width="238" height="234" as="geometry" />
        </mxCell>
        <mxCell id="mkIjakdbtP-4XP5yUZ4M-14" value="ID_de_venda: IntegerField" style="text;strokeColor=none;fillColor=none;align=left;verticalAlign=top;spacingLeft=4;spacingRight=4;overflow=hidden;rotatable=0;points=[[0,0.5],[1,0.5]];portConstraint=eastwest;whiteSpace=wrap;html=1;" vertex="1" parent="mkIjakdbtP-4XP5yUZ4M-13">
          <mxGeometry y="26" width="238" height="26" as="geometry" />
        </mxCell>
        <mxCell id="mkIjakdbtP-4XP5yUZ4M-50" value="ID_da_moto: IntegerField" style="text;strokeColor=none;fillColor=none;align=left;verticalAlign=top;spacingLeft=4;spacingRight=4;overflow=hidden;rotatable=0;points=[[0,0.5],[1,0.5]];portConstraint=eastwest;whiteSpace=wrap;html=1;" vertex="1" parent="mkIjakdbtP-4XP5yUZ4M-13">
          <mxGeometry y="52" width="238" height="26" as="geometry" />
        </mxCell>
        <mxCell id="mkIjakdbtP-4XP5yUZ4M-51" value="ID_do_usuario: ForeignKey" style="text;strokeColor=none;fillColor=none;align=left;verticalAlign=top;spacingLeft=4;spacingRight=4;overflow=hidden;rotatable=0;points=[[0,0.5],[1,0.5]];portConstraint=eastwest;whiteSpace=wrap;html=1;" vertex="1" parent="mkIjakdbtP-4XP5yUZ4M-13">
          <mxGeometry y="78" width="238" height="26" as="geometry" />
        </mxCell>
        <mxCell id="mkIjakdbtP-4XP5yUZ4M-72" value="data_de_venda: DateField" style="text;strokeColor=none;fillColor=none;align=left;verticalAlign=top;spacingLeft=4;spacingRight=4;overflow=hidden;rotatable=0;points=[[0,0.5],[1,0.5]];portConstraint=eastwest;whiteSpace=wrap;html=1;" vertex="1" parent="mkIjakdbtP-4XP5yUZ4M-13">
          <mxGeometry y="104" width="238" height="26" as="geometry" />
        </mxCell>
        <mxCell id="mkIjakdbtP-4XP5yUZ4M-73" value="preço_da_venda: FloatField" style="text;strokeColor=none;fillColor=none;align=left;verticalAlign=top;spacingLeft=4;spacingRight=4;overflow=hidden;rotatable=0;points=[[0,0.5],[1,0.5]];portConstraint=eastwest;whiteSpace=wrap;html=1;" vertex="1" parent="mkIjakdbtP-4XP5yUZ4M-13">
          <mxGeometry y="130" width="238" height="26" as="geometry" />
        </mxCell>
        <mxCell id="mkIjakdbtP-4XP5yUZ4M-74" value="forma_de_pagamento: CharField" style="text;strokeColor=none;fillColor=none;align=left;verticalAlign=top;spacingLeft=4;spacingRight=4;overflow=hidden;rotatable=0;points=[[0,0.5],[1,0.5]];portConstraint=eastwest;whiteSpace=wrap;html=1;" vertex="1" parent="mkIjakdbtP-4XP5yUZ4M-13">
          <mxGeometry y="156" width="238" height="26" as="geometry" />
        </mxCell>
        <mxCell id="mkIjakdbtP-4XP5yUZ4M-75" value="ID _do_acessorio: IntegerField" style="text;strokeColor=none;fillColor=none;align=left;verticalAlign=top;spacingLeft=4;spacingRight=4;overflow=hidden;rotatable=0;points=[[0,0.5],[1,0.5]];portConstraint=eastwest;whiteSpace=wrap;html=1;" vertex="1" parent="mkIjakdbtP-4XP5yUZ4M-13">
          <mxGeometry y="182" width="238" height="26" as="geometry" />
        </mxCell>
        <mxCell id="mkIjakdbtP-4XP5yUZ4M-76" value="quantidade_de_acessorios: IntegerField" style="text;strokeColor=none;fillColor=none;align=left;verticalAlign=top;spacingLeft=4;spacingRight=4;overflow=hidden;rotatable=0;points=[[0,0.5],[1,0.5]];portConstraint=eastwest;whiteSpace=wrap;html=1;" vertex="1" parent="mkIjakdbtP-4XP5yUZ4M-13">
          <mxGeometry y="208" width="238" height="26" as="geometry" />
        </mxCell>
        <mxCell id="mkIjakdbtP-4XP5yUZ4M-17" value="TABELA AVALIACOES" style="swimlane;fontStyle=0;childLayout=stackLayout;horizontal=1;startSize=26;fillColor=none;horizontalStack=0;resizeParent=1;resizeParentMax=0;resizeLast=0;collapsible=1;marginBottom=0;whiteSpace=wrap;html=1;" vertex="1" parent="1">
          <mxGeometry x="40" y="-560" width="174" height="156" as="geometry" />
        </mxCell>
        <mxCell id="mkIjakdbtP-4XP5yUZ4M-18" value="ID _da_avaliação: IntegerField" style="text;strokeColor=none;fillColor=none;align=left;verticalAlign=top;spacingLeft=4;spacingRight=4;overflow=hidden;rotatable=0;points=[[0,0.5],[1,0.5]];portConstraint=eastwest;whiteSpace=wrap;html=1;" vertex="1" parent="mkIjakdbtP-4XP5yUZ4M-17">
          <mxGeometry y="26" width="174" height="26" as="geometry" />
        </mxCell>
        <mxCell id="mkIjakdbtP-4XP5yUZ4M-19" value="ID_da_moto: IntegerField" style="text;strokeColor=none;fillColor=none;align=left;verticalAlign=top;spacingLeft=4;spacingRight=4;overflow=hidden;rotatable=0;points=[[0,0.5],[1,0.5]];portConstraint=eastwest;whiteSpace=wrap;html=1;" vertex="1" parent="mkIjakdbtP-4XP5yUZ4M-17">
          <mxGeometry y="52" width="174" height="26" as="geometry" />
        </mxCell>
        <mxCell id="mkIjakdbtP-4XP5yUZ4M-20" value="ID_do_usuario: IntegerField" style="text;strokeColor=none;fillColor=none;align=left;verticalAlign=top;spacingLeft=4;spacingRight=4;overflow=hidden;rotatable=0;points=[[0,0.5],[1,0.5]];portConstraint=eastwest;whiteSpace=wrap;html=1;" vertex="1" parent="mkIjakdbtP-4XP5yUZ4M-17">
          <mxGeometry y="78" width="174" height="26" as="geometry" />
        </mxCell>
        <mxCell id="mkIjakdbtP-4XP5yUZ4M-61" value="comentario: TextField" style="text;strokeColor=none;fillColor=none;align=left;verticalAlign=top;spacingLeft=4;spacingRight=4;overflow=hidden;rotatable=0;points=[[0,0.5],[1,0.5]];portConstraint=eastwest;whiteSpace=wrap;html=1;" vertex="1" parent="mkIjakdbtP-4XP5yUZ4M-17">
          <mxGeometry y="104" width="174" height="26" as="geometry" />
        </mxCell>
        <mxCell id="mkIjakdbtP-4XP5yUZ4M-62" value="data_de_avaliação: DateField" style="text;strokeColor=none;fillColor=none;align=left;verticalAlign=top;spacingLeft=4;spacingRight=4;overflow=hidden;rotatable=0;points=[[0,0.5],[1,0.5]];portConstraint=eastwest;whiteSpace=wrap;html=1;" vertex="1" parent="mkIjakdbtP-4XP5yUZ4M-17">
          <mxGeometry y="130" width="174" height="26" as="geometry" />
        </mxCell>
        <mxCell id="mkIjakdbtP-4XP5yUZ4M-21" value="TABELA ACESSORIOS" style="swimlane;fontStyle=0;childLayout=stackLayout;horizontal=1;startSize=26;fillColor=none;horizontalStack=0;resizeParent=1;resizeParentMax=0;resizeLast=0;collapsible=1;marginBottom=0;whiteSpace=wrap;html=1;" vertex="1" parent="1">
          <mxGeometry x="604" y="-960" width="200" height="286" as="geometry" />
        </mxCell>
        <mxCell id="mkIjakdbtP-4XP5yUZ4M-22" value="ID_do_acessorio: IntegerField" style="text;strokeColor=none;fillColor=none;align=left;verticalAlign=top;spacingLeft=4;spacingRight=4;overflow=hidden;rotatable=0;points=[[0,0.5],[1,0.5]];portConstraint=eastwest;whiteSpace=wrap;html=1;" vertex="1" parent="mkIjakdbtP-4XP5yUZ4M-21">
          <mxGeometry y="26" width="200" height="26" as="geometry" />
        </mxCell>
        <mxCell id="mkIjakdbtP-4XP5yUZ4M-23" value="nome_do_acessorio: CharField" style="text;strokeColor=none;fillColor=none;align=left;verticalAlign=top;spacingLeft=4;spacingRight=4;overflow=hidden;rotatable=0;points=[[0,0.5],[1,0.5]];portConstraint=eastwest;whiteSpace=wrap;html=1;" vertex="1" parent="mkIjakdbtP-4XP5yUZ4M-21">
          <mxGeometry y="52" width="200" height="26" as="geometry" />
        </mxCell>
        <mxCell id="mkIjakdbtP-4XP5yUZ4M-24" value="descrição: CharField" style="text;strokeColor=none;fillColor=none;align=left;verticalAlign=top;spacingLeft=4;spacingRight=4;overflow=hidden;rotatable=0;points=[[0,0.5],[1,0.5]];portConstraint=eastwest;whiteSpace=wrap;html=1;" vertex="1" parent="mkIjakdbtP-4XP5yUZ4M-21">
          <mxGeometry y="78" width="200" height="26" as="geometry" />
        </mxCell>
        <mxCell id="mkIjakdbtP-4XP5yUZ4M-52" value="marca: CharField" style="text;strokeColor=none;fillColor=none;align=left;verticalAlign=top;spacingLeft=4;spacingRight=4;overflow=hidden;rotatable=0;points=[[0,0.5],[1,0.5]];portConstraint=eastwest;whiteSpace=wrap;html=1;" vertex="1" parent="mkIjakdbtP-4XP5yUZ4M-21">
          <mxGeometry y="104" width="200" height="26" as="geometry" />
        </mxCell>
        <mxCell id="mkIjakdbtP-4XP5yUZ4M-53" value="tipo: TextField" style="text;strokeColor=none;fillColor=none;align=left;verticalAlign=top;spacingLeft=4;spacingRight=4;overflow=hidden;rotatable=0;points=[[0,0.5],[1,0.5]];portConstraint=eastwest;whiteSpace=wrap;html=1;" vertex="1" parent="mkIjakdbtP-4XP5yUZ4M-21">
          <mxGeometry y="130" width="200" height="26" as="geometry" />
        </mxCell>
        <mxCell id="mkIjakdbtP-4XP5yUZ4M-54" value="material: charField" style="text;strokeColor=none;fillColor=none;align=left;verticalAlign=top;spacingLeft=4;spacingRight=4;overflow=hidden;rotatable=0;points=[[0,0.5],[1,0.5]];portConstraint=eastwest;whiteSpace=wrap;html=1;" vertex="1" parent="mkIjakdbtP-4XP5yUZ4M-21">
          <mxGeometry y="156" width="200" height="26" as="geometry" />
        </mxCell>
        <mxCell id="mkIjakdbtP-4XP5yUZ4M-56" value="tamanho: FloatField" style="text;strokeColor=none;fillColor=none;align=left;verticalAlign=top;spacingLeft=4;spacingRight=4;overflow=hidden;rotatable=0;points=[[0,0.5],[1,0.5]];portConstraint=eastwest;whiteSpace=wrap;html=1;" vertex="1" parent="mkIjakdbtP-4XP5yUZ4M-21">
          <mxGeometry y="182" width="200" height="26" as="geometry" />
        </mxCell>
        <mxCell id="mkIjakdbtP-4XP5yUZ4M-57" value="preço: FloatField" style="text;strokeColor=none;fillColor=none;align=left;verticalAlign=top;spacingLeft=4;spacingRight=4;overflow=hidden;rotatable=0;points=[[0,0.5],[1,0.5]];portConstraint=eastwest;whiteSpace=wrap;html=1;" vertex="1" parent="mkIjakdbtP-4XP5yUZ4M-21">
          <mxGeometry y="208" width="200" height="26" as="geometry" />
        </mxCell>
        <mxCell id="mkIjakdbtP-4XP5yUZ4M-58" value="disponibilidade: BooleanField" style="text;strokeColor=none;fillColor=none;align=left;verticalAlign=top;spacingLeft=4;spacingRight=4;overflow=hidden;rotatable=0;points=[[0,0.5],[1,0.5]];portConstraint=eastwest;whiteSpace=wrap;html=1;" vertex="1" parent="mkIjakdbtP-4XP5yUZ4M-21">
          <mxGeometry y="234" width="200" height="26" as="geometry" />
        </mxCell>
        <mxCell id="mkIjakdbtP-4XP5yUZ4M-59" value="data_de_registro: DateField" style="text;strokeColor=none;fillColor=none;align=left;verticalAlign=top;spacingLeft=4;spacingRight=4;overflow=hidden;rotatable=0;points=[[0,0.5],[1,0.5]];portConstraint=eastwest;whiteSpace=wrap;html=1;" vertex="1" parent="mkIjakdbtP-4XP5yUZ4M-21">
          <mxGeometry y="260" width="200" height="26" as="geometry" />
        </mxCell>
        <mxCell id="mkIjakdbtP-4XP5yUZ4M-25" value="&lt;font face=&quot;Comic Sans MS&quot; style=&quot;font-size: 24px;&quot;&gt;SITE DE MOTOS&lt;/font&gt;" style="text;align=center;fontStyle=1;verticalAlign=middle;spacingLeft=3;spacingRight=3;rotatable=0;points=[[0,0.5],[1,0.5]];portConstraint=eastwest;html=1;" vertex="1" parent="1">
          <mxGeometry x="294" y="-1073" width="240" height="50" as="geometry" />
        </mxCell>
        <mxCell id="mkIjakdbtP-4XP5yUZ4M-70" value="" style="shape=image;imageAspect=0;aspect=fixed;verticalLabelPosition=bottom;verticalAlign=top;image=data:image/jpeg,/9j/4AAQSkZJRgABAQEAAAAAAAD/4QAuRXhpZgAATU0AKgAAAAgAAkAAAAMAAAABAAAAAEABAAEAAAABAAAAAAAAAAD/2wBDAAoHBwkHBgoJCAkLCwoMDxkQDw4ODx4WFxIZJCAmJSMgIyIoLTkwKCo2KyIjMkQyNjs9QEBAJjBGS0U+Sjk/QD3/2wBDAQsLCw8NDx0QEB09KSMpPT09PT09PT09PT09PT09PT09PT09PT09PT09PT09PT09PT09PT09PT09PT09PT09PT3/wAARCAHUAdoDASIAAhEBAxEB/8QAHwAAAQUBAQEBAQEAAAAAAAAAAAECAwQFBgcICQoL/8QAtRAAAgEDAwIEAwUFBAQAAAF9AQIDAAQRBRIhMUEGE1FhByJxFDKBkaEII0KxwRVS0fAkM2JyggkKFhcYGRolJicoKSo0NTY3ODk6Q0RFRkdISUpTVFVWV1hZWmNkZWZnaGlqc3R1dnd4eXqDhIWGh4iJipKTlJWWl5iZmqKjpKWmp6ipqrKztLW2t7i5usLDxMXGx8jJytLT1NXW19jZ2uHi4+Tl5ufo6erx8vP09fb3+Pn6/8QAHwEAAwEBAQEBAQEBAQAAAAAAAAECAwQFBgcICQoL/8QAtREAAgECBAQDBAcFBAQAAQJ3AAECAxEEBSExBhJBUQdhcRMiMoEIFEKRobHBCSMzUvAVYnLRChYkNOEl8RcYGRomJygpKjU2Nzg5OkNERUZHSElKU1RVVldYWVpjZGVmZ2hpanN0dXZ3eHl6goOEhYaHiImKkpOUlZaXmJmaoqOkpaanqKmqsrO0tba3uLm6wsPExcbHyMnK0tPU1dbX2Nna4uPk5ebn6Onq8vP09fb3+Pn6/9oADAMBAAIRAxEAPwDDutISztd6ArIvzEE5yM1SANxCYwQWzkHpmvQ77Sre8siEIDKO1cNZWMgupIRglGKr7157futs2S1Vjo/DkUYjUFhyOCfWp9S01bpwV3HaNvpn3rMs7eW3f5i2M5GK6nTrqLZhwNxAGetcUqkZWW2praxi21qdOguCyMoZSM9cVm2NtJbRx3LZOWGOK6rxZeQx6OY4AN8hCkjtXGWV/PdEQEAKCF4rvj8CaM07tpnQXRa9hAzwoxgisVI/s85HYnAzXY2disUI3bSSOTWfNpgmkLA8rzkjpXIsdB1HBqxfsWlczksFeMykkHGQM9a4TVXH22TH97Feg3FtJgxLnGOT61wWtwrDeyrn+LsK76c4t2TMZrQl01FjjPLZBxwK70alC/hsQb8uQq4/EVzGj6T5tqJWDBjzgVu6dobXQyCflbI5xmp9rGcnFboqKaWnUb8RJFHh63TPJkGPyrkopne1jXOc8AAV1PxJiMelWmSf9Zxk9a5KwvUtvKDqWCnJUDrWkFZBUfvGnFZPb2QlkBH071a0eX55MdMYyKivL17y2VVUBV4B9a29B8Pu+hyXz8EoWUfSo33DRNWMWwhW61aWdmwxJAzXfaDNBYuXZhjABI5zXkyak9tcyFT37Vu6brbyEB5SEAyR61U07XXQhNN2Z7EmtWzjhz6dKr6lGl5Dkn3GOK4mzumADA549a0zrUskYiUckcE9TWDxCaaki1Ts7obcwxAHa2SpwB6ms2RFSQ7Twozn1rZ07RJb2TfcPsUngA5NbEvhqzSAgZDgcNnNcrwrqu7Vka+0UVa5y2mzJFciV9xGCPTFO1XU4gPkbAUknPNRXRWFCjDbKrEEHjNcxqMpmmC5y2c4zXSowlHkXQTTXvPqGp6i0zHjPTFZcXmyv079MVptbr5ZJI46mktkj/iAGTwc1z3ULqwtWye1j4yfxFatuQMdOtV7cKc8jgdqc8pjcAfpXn1JuTaRokkrliaPJ3c9OgpBei3QJnv1pnmMAPrUf2cynJ6+nrWE1zO0ir9UU9Vmlv8A9xbruduOlLZeD3dB5m7p06V0+g2UNs5eQLvbnJ7VvSS2xACsvsQetenRkqdJJMwl70rM5Gx8LpZ3Uc/zbozk5NdD9sSyg2gkl+gxVXUtVjt4yRg9uDjNclqPiG5BJjAJA7jIH0rGTlVb5S42grHQTXk91N5SlQScnParH2ZRGDv+VRhu1ZWkQyyoGmbbI4BOP8/hV+a4GFgkZQMbgueTWSpqOljS7tcWOETTFVyq5yO+RWtFHJGgxyB2xWfFLFGMxsM56VoQysEGc88810QVOOjDVq6IriV4skgnJyRjpUUm6YFmIAxxjtU9xE82SQNvY560W3TawUHGAKwhTUqllpctuyuc5qvMBLhiF5A6VyMWrxW11IJjsDHO4DNeheINNd7KQx8ts7cYryx7NNj7yd4PevWo0rRaZyVJXd0dIL2G9O6Ni0arkMRjNVYY2uJGaEHCnJzVjw2LY6fFG7EyKCGQDOef/wBVS2sW28uY4AdmcgDtWsJJPkW5LTep0dlpTbEkU8jDE5rP1uISTQkkkKeMfWuqSO0/s9XgdQQo2kNkk+hHrXJam8guocsQME8cZonG0bIuLbudb4Kd0juFOAN+frxWB8SImeSNx68+9b/gmPFtM3OGbPJ6cCs74iAeRG2PmDg5xTpXVNNmctZNHF2sUkaKZOAp7d6fcRCSE4B4PrWvDCskJKglgRye1PvbFBZM4VSd2SQcVjq7pF2SsZWhhrXVoZW4wwBz2zXXeO8XGk28q8kNzXHM7W7h9uACCMH0rvNWtlvfCpcclUDCqw7tdCmjgY5JAYXA+7IhGfZhXr9xcKmjsxPyhc8V49NMIrYPgfKcnNeqy/6boBwGAZcHHFdKdmRLVI8c1yUTanPIp4JNReGyp1KaIsBuAYZpNYhNveTIDkBuDmsuymlg1CN0yGB6Y60ql1BtEx+LU9SR2iQhWy+AMDHFVL2/BspIH+UsD15/yTVyECWEYCg4BOBj/OKwtekaIEqBweMjNeHQupufc7JLSxx1/bsgIKnGSQfWs3Fddq1uo0okY3qAzY4rk8D1r2qVRSjc5Jxsz2sadNa6Y247m5zznFcdLKthqbKDyfm3EdK7v+0RdWZCkDJ5FcJqNr/xNmZiWyx7VxxSlJpPRo2bsk2acUi3EoALcjj3rRe3AQFQVOP5VTtYV8tHBwVPU8ZrRilDoEJyf515lan9lGyd9WU5IXv4THnr1rlrWQ2dzs4Lq/Oe9dmD9nyVCnceMHNed3d4U1OZyMBpMce1ethk3Qsznm7SPS7a782FNwwccgHpUySKuccgjketYOlXCywxuW2kjJGetavnRpk7uB0BFfL1YyjUdnqdsWnEhvJBGGbPUV5zqe2S/LMwIL9K728kEgcM3DDoOa8/1b/j5ODk7u4r3cqjLlbb1ObENbI6yylWPTCF4GOCOKtaVrckfkW8almllC7sdK5+yudlkFb0wea6nQIbeSO3HHms4IHpXVRp8s22ib3SKfxQ4s7IZxljXEPn92YxyPQda734qIogsk7luMVxSBYwBzkrniuxOysZyd3cu26SmyY4xt4Fehx3H2HwMwPG2DH515mbyUHYmQrAAjOc12mt6lE/hIQr95lUYzSirPUq6aPNfmlmYqCSTxit3SNHlmePLMGbpiq9hbpsB2hlY7SOldboluwKIMqAcACoq1LOyFCF9S7YaPJGnXODjnvW9Z6dFCQzfe78VPEFijycFhwBTJpvLG4nA6nvXHN2dzdK+hd+0G3A8vj9Ko33ihbaF2f7qgk471k3mrM+FXp0JNYl8WugeoQDpjrT99LmvZEvl2sPi1aLVvMuJMKrfKFJ5Arni+7U5ODwcAdeO1QfNbzGNT8pPINRB2jvyezAEn1reEd5J3uKU7xUbbGxKjSAc4UCq5ieP1Iz1HatqxtxNGDkAYyBjrUktqqHB4HriueTTumFjGhmmjPyk+pHrV+ESSncI29aJkijHIA9D61PYajbxAZVjjjrWToruMkMqxg7gV4xzTo7hUAGR6k1Tvr6GSRipB4+76VkXGpsEKqfbjrXN9Wc5XHz2Whuya2wG0MBj3qu+rOAdrcnpg9K5WW8kJ9gOnpVi2ld9vqeldn1ZKOple7Og3y3pzI3GORTLiJYowG+6O3WpdKR5ARjn0Iq1f2ZMYJ4YisotRdkXZtXZkf8JHPZwlInUqBgZGcVQsL83OpiS4kYliSWJ61TvkImwcjBwSKv6Lpq3MxLdV6Ad66vZQUfNkczvY7S18t0Ulxgn1zWu90kUJcFiqrwAM1zJsGtUVowRg5+tadlclox5hAOOQa4ZRdNtLdnQnpqX7W6mmA3R4B5APUVPEjFzJgcHAxVKXWrOHKCRSw7DtU1jf8AnBSOVI7DrRRi77jbVhutXRjhMZzlh2NcBNaobqQEYVjnrmvRr2z+2QHHBIx9K851eKbTr94+gU5XI6ivTpX+RzzshsWjy2srlSyhwCD7VqaDLb2UjRyMu48MM55rQt75dR0qPKnleCB0rkLeNhrEylmyG6DiqTvU0E9EdpbXRinBGCu4kVU1iTIhkOASDip7WFxDGexJ/GmalZPe2SFQflJBwOlaO2wK9mdT4NcG2bbtOG5APTis74iAGwL85FSeAyw+0p2DD6niofiPII7EBjjceBnrTjpCyIb1uc5pt64shkn7ozmr8sd5NatKIi0TKM4pulad5mjxuATujBAx1rrNAj8zw7EjgZ8sqeM9OK52rystNC07LU4V4TcRguCsfTFdxpu658MNGV58sgD0rOisEALSKMZ4Bra0WVfszouMAngdqigmpu+xU7WPL7kREGBsAlwrZ7c/yr1myvI00aPz8AbMHt2rx/xHtj1iYA4RZMnHHevVLeyMugIckErk5rt2ZlueV6+8VxqUzRkbGY4xUnhzRYry8Mzsw8vkAdqi1u1WyvWVGyhJ4PaoNF1eTTtTVFbEcpAYfy/XissSpSpNR3CnZSuz0Z7VkgAXqQSSK5TV7iaWAQqh3Md+D2H1ruEin/s1ZmxvZCAvpmuG8SytYvbrJG2dprnp0UoJNam8nuzP1aQpYeV12rtJNc35Q9a3b+4+02RcLtRVwMnOa53zzXXRhyxsYSep7QLdbKyJB5JIGBnNYPl/aLwu6/L90E+tb4RnjUuzdzisO+maG8VQuFLdq4ac0qj7GzTcUTWUTRSSJIcAjKjGacUeOckcADAJFJcSSpbJc8BIzg/Smvq0dxGqoQRnhj2rGtTtNvoCd1YsW9z1BwSTt6YzXFXtl5k0zlBlXJ+lehaRbJfE4PAAPA5rk76MRT36Hkq5BrroXVNWJsm3ci0q9W3tlywDAZ6ZqydSM25jjpnGa5oXWCFboffrTTfYIUHnHJFcs8InJu241UsrHQm+MiMuSQwwcd65vU5Bkkn35FdDpVmJoN7Z+auc1qLy7mRQeASB3rswseVtEVHdak1jMTGRgEfWur8Ho0ms27lsKM4WuN0ofIxPXHGK6bw3ffZ71SM/JmteVqTYk7ou/FKXfdWaDBAGcDiqegeH49RMbzoWUjPXGKzPGWqtf64kbDAjwPXNbOgXxi8mIBs9eOKcrqNwtdl7VfDdnaxo8alZScEE5zVHxDYS22jQyOBtJA4roL2PeiSs5Y5JANUPHcxfw9Ci4yxHAqKba3G0rHLWAUwnOc54966rRXWEAnO7qK5zSLVzbAk849K1YnaIgge1c1WryzaLgtEbd7qLnlOgOMDnNRG8mkTaRx3JqBLhXjBxyP1qKS552oBtY/MB3rGnNTlZmr0WhYEcYyWOWz+VNuEV0Py9BxUQkI/A5NTGQbC2O2MUVpqSaT0RKSWrOQukxenPc9apXUnlzxnHBGCfWtq8tv3m8ryTzWXfRbxuHRWyc124d3gjGdzY0zVTGgQcjGOe1X5bkTJnnj1rk7e6WFwp4Gc5AraivFkjABDbjgYrCpRbloWp6CXCCSQ5bPGcZ6VQuc5IBOccHNXpLeRMscgAc+1U7hGK5/OpS5ZJMG7q5mvK0YPPHfnrVYysT3p83EhHrUaRkkflXXGKtexk7jxufj1rZ0W3LujleM5AqrFD5cfI5x1rV0GUSTRRMvCkgMOKio7Kw1udzo9rbeWDtG48EninazDEI8KADjio4ZY7WENJxuOeO9UNS1GSXb5ELMTwQew9aw5G1ojXmsjl73TWlnJA+UnuOlXdKsWtX6EEHO6taGJeC4JOOM1ZtxG8zL8v0NSp3fKx26j5PnQbucDkVGkPA4CkDjNX5Y1EI+XOTg45qhLciMleDgYx6Vkoe/dlt6HPSQsly394nJrqdIKR7VJ5XGa524fLkj7uc/WtPSneUOVJG3GD1rrVnZWMnpqdTnyzk9GPUVxvj6yBkiuBj5hg+9ddOSUyT1UHPSs7xHpo1HQzIMmSNdw966UknZGd76nLeGLmM2QhJUFCQ2e9VrixX+1pZo8hS+emPpWfpszW1+FIyrHBGK37yN0Hn7GCEYHtSVO0rpjburG5ptrvto3ByVyea0bGFPLIbse/eq3hW2a40eGVifmJzn6mmXUyW7x/MVIYqecZq1Zq40y34WtvJ1C9wPlMhxWH8UUP+jndxyCtbvgp973gLbgJjhvyrF+JvlkR/N84OMYpRVo/Mze5d8MfN4ctcqTmEVreH3BsNo4AJGPSsrwtMB4atyQRiAfyp/hG9FzHOo/hkweawtacWWtUzVl0wS20gDNuOcA9qreH7P7HDMpyXBwTnPNTW0s815eQq4UKwUHrjNWbC38iSRTyc4NawSbukK7WjPI/GKbNVuj6tnFevafmbQI+f+Waj9K80+JFusWqkpgbhzxXoHhq6WXw3C7HGY1JB+labNEnmPiePOpymPoWPWucIaLUrdj0Lrk+nNdH4guEfVpRGDtDnrWBf8OG6cZpvYD17TbqWUW0Lfc5LH6Cud8bWzajr0Fui5jiiy2OMk0/R9YkTR475hnEYZu+fWm6v4nsHc3ikMxAAUdT/wDqrDXodFlbU5PXrcWcIgXjjJFc/t+tXrzUWv7mWR/4iT9Kqbx6VvBNI55NNnudxMkjqY/9WBg8YrGlhgm1XDgFFBIBPesez1xnBZQd2ed5zj6VVl1fyrx3YHrzg9a8yz520jpuuVJnR30RmLW8O0oV57VjW2kGPepIG1sNk1f0HUTe353AfOM89qXU71LW8nQ7SwAZfrTquTpJtakxSu7D/D16bGeRH6nkAdhXM6xf51K9bpvc5FallcDzxyDuHJPeuf15B/aU7r9wtnIrooXcFcUtNUYlxuJDDI47UlkjXFyq9ycVo3gi/s/AGZARg0/w9YmRxLjJByK2TTuZWOpskFrZLn0II9K5DWHLzOwBIJ6iunvi8cEe/IDCsHUnUWz8DJPBpUviYS2QeFrFr7zFAPy9SK0rexbTtWnVjgKcCpfAEiRi4bsSBz2pmr6iJdemXBz0wKylNuo4o6YwSpqXU5vUn87XJCCSA3Wut0S2DhT/AMtNvU1xkj41iQjP3uc12nh+4UzBGIBA4zV4iShTuzCCvIs3800WCzsQAcqe1Znim+eXTIevyjg1ra1JvygxyMD3rmvEZP8AZsP64qMNNzjd7DqKzsanhaT7VagMSMHv3rXubNUwQSCRwB2rlPC100Q25+8fyrprm4YxnLnGOK461o1Wn1NI6xuZ5uGtw6k528cc5pkFz5zkDseT0qrdSrzk/lUdtcRx575GBzShSSuxc1zdG0E7sgEZzmr1rtktwQpPrk9K5W4upSBz905+ldFotwptm3A8n61dSl7qtpcSab1A26yzyrgbVOB71karZiJ3iXBDKK1DM322Yovyk4+tU7rfNOXYKO2D3owk2nZjqJNaHPx26o7E4zjAzWxpFitzdIqhQVwxOaqSRqQ3ykY5q/olz9mvFzwMAfWu5Su0ZWtuaOrxYm8kbQrKD9azbjTWwBnJx0Fal84utSjK9CgB9qlugLfy2KgjODUzSbKTOHv7CWORNykFjjJ6GrlrpRwCV9+a1tWvEvXECooCsMY9avRRKlqvsBkVaXQloox6UbobEHUflWrYeGjavE3yhQeafpBSJwpBLE4HtWtNelHAwMA84rmrVVB2aNIQvsRXOnSyBFUn5XDe1W5oV8kEpkDg8YxUtvdJJjPXqO9R6i7PGCpI554ohNOLs9waaaVjnL+ZhOsMYI5zjNOs7eaO53EEhuOua0NO0dXL3LyFnByM1J5yJMY8fKvIIrWnSTWu4ptp3JCXMeCG47DmsW9DB84Kk8Yrr7GNJLZemT1waxr6xjN5IxyeeMnpUTpKLugjNvRnLSocZbPHTNXdBvCLpomPGzIx9RV250wSIQPyqppmjumpiQIQpUrnpS1cttAex18jiS1RuMslTaV/pGmkFc7l5BqL7G4sokz86qQR61paRCI7XbXRyvnTXYzvZWPHdYhaw1hzj7rZA6V6Bo/karpLKVUsQCQeaw/H+meXOLlR8hGKXwLctE6rnKuu0g1bBLU63w9F9mshb4IEbEYPf5jXN+MIQlqknRhL1B9a6eKXN0AoIJOCRWH43UJpgJx/rQR2oSsg6lv4exEabI/96QkVk/EgqEXP3iQBW54I2xaIjH+Ibz+Ncp8Rb5pnWNVPynnHamthPc3/AAtCX8KWhHe3rL8ASf6ZqUfo4JqTwn4jtoPD0NtOQrQxbDz1xVLwnfwabqF0ZPlFwBhvpn/GspKzT7FR1OptxImv3bITtYqCBWqJVim3Mfvd6ZpHk3vnXMeCHkxu9cDFVdV+RPvAEHINUnZXQ0rt3OH+JoXz0lXB3DFdn4Yt47jwxb4wN0S5HpwK888dFntkLOTgnvXofhjJ0CEqRgxoABxj5RVbtEPS55z4h04WOrTYyTnJzWBcobkEoMhR1xXQ+PH2akSCeW55qPwtDFKkiTgEMMjNDbSuxxV3Y1PBGzUdJms36qhU57VyviW3Gm3slqCMAZFdH4VuI9H8QX1q5wjYZSOc1z3jNzNr9w3ocAVMdZmk9IW6mCMbaP8APSkxgU7IrdHOdvFoeoGMYtXwc8giqV/pt5boDPE8bAcZ5zXsENrD5AwvGTWB4qtY3tkVRyzgCvPhdSu2rM6ZJNaHPeEbOfzkmdGC4xk0/U7ZptZl2gltowRzXZ6bZR2+moVHzY5rP063SXVZw6gleBmtJpNKLZMbrWxyIs5vtgIRhk/SsnVbdpZ2gbKt3r1S402LYWVBn6dK8y1X5NYmG77pwM1pGyVk9hdTP/swmEgZ+XoT3q94eult0SELlyxAGK6rR9AiutNLuCWYZBHGK5mPTpLDxOsYBaJZCVzSjJNtA00r9C94kiljjs8gjdkYFYd0IxZOXGSBzzXa65ZS6l9kEYxtyc1xevWb2wkikGHXninCa5muopaq5J4MmCSXCDGOCAe1RatKsfiK4wCVbBUj6c1R8OZF6RnAIycVo6xaiHU0fnlQQc9KOS02+5pz3ppdjn7xzHqcjYxk5xXRaJc+U4cgnjr1xWFrSbLqNyMZUGuk8K2QvIULKzK3BxRWUXD3tjOLaloaYlW5mVv4QO/eszxja+Tplu4OdxHSuhuNEW3yY0ZcDp61zXjCUCzt4yTuUj5SelKjZJKOw59bmbpBNuFbjBPGe9bUt4JU2q3UYIHNR+FdNS+SMugcZwM9q7aPw1ap/wAsU6elceKcXNO2ppTTaPMrwumee+DVS2uCJxu5A4rr/FmlR20YEaAMzYGBU3h/wtFJCXkjUvjO4jNX7RKGxPI27GLF/pFuQqkheTxWjpxYEr04HtV2+0p7P/j3QkvkMAOlW9FsSELugycZz2oqVF7NNDUXzWI7dHlcsEY7RzxVtLUfYnkkUb+TgjpxxWxZRJFNJhcqRWdrdwsVlMARwpBowqg4KSe45XvZnERl5S6hS2fTtVm1tpPtQ8xdoC8A9quaLp0pG8J1HU96sXthdly6oA2MDHauj2kU7JojlbRAkyw3+M5IAHWrV7ciVAAwIAycGqFroN3cXPmSEn6Vsx6AY8FlZsHJB71nUcZWsykmjnvsNykhm8pth5yR2rQgvVwASOAB1rd1i8A0829tCzSsu0DGAtcoNIvyFZU24Pc5zVxmupM49jTsklk1IyKpMeBjmtPUZHWAbUy2cHBzU2mWRiQbwwcDtUtxEXcZB4rjq17tq1y1Bpp3Mqxv2S5xNnHUcV0KXEUsffJHQ1kvZLnOwVdtowcDk+2ahe0lZRVkVotWyvJcNFuVCQOhGKoSXDGY7EZiRgjFdJ/ZkcgyQM+uamhs7aE/Mi5x+depRi7Wluc9TfRnMW+p3dn+7WJgT0JqaE3dw+6RG5PGO9b1xHbEhlVdwNSx3VvGAuFyBW3snYm7WrKFvZS3AHyEcYrTj0W4ggyrR7sZCkZpo1OKLBxgA1afXoBGcFd+OAeahxS3YJ30RDHpt+Y8+cinGMEZIrPTUZ7K9FvMwAJwSBirh19kgJVVLdsmuRvXvb7UDNIwIPQKMYrLnSdkXyt7mr43KzaHIyAFscGud8NlrJLSTGRkAj611osor/TfJmJwVwRnFY95YrZzQRRqSisCSO1LmbNFFbm5c7kntZBlR5gBI96yvH3Gjq2eFkBNaOr3ypBaKp+dpFIrJ8cuZdGWMcs8gAA+tXzK1iGne50XhKIReHbdXHOwEg15/wCO5Qt5MqY+dgSRzXpWlW7WejqpycL09K8c8Y3e/U5COgbgCrWyM76mba3phJQ1oJJ5ybhuP9K6Tw9oNtcWSuUVmADFiM5zWnLpVvDwNg57cVw1azbsjaMHY6bwZbtbeGrQNnLLvOffmqHiSf8Adnbw2Mg1b0zXIUtUtwcuq7ABVLXIlljz3IwK6Kck4JE2abPPfFzs+nxk9jzXfeDJXfQITnKmNSAf92vPfFRZLbb1GehrvvAlw3/CKW+B92IAE961vqiGcF4+df7bxjGRn6VFoN6qQhcgMvB96PHNyZtYclWB6cisOxuPLm29m45ptXQJ2dzQ1d7r7eLyFXC427sdf/rVXmjudRdrmZcs2Mk1qSaxBFpr27R7pNuFGOtUbK+8uEpMoGeelRFPsXKze5mXEYQYHWquG9P0q7cbXmwCcE5NT/ZV/wBqtboyPeNNmEtscEdayfFUbfZo3H8Mik4+tc5oPixYoxHJuzuwCBmt/W7xbjTC55Xggj615ad3yvdHXdNXNuyBewUe2aybX9zrkmcgMAf6VoaTexPZLgjGKxNT1GO11mJyQMjHtU1k3JWewK1ndHT3PEJrxrUZCdZusn/lqw55716tc6nE9kXV1PHavJpP9I1i5cnAaUkdsV0U2nJtMiSeh6DoepRxaGuWHyx7j9BXBx+IGl1mOSZCELnr2zWroG+8ka38w7OV4rfi8J2owSoJ+lZubpzfW43FyRa07VYLpOOsYzXL+MYxNeytH0ZFxXZW+kxWyHavUc+9cprwVLmUHkYAHtTpy5qt7CmrRsc1ougXM03mrIyNjoozXTf8IrJc+W88kzFTxWv4REb2oIK4K4HHJro5HVAQXPTHFVOtK+gRgrHmHiPRWkhIAw8SkkEVb8A2LKmSD8xyTnpVjxbqItp8Lkq6lSDVfwXqUaZjYHKt2PXNXJudO9hJJSOq1eXahRQdzDbkdq858Wo8upQxgc4CgetemXscUkZcxnHUc4rzDXr7/ioUl6rHIMUUW1p2CaTOo8LeHruBBL5gG7kr6V2scUoQLkdPSsrQ9WjNgAAM4BNXDrCg9MfpXFUmnJtm0U0tCtqumecFZyDtPAIqbSbcpbH5uc447Vn634hW3ttwwcdOc03RNbMlqASoJ560pJJczegLfzN42SOPmBJPBpr2cMSHapGeeD1qp/awHVx9M4qjf61lCsb/ADkYABzWEqsWmolNW1ZrW8URdgu7pg89Ko3+mJefuiTsznjvWTpl/LEB50zBs5Oec1qHUc8iTk06eIVGHKK3M7mhZ2ENtGFC4wMcUlxDHg5HGazTqLcYmI+tRPesc/vwQfWqjVg9WDTWiNFI1TG0KKslCI95KmsJLpg/MgwPU06W9aQYVsD613w9k1cxbnc0XEEh+ZQWPcGkJiRMYrJFwQRl6kISQZMrfga6KNOE9jOcmjR+2JHkAHHsaYb2In7hJPvWSdgODIxx6mnRhH6FuvrXWsNBdCeZs0jcIeqgfjS+bFwRgH2NVEtY3z8zZ6dakGkqcHzW6dM01Sgtg1LMcuB94/8AfVEkoLfexx3NV/7JQdZG/Oj+zIu8jH8afIhPUeEiGSWz9T0p6PAOjL9c1X/sy2fq5/OpE0WyPU/TJptJq1yB8oV14dT6YNJFCoJyAeKBpNkg6j/vqp0traLO1+PTdXJUw99jWNS24ALjGxfyqWOJCCQgz7Cm+Rbn/lrj8amjMEQ/1ob8a5JYaS2NVVXUljATouOadJFHJksozTEubf1X2zR9tg5wy9aym6kNzRcr2MzU7MzTRMMlUOQB2qY2QvnhST7qsCQe1XHvrfrlf8KijulkmHllc54waqjiVUfK9yZwtqjYvHMWnkD+79M14V4qfN/IcYIYmvabm8X7M28jKrjB4rxjxZKsl6xxjJOK9BdkczVtztPCczf2fFgZzGMnPTitWa2eY52kk9K5XwnqSR2caPuDKNvFdXHrEEYHJ/GvDxFXkm4tHZBJq47TbFre6DMuOeKva3E32YuuCR2qiNbg7OKJtYimhKblyRxzW9DFQUUnuTKDvozzvxRcGVMc5BwRXd+D7gJ4PjMbrvWAY9uK4fxDbtdTkwj3PvVvSbe8srAhHcR4wVFenFp2aOZpp6mN4huJLm9keQ5YDisWNyrgjgqeDWjqx3znaxYdSfWs+LHmAN0rRKyJZbEomIbHKnNJeupA2fKc9u1Jb/uyR2J9KiuP9ccd6m2o76HQeD9Jh1adxcPtIOBkZrt/+EGsv+fj9K43wTdRRTtESqyE7sE4zXoXmw/31/OuapX5ZWsbQirHn+iaTc3k2bcL8pyc967K9srn+zDEcnCHIHaqvgZ1mgciPc4JrscLInllQDjBBNNUnz8zZPN7tkjmPDEMqQeXMW6cD0rQvtDivHDSZJU5ArUEMVuRtZV5/OmvNHnmToMnFZyormbvqy1UdrWKU1lHb2BRVIUDjNeRyyvHqUqA5xIcV6rq2pRpAY0OSw7GvOpNOb+0vPKkBmLEdcVVOEYN6ik27Gr4TvTZ37BtwDYOSM16JDexSJkOOmea4u18pzGSApUY4FaL34jAjjkXp0C5rKfLzXLi3Y6SW6i2H5z7YriPEJWWZ2H8XTitSbUvJhyzkkjPSuZ1LU4yC2eWPTFa0IpyujKs3axreE5JUxGgGMkZNdQIbiXJLcDqOlebeH9ckjupNnTdkA128OtTbCc9uQaKsIX1HTbsc54ysGQFyPu8nPOa4+xvmsbxHBIB4IFdnrdxLqJZSd2B09K52Lw3JcSAltv15zVQq04q19Akm3c7O3NxdaIZgTtAyMnFcLqFlPcXP7uJmOecCuv0qW6t7b7LJIPKX5SCMZrSR7ZOpQnHYZrB4mMHZal8nNuUPDlhI9rtmPlkDByK34dFikI3XQBxzgCqhv4QMIyjjk4pYrlSf9djjnipjKNR3a1KtyqwmreFrYwl2uWbb06Csqy01IgQJTx0OOldRbWtncgC4m3D0LVdOj6RGARHH+DV0ckWrO1iG9b2OSsrYXFyFkmUAHsOtb40O0KAx72OOo5rQtrbTLclhHF9SM1dGp2MKHBUY6AChUqSeyE3Iz4vDULwjcG3YzTJPDEY/vfnV7/hJ7PeFBYc9cVY/tyxOT54J7Cq9lRa2QueRgTaBDEMtv8AwOaqSaLFj5RKRnAOK6kavZv/AB9faoLzXLOFDxu7dMVLhTW1hqTfQ5c6VEDglgR696jGlA5IP51avdetpnyq49OKy7jWnTG1Vxz0qakG17iVwUlfUuR6Yu8A80kmikAkFvzpmma3EZAbgqoHrxmrt54js8YQqx9AK6cNGUY6rUzqWbujKlsTHnJxj15qr9w9elOudaEhO1MfWqBvGck4/M4rvjfqSti/9pZOjflRLqbQw75JHCjsgzWb9sbH3QSB61zGt3lzFqZdXKh1BXBx7fzFEmlq0NtWOwGvxP0advxAzQdVDniOY/SQV5/9vn6lyT3JqWPV50x8x+tQpx6i0O6OojnMNwPowNH2pZBlJXwOuSeK46PX5xwWP5U/+23eQPnDDowqrwJ0Wx1MlwxBIlYAdycYqH7RI5Co0sjEZAQE5qCyvm1FGCKvmBeVHO76f4VNDdXFmWZHAVThlIzj6g03FNXQmy09nqaQiUwXAHtziopJbuHAd5BkZBz1/wD1Vf07xHIgMN4qyW7HaMDDD/PvVm4jtrwgpIHhYgyIR8y+j/h0x6ZHoa5m3F2ktO4/QxBeTdDM2Pc0huCQcyNn2NRXVnJbXhtScPklQTnI/r6+4/Gj+zrg54PtgVE/Z9bFRbexaiuWjB/i3dMmun0GFgPPYAAjA9q5S20i5kmTKttB6niu7AittMjTBDAYIHNcyp01Lmilc1TfUqavcjyGUMN2MnHWvJtbcPckc8HFdp4jveNturE45IFcHeiXzNzqwye4xW8LLqRN3Njw3cHBXqQcc10pdsD5e3pWD4Rtt4ZyvJfv3rsfsa54Tv8AWvLxVeMZtWub04NpMp21v5uSSAB2xTjYZON4qx5ckR+Vepx0qzbxyNgmPPrisI4hLXkK5L6XM37AqHLsCO+Bmp5b60trBoiVzjAq9dRpHAxKEEjrnpXnuryt9pY849fSvTw1VzV7WMKkLaXMy/lEkjsOhNGixxy6kok+6Bk+1RyOXQgKzdwAM0umSNFqUXytydpGK6ZSSTZnFanbXGlW0tswhiDNjjC4rnZPC147k5UAdia7W3AMA/dNyMHtmpY4Q5I8phgY615UsdJN2R1ezT3OGj8K3IcMXwVPBU9K0/7H1D/n8n/77NdadOYYKqefenfYZf7o/Op+uSluheyXcxPBl1LpU0lu8RO8/ex0rtgGPzDPJzzUgs7OM7lCgg9cVYEkCZ5FdNTEQb0kEYO2qMuYTBCVxkdM81hXn27JxvbJ7CuwNxb4524zTPOt89FrndWnf4i+V22OMhsbyUgyRuc8jtV2OwbODC2e5rqfOh4AUfgKPMi7IPyo9rHuCT7HL/2c4PEXanJYOH3eWoI4rpN6doxUZ5Jwg/KonKLd7jSa6HOXumzzRsAoyRiufk8I3NxncrEE9zXoXz5PyduKUFgAAp69qqFfkVkxOF90cHZ+DJLaQsFwetaiaDcAd8dhXVI7An5KcZH7L+lTOsnu2Cg1sjlRoMwydvfNTRaPOMZUA5yOOldH5kn939KkEx4yn6VKnDzHZnNf2DKSSc5PXipE0Bhj1roWuWIJCYxUBvjH95cD3FQ3G9lcdrbmN/wj7DnjOc9Kf/Ykg6BenpWkNaiI+UZ7cCpYtXicHcpB6YIxXVTw0pdWZuol0Mj+ypYyOV/lQS8eV25wK2ftMLnkrUiy2wJJQE471qsFJ7yZDrLsc00zIMbGP0qE3MpcgQN0wMV1aPZ8kovJycio5Lm1GcRg56YFVHAO93Jkuv2RyMsc8gwsTA/TFMhtblDkxsefSuu+2QZH7k/gKQ3inpCePauqGGSVrkOo2YGLnYMIRn2qvcWNzMDhWOTzxXTi69If0pftLY4jAyc8itFhoLVoTm31OO/sG7PRGz60f2Bfn+ED8a7MXDd4x09KPtLdk/StYwUdkZvXdnHDw1edSq/jzS/8I5ec/Ko59a683L/3D+VN+0SddprRSa2Gcl/wjV5k52gfTNA8L3ZAyVH4V1b3M/OE4zURubkf8s6rmYHLv4Xuh3X8qwPFXhu4j0w3RUE25y2B/CeD+Rwfzr0J5rxwSI8Ht71l3sl5LG8bwB42BVlPcHjFJttWC541x060VpavoN3pVy+6GRoM5SQLkY9/QjpzWZkZ57eprGzBC0o68UmRzyOtIDzjvRYZesbiKK6jabzAFYHch/zkV3NtpMt9Z/abaSF4nON5Yj6qa8/ezuY4Vle2mWNjtVjGQCf8au6Jrlxo90WVmaJuJISeGH9CPWq5pRTSFypvU7E6BOsbbJUIzkKR0/xpIUvLWRXOzzIQSpHO9O498Z/L2rasZWmhjnjHmRSAMjDnIP8An9KskAHcYFyDnJA/z3I+hrkeInF++tDT2Sa0Zz0txFf2yTbD5kByMHBx7HsR/njiun0e6tdRswcqZkA34GNw7MB2z0I7EEVmixtkL7EWKOVcFU5APY/X/GsOxv5dOvRGoAnt3KjfwHU/wn1BGOfpT92qm0tVsTrB6nfIkCEYBOPQU94kkHyg+1S2BttSs47q2JMbjoRyp7g+4PFWRCI+xrjdRrRqx0pJ63MabSoHBzGucdTWZLoEEoJMa56jIziutMSPwV4potYxn5BzUus07dA9mmcpDo4t1G1Vwp4xV+G2I5ZOvPFbhtY8cKKb9mX0x9e9YSjzu5otFYySijPyN+VQSXHldFYHpwK3fsa88DmmmxTPK/jWseVbktt7HMzW9xfoUQtz2PFZr+EWkP7zGRyOM13KWyx52AA9ql8onJwOBzXS6kUrRMuRt3ZwVj4TW1uSWAIIxkitP+wbaPawjA2ncSB1Nb/ymRlJAIGcntVK+kETgEHngHtXDNym7myikrEltpsYgG49sn2oFtHHIeTkd89azZNTlEnkgY4zQLh8kmUEqc4Pem4OwJpM1XdUjIOMgZ5qL7RJ/cSs7zZ5HVl2hePlY5xVrzj6p+daRp2W4uYvPpTknEkgoGkt1LOT3yauvqMYz0/Oo/7Ui/vCvIthl1NryI00jgEk/iaf/Zg49BTTq6D+Lj86Y+sKPX8utaKrho9Be++poR2UaY6+9OMMYycf0rIOrnjrxxUb6s56bvxq3jqKVkhcj7m4EjwMAU75B6Vgf2i3GOv1qM38vr1qP7Rj0iP2fmdCfL/2aTKf7PWuafWJEPQU06jduA4icKwyp2nB+lXDEuekY3JaS3Z1XydcrRlM9VrkX1qWMlW+8ByuOaiOvyZ7j8K6+Wu1dU2RzRT1Z2ZkiTng1H5iH06+tcVNrkwBxuxnqBUQ1u7JG5gF9jV0oVZuzjZCcopXudyZothAGWzURtftBG8YWuVj8QiEDETM3ck1IfGEvQQjpxk16UMNbdGEql9jqRplsmcIP8aX7BCDnaPyrkT4uuT/AAD86R/Ft0/ARQfrXT7Jmep2H2KD+6v4Cj7LF/dFcUfE94+Pu8cGmP4jvj/Gv5VapMLM7j7PEOw/KjyofRK4X+37wjmQUDXLzP3x+VP2TFY7ry4xjCigJHn7o9+K4f8At+8GPnB/Sl/4SO87MPyo9kxnb4UYwBSfL7e9cUPEN7xyp56Uj6/f99o/ClyNOzA7f5famkKOcCuIOt3vOGyO+B0pv9vXp53jHt2qvZsLHb/L7UDHtXEDX70HO4H9KQ+I7w8ZFHIxHc/Lz0puU9vxriP+Egvf7w/KnJq96+Op57ClyMDtCVwemKrybccAc+1c2NSvyP8AVt9MVIl7qJxiAkUcvmFzVkhUkkAD1rCvtNSJzJJYQypuJDmJXGM5weMgj1PFWvtN+eCmMnHPasbVfGcelSCM75pQcMsRACnp1PX8KqE+R33NKc+R3tcsJZae4DLYWYJ6EQKc1cj0m0lz9lt4IZD1jWMDP0P9D+dcfN4+iky0enMspOSwlAz9QBg/z963NA1s63ayTwwPDJAwWUA7gD1yMc44P0rshWpVFtZnbGtTmuzNF7NnBRlXKnBU9ePTP8j07GsKbQ7C6ea3MStKpBLMCrxZ569wT65rrxi8hXzGEjkcOpyw/wAar3MTOgWdQ+DlZQSD/kelNxUthSpxkcSX1Dwtg293M2nFsNt+byTnuDwVPXNb1n4qm8sSXNtDdQsNwaI7CfoDwf06028sJo5iUYI0oKhnGVYejDpz6jj6Vx17HLokzqEeOJ2y0J/g/wBpG7g//W561w1qC2kro5JwlTd0ej2uraNqwC28yRTH/lnKNjf4H8M1g+J9NeKdJmDeXIu0OBwGHQH2I/UVgC6guUjncCSNV2uvXcD29iOvPOatW97c28MtnDdG6t2+byXcurKOw7qwxkEfzrjWFdKXNB3XYiVVSVpL5mx4S1h9JnKPIxs5mAcHkxnoH9wDwfYivRHlYAlsgCvKLqYGT7fb7XilP7yEcbXxzkejDI47iu38NawLuzWxnkLSooaBj1kj/wAR0/Cs8TRv7yLoydrG39oJIwTSiZh1/WhIgmMHtU4A2A8V5HvX3O3Swzzie1O80bemPanjaew6UmYx2FaWaV7k3Qgl45FIZeRnNJvXJ7c1S1i8FlZgwjM0p2pjt6n8P5mnThKpJRQm0lcq6l4qstKulhmjnfJwZEAKg+nJ5I9qsW3iCwv0Is7mNnI4VztY/gev4ZrkPEEMB0RvMdUUchnOMGuDttTML7WcMucZzwa9WWCiklfU53Uaex65cTNbmSQuMgfMDxVa5v4rgBnwTnO3PSuSstciEMP2q5EsLMAEY5de3HqPatnVUFviDGHbvjpXI8O6bs9ilO6uaJEMuyTj169KY4SQEIw5HU9qxntr17NkQMCRwR2rP077ckzCcyEqcEE5xSVD3rtjctNjpEMnl4U4IONvU4q59p91/Kudt7+WN2yWwwwcCrf23/YaiUGON7G2XGSOaiduuP8A9dSC3eTJUMT9Kgmt5YxuZGA/nXzLw8otXR1c1xyP68Ypvmq5PWs2b7S/QNj61TzcCTbhuO+a64Ze5q9zN1Enax0AkUd6BKpPX6VSjtpXQMSeR0p3llBycnHNc8sPZ2TuVdslkkG8nJoE2e/SmC33jdk/jxTWRgCI1Zu3HNVGhd2SE20TIrTSLHGMyOcKM967HTrZ4dGitbpU3qpVh94Dk8H6ZriYbW8kfKIy45DDjFdHp/iAmRbLVF2XIAEcw6SD1+vavoMsoKle+7OWs22uxm6n4etYnZlabTixzvizNAfqp5T8CBWRd6dqFhCZ5YVu7VRnz7UmQY/3eo/X612P9p20jlfOVweAwG0j6g1zfizWLPw9bS3Vm6meVdiqhxlj3OOM9PwHvXvJ8q3IumtTmZtWlkAOmQNO5XeVRc7V/wBongZ9KpnXNQHE+ksT0ynBH5VzUOo3lmWe3uZFEjbnAOAx9cVaj166/jfePU8Gs3NSZF0baa85+/pl3x6JmrkV6swBayv4x6mAn+Vc8delCZUkH3NVpNYvJespo5kgudnEYrjIt5Fdh1QcMPwPNIYZM/6tvyrjo9VlLjzxv29GJIYfRhyK6/w/4xaOHZcP9tKdYZRtmI/2H+65/wBlsH3oU77BcljtZ5XCLE5YnA4xmr1zoN5bRh2UMG7Lziun0q/sdVtvtViQwBwyldrRnuGU9DWiSJMBgCB0FS6kr2DmOBi0y4kxmNx9eKtR6HK+S28ccV2nlptHyr+FLsUfwj8qHUYrs5BPDjZG5mx3px0iziniimn2ySgmNWOC2OTj1NdPJtAPFeXfEO6L69BGpIMEQIIOMEnPHvwKqEm2kyo6tJnXCzs4uUgY7TwZSfm/L+tTpF5kJ2Jb4U5O1UBH5jkflXNeHvE/2giy1QgS7A6zD+IHpu9D711QiKYdSCcYDY5ru9lBq6O5Qg1exWjutRsJw1vPG0RAzE0YT+XBNaYubG+jP2+wg3dyo/yfy9KpXHlWsBubkMYsgM684JOOn4iuX8U6xcaJNA9rOzJJkFGQrgg89++f0qJxhbXoTOMLXsde/hfT7kGSwlO0/wAJO4D+o/Wqw8ORD5fOty4/h34P6ivOT461XzAYZdjA8bFAP6d6km8WeJL4ruFyzA8ERHJ/SuZ2b0dzkcU3oejjSEiOGjUY+hz+VLePbaVZtdXCFYkIBKLknPFcEkfjW5hMm28SMDIDyBP5mrFjpusy3UZ1XUlSENsZTIZc9sEDI79alq24ONtzX1LxlAIJjp6DEUnlmVx0P+6ex9ayYfiHLZlftyLdIxyQihGUfhwfxp8Og+G7O6mhub67uvNcBAiEA446/U9TVkWel2oeKws2MTMDumcktzjoOw/Gpm1FA0lpcXxrq99bW1k+n3LRLcRlwqDDHoQfyOK4DUby6vLmaS7yJmO4rt2/p71ujU2+xGaRrVUIJKRRKrEjjBY56eh9RVJL7THsGW4MokZmYwhiUHocBe+B+VRfQh22Rko8cnkptWNV4diOW9/c11ngO/t7LULuNpCkcpDQB+C2CenuBiuWtbG5v0P2a28z5sFxwF/E1q6dp1zD4hsItSRl3ZMWGBBIHHP1ApbivY9TM1nKTJbzCKUnJYDhv94d/rwfelQMIyzKCjklsHIB/p9a4a41/TLMkCVpnXg+UCR+Z4rqfDmqtLpsTGIpHLl2RzkgHofxAzj3rsw7le2500JSbtuRa1LPa6PNPafvVTllIyQO+PcDmuCutYtrpJvMd7jzVJjhJISIn075FelSRi2mzGweNuRnofY+4rzHxbojaTqrtGmyCY+ZFgcAHqPqK0xMHa62NcRBuN0ZdjcS20wNv85f5TGRkNntiti9iS3f5cwyhdwbd97/AAOcj/Oa59Djj14ruND1Jdas2t9RgScpwG2/MP15zz0wfr0rihd6LU4VTc3ZGJYXjRXIWYpLDKArBjyM9D+BrbtvtMLyW6Fo5YCZIGXjd/eX8cE49RjvS3Hhi2dDLaTNCBkGVB5ij2P8Sn2YVNJpupQ2dtd5aVbcgSy2535A6PjrkADj2qeeF+V7lKLibeieMmlQWupFVuQN0cgORKp6fj/nrW2mtryM8Z6muNudMt7q5jlO6CKY7laMAiM/xADuCSGHsfwrVELWJW1nuobxWbYk8f8Af/ut7n19eK87G4J29pR+aOunPTU6AaxGAfmHpnNM/tdeDuX34rBeyEYkneVFhQ4Zs5APpx39utZ9xr1tDuEcEjBTjdL8g/LrXDGhXl8I3OK1Z151aPnBBrhNV8U3lz4lks7SASSI4iTPOB3P05JqB/FE003lWMAllJwFhQtj86rX1rr0YNyLVEknJ8ww4Mn/AAIj19s9K7cHTdGbdRq5lUnzL3UJ4s1I3Lx2zSpK8RJb5elc1FG0pG1c5OFAGdx9qt29ncvM4e1k81jgNKCQPwxya6XSvD3k7XuQw4+6fvH24+6PYV2V8VBXlcyjGUmR+GtHjheO6uIVkER3AE8M3t7Dr7kV1SX3mXXmXEJxnIxzVXY2zaqbQBgADpSiKU9B27V5E8a22dMYWNC5vleSMxxnb3ycVJFJp3nHdtDEY5NVBbS7BkA46gCoZLOZ5Pucg+ualYuLWqNFdGvbx6ZsKkx9e/NTeTpf95KxjbTjgoPxFL9muPQU/bKWtmPna6I6wwkEhU4z9KhuYZSCMLwcmpoZfMJJY+3akNwuSOvrXW40nujnTnYgjsFlwvljp1AxTv7EhyW2KGzV2G5UEBevelMjbz6ZxTdOCWglKV9St/ZqbAAqjFRSaDCQdw5NX/OXIUDkjkVHJcFAST04x61mqUOiLbfVlIaRGAoBHSpYtOii7DI/Ck+2SuQFjbFKlw5xmM/WtqVGKd2iJS6XJI0CPjbwOhxVLW9NXUrILAAl1Ed0L9MH0+hrTEjf3AOPSlyxH3a6UktkZvXc8r8UW0krxaxCJIxKfJuVBI8qUcfgDXJal5shDTSyS7eBvctj869N8QzRWfiWa11Bf+JfqkKiQ4+6443j3BAP41wuq6ZLYXk1lc4LxHAYdHXqGHsRzWjbsncz30MPGYVPtg/hUfKHNSkFI5FwflcYP1//AFVtW/hxZUUzzOrEZIA6VcU5bCt2MEkGlHtWrc+HzE5CTHj+8tUJrKe3+8uV/vKcim4tboLWIeeetKHPGDjvwaaCOnvSjFTewHXeD/E7WOpol1IBHMvlu7dz/D+OePxr0J9XZMja2a8VRN0Lf0r0zwLrcOraettdlftdv8pYnl17H69qe6uBvjWWI4jY02TVbkggQsPQ1qR2sQx8gH4YqYxr0CjgUroDn5L26KYETEn3615x4nla41+5J5K7UODnkD/HNeraxfppOlXF4wXMSZUerHgD8yK8rhhWYSTT/MV+dif4jnp+Nd+Cw/tbvsduEw7q3fYpwvi1vnfOTGkKnH4j/wBBrtvDPiRbGC2jukea2lGwggsY3Uc/hxn1H0rnrexhljjhuDsM+Z8j+HPCcdwBk/iKXT7hYLyGGQMcS8SdFPylc/icDPfFLEQnD4egVoSg7Hpf2m2vgYoUKo43AodyOvr9elcn4s8Kz65eW5W7jiiRWJZwTySOn5Vx17qd/YXNzbw3DpE7EGPPH4eh9xWXJetLjcXb1LMW/nUKorWZn7RWSOkXw3a+HrhLy61e1lkiO5Y0IJz69e1XbPVfE+rv58NyYYZQWRRAXwO2T71X0O/8KW2xpop/tAGTLdRh1B9gOB+Rrs7bVrW8QC1vIJ1xwqSAkf8AATWsYRa0djWME1o7HOQ6T4rup1WfVEhiJ5cY3D/gIFdIng2/eyY2mspcSMN3mOm4mTjHJ6A4PGBjipHIzyCpPYjH86fb3M1s4aF9rdDzjP59fxqqmHclo7lTouS0Z5ZeHXEuruNzP5kBxKqKF2c/p/ntWa+rX4QL9tnAHG3zDx/k16P4otYry9j1J0cTuDHJkkoMrtzjt29c/pVdzo9xp8Rt4LS2vocLLGI1G73Hqe/8s1xui72locMouDszjk1GK40a2tdQs7nyYCSlzD2yeeowQeOp7CodVfTDbRJpcbqqli7ytl3zjr2AGDwPXrW/deIbNNNuLFZEYOMqUQkA7s/keePeuXuBbSOBZ+Y7EfNlcA/QdhUTiovR3JRoeGNVi028ZbiOV4pSABGNxB+nfOccVo+LNbtbq8SGxXcLdCjTHjOeoA7Dtnr+FYEMi2qMIz+/cbTID9wdwvueme3QetQYwcDjHGBUoDS0WwGq6lHG3EKjfKR/dHb6k4H413epWTy25W1IjucAhQ3yseuB/dYAYGeorP8AB9gttpSXSupkmJdiCDjHAX8OTj3rUuNttmYQtIsh/eKDgt9T7dR05A5Arvop00mjohUdJozNO8XSRyR22pRktG2PMAxjtyK39b06DXtMNsQAcbonA+63+HaqF/4cg1iBby3dJJgcEhsbx74/iHqOtWNEvRcQMkjMLm34kUjbkdA4H6H866uZTWx3qUakbo4DV/C9zpTqWZXjYZDgY59D6EVJoBFtOYpCN0hAKscK3tnsTnIPYivRtWtzJYSSwLvaMbigGQ3+fT0rzi6COoeNCo7jHT0xSp4VX5o7oIYeK96OjOomvG8tRcN5M6qfKuk+VyQPuNjqc4GDkfhVbTPFLW9yBeQ4OcGa3G1j9V6E/THNQ6Tq8N1YSabqS7gwJilAyxfHGffjGfw96w5QwBDhgwOCCMEVNTCUqyfMrPuaOnGaaasztdS1jT3tZLFnaSRsGMCIpsbsTkDAOSPxqoHWXQZpLeVma3uAxwMZQjGfoGBqnqTrrnhSC4xm8sAI5Mckp/Cf6flXP2Or3NjBNErZWUYdX7nqCPQg4NcdOiqKcbnC4cjaNHX7yTSj5EbzwzMRMpTAU5GPmz1xz+fWsOOa71W9gimdp3kkCqp4Byfb19amsbe41XWIYpJdyswTzJgWC+nH9K73S/DVtokguRJ9ouuhlcY2+u1ei+nr71yVpWvY5dW9TcstBt7ZDHbxxwxDoqDH/wCv8atf2LF7elU4dSIfac5z34q8l+oAywBz0rwZLV8251ry2HnRY0QFR74pU0iJ3HyDOfyp0WoqcAtn3zVj7UEwwI59KzlyXuyk3sVn0dB/CPTApRpqxkfu8CrcV0HzuPQ8ih7lCTgcAdzVJUrcyC72GRWSjJwMZ9KU2yb/ALo9eRS/aARgdaT7Qe+OlJcjd0O7D7Oj4yBx7dak+yxf3B+VR+Zs69DzT/tCeo/On7RLQXKUoogJMFiV74NTeVESQB0HWprq4trPk4+bj1rMl1W2J3qy9ckZxXpQsldmU+yRK++NwQO+CM1oxP8AIGbjA5PpWE+uW7zF+igYGT1rI1bxZIR5NiM+rHoP8aqybsZ81lc6m4vYI3DNIoJOBk0gubLIL3CkjkgGvMpLm5lfzHkZifwxUfmS8/M3XPWtoU7KxDm2erf2vYB8efGMe9RSa9p8WczqcHsa8u3vwCTk/jS5bpk1fIHO7HpcXiexfJMoX0zSp4n0xGJaYbfzrzTDE9c/Wk+YA7j9MU+QV3ud14gvtH1/Sp7V3XfgtC5OCj9iPxwK4+IN4g0EIVzqenAhQessY5Ke5HUevNVQ7dBjnvVrSiYdQjkDmN5CF3g4wf4T9Qf0NWo2ViXdu6OUKeYbuNB0US5zg8f/AFifyrrLOUTQxPkNkcsB1qprmnLZ65FqcMarbzyeVcRD/llIRyPo3UflS6PLFp101pcyBI1O6Nm4BU9P8K1pPk3HFmtcaaZI93qOeax5tOeMk7Tj2rbuNTUn5fy9agF0ruK3aTLaTOauNIinyRlHP8QFZ0uj3cZ+RRIvbacV2ksaHnAJqIW3OQo/xqHRTI5WjlrOxlkkSNwYi399SKuf2Hf6dctLY3S+aM4ABU/rxXWRSomFkQj/AGutT/ZorgZUgk/hSVFWsJp9ix4a168stBjn1oMpaUxjI9Of1549q1B4usSxIfBxzx0rnptNl8kxfMYmO7aCSM+v1rNubCe1RpWRvIX7zkYx+ff6UpUddBRu3Ys+M9fXUha2luw8tT5jgdz0H9T+VZNvC0qQ2sf+snYZHp/nrTdKs5NRujMyYyTj3/8A1DAraeFdNhNyceaRsjz6nv8AgM/mK9rDQVKlbqz38NBUoW6syNSkjk1B/Lx5UZEa4OOBwP8AGtCKFZLYo43Js5B7/wCeuaqGKGFC8/8ArWxtUfw5POfw4rYtvs8uTbSb+MEYrZqMkotF1FGSs0YGsabH9m8+RmLquA2ck+x9frXKlME123iiTyrMRqPvHOPSuQEbSuNoJLHgAZrysVQSaUUeZXopO0UQAU8RngjqOh9K07HRJ7yQoqMCPUHmun07wSSBJdyFUHAVeSfqeg/Ws6eHa1bshQoPd6HO6bqWtROsdpdznccLGTvB9sGu10ubWpbhYdRs4sYyZI2xt+o6ZHtWxZ+HrezAa1t44kAxvX52/TmrExS3jRbZ0fHJ2thiffP8q6ITUNE7m6ajpe5zXijVZdNthHCq7pgQQwDAj6GuU0yK21IXaahLIBEm6N9+1R7FvXpxntWn431OWK6gVrI/dO2SYcHnqAOD+NcbcXk94V8+VmC9F6KPoBwKwxNZaaHNiZppRSNGW50m1QpBaLcSEY3OxIH0z3+lZklw8nACop6qgxn/ABpvr0pY43mkCRozueioMk/gK4G3J6HGlcb/AJ4qQPvwD1H4ZrRTw3qXlh7iKO1jbo11Ksf6Hn9KmtdAs5J1huNctY5GOAUikZAe2WIHHvzVKnN7ItU5PoVNK1a40efzLdsxsfnjJ4b/AOv716Fpmp2+r2pkhxgjDRkdK83vLKewvZbS7jaKeJtrKec+49QeuasaTJe2zm601ZHaIYnUc5BPHA7fng1rSrOD5Z7Anf3ZHoEVrPZ3SLbZa3cYOXwIwPQevJxjHuDyas30bZNyu0XMSkthN3mJ0z/9bnB5qnouuQatDvh+SVR88Z6itUkSgYO2VeVb0/8ArGu2Hu6rY0pzdKSvsZnh7X0MzW0hZo1GY3b09/pmsnxBpLWupGK2UNBdnzIsc4I6gfzpdc05raT7fartQttniHPlk/0PWohqTX+nm0nZg8Y3wsP4SP8AGu+Cv70Pme1San70TEuLZ7ZwGBAYZU9Mj1/SiaZ5ox5mWkzgOTnip57prsr56KHRduVGM+59+aaI1IG4Hg43CtPZ3RXs7lnw9qKWGoFbg/6LcKYZuM/Ke/4HB/Cs7UbVtL1Wa3kVS6SY3MMgj2z2IwfoasXUY2IyurbSV6YzWvewnWtEgvEWOW8tVCSof+WiDhW+o5B9hXBiaNndnFXptHPWcbC6a4TnapY7Tt284z9AcfhXRHV7i5hWTzD8wzjrisXSTJLqwjL+X56sjhRgHcuMY9+BV3So1XTyoO9opCrEHPfGfoa8ypFHm1FZlxNTuEOSd3161YGvvHgun1waoMByfaon2nggGuOpQjNbEqbRvxauZEJQEE84J6Vdh1aXZh1x+PWuSikNvIGB4HrzV+21ZZsxkfN0B9a86vgrK6N41mb39tyRZwMj2oh19i5JXr+lY6TcHK4z360yGb5yNhHbJFYKjFK1i/aNu5sy+IJM/Ljg5JNJH4gmJ6A496zZUWONpDjpn61WtZcyFsDB7gVpGhBpsHUd9Ddl16YoM8dhjvUX9vS+9ZsjtyPfvUfly1mqEeoc7EuNXupstPcM/Yc4xVSS+cYbLEt2BqtIhc7FwB61KkK4+Zucda9pQTWxyuTuBuWkPzHjPFL9pxkYp6QxYGXA71G6RDO1uc5rRRSJHC6PQr9OaVLpRkFeTUGFGDnIPSopTgnnv2p2GXPtSiQEKDig3G+UNtNUwSmD3NCStv8ATFFhl97jBHyEH27VEZGkxhDUAmYk89aVJiBxVJBcn8tiRxxUuq7YoY/s8BWURoxkSQrjJwOOh5qukrHq3NGqzCOzt2YHMsIVcDoyyKf5Zpkz8ibSNVS/gmt78lg6+VcAckjtIPdTz+BFZ9zcpGZNN1ZP3kTbRMnOPf3BGD9DWWly1jqUkqdFkYEA/eXNaGtKt7YRXceC8ICEnndGen/fJ4+hFLmurE3adiEG805N8Li5tQeqnOB/Srtrq0dwRtbY/wDdJrn4bmW2O6Byvt2NWjNaXpH2hDBMTxJGMg/UUKdjTmsddZ3Cy8HGfetJYgeVIwa4PzLzTsOriWJekiHcP8/Wuh0fxBHdbY2O2THQnrXRCqnoy1JbG95QPWmn90fl/SpA+RnkZPaopZOMHHHetlJWKZZt7+RMZY4HvUepyRavbCC7lZQjb42Xna3qR3rOkmI4B61WuLry0LcADkk0nUS1FzJanV6A9qbPyHjSKaAgSKvOfRx6g/z4rG8X3Wn2uyd7grKuBHAByw9fYZ7muOj16/l1iKWyl2tGCiYGQVPXIPUd+fSnC2kSd7mefz7otuMp5wfbP+faj621tubfW3Fablk69aXIVXVonLbmVxyx+tbFhcQB/Nt9uGIBCnPFZguluAEvIoZx0G9QD+frTJdFsCnmWkstu542q2cfnSp4iSd73M6eIkpXbujvpNDtr2GFpxuO3cPQdv60220rS4naK3ltWmQZZI3DlR6nHQfWuL0yKSO+SLUrua5iIxDE7Ext+Geo/untzzXQX1st7axxwt9nMTbozb4j2Z+nr71r7eUtTZ4m+p1Vrbg2wZTFCjNhRtzkD6/zomhtUTMkrebn7oO7I/pXFRy6/Y/KLiO+iAyFnXDD/gQ7/XNWrfxTAgCalaT2bdCxG9D/AMCHT8RSTUnq7DVVSd2zphcRmNgkbB8dRx/Lr9KhjwhBkiOw8EKetQWt1YX0Bkt7kSjHBjIYD61ICyYIZh9Dit4RjZ8pskmtC8+m6ZqEJjTb84+5MOT+fFcTqPgCC9mlbTklg8skHIytdQ8jGMr+oNPtb+5tHIhAbJ5Q8g/4fhWcsO7N7k+x07nmdx4bfSIvMu7Ka7ZepVsRr9QPmP44FVv7Wukj22zLbRZ+7bqEz+I5P4k17ANSsL7i4QQPn7x5X9OlY+r+CbK/DTRgK7ciWEgE/XHDfjg1koKLtazMlBR0tY8sMhdy7MS56knOaN4znj0wa19W8MX+nbmMf2iJT9+Icj6rWI467TkD26VLuiZc0dTbikTxFZx2FzIq38I22dw5++P+eTn09D26VQ0e5bSNfj+1I0YVvJnQjBGePzBwaoAkY69ela8jp4htlSQhdViXbHITj7Sg6Kf9odAe/SsZJT23MpJT1W5dvLWU6nLPp5WC8t3IeQSYSVeoJ/unGD6H2NXrDxgok8jU0MEoODIvKn8v5jIrnbq/Mt5FdojeesarMrL0ccHg9QeOD61sXwsL/SVMNm8d5kiSLABjPGX9cdtp4GSaUKsoaGXM0rM6r7RFdRiaPZKjLtkUHIkTv+I61yWr2DaVdboSWtpfmifPX2+oqD+x9Q0oxz6TdMWZQxhJAcdvoee3X2qa38WB0a01a22jdncIwdjf7p9fTiuvD4uKfZnXhq/s3uQgRypNKwfzAm5dgyARyc/gKhsdQtbhRHM3kuzYZiflP/6uatCIq5uLWWB4Sch4zgD22nkZ6YNc5fW32W7ZV/1bDdH7qf8ADp+FdWIxM4JVI6pnbXxM4WnDbqdjZaPHdSPDIxVscMDwR6j19cd6fopl0TxEbObaxzsz1Vlbjv2IJrldN1y70x/3b5izkxvyp/w/Cte81631W/guhG8MoUJIo+bJHQj2/KsZYuNZauxnLFRqrXQXxBpLaV4nuIIZFjwTKjE4wMbvzp+kSyXklzIEVXkVSVUYBIP9SP1q14k8R6fqeoNcqqrII/KC58wn3OOBnp1NUfDqGHUlQFtvlo5z2JcH9Oa86rNNaHn1GnsS3n7u5ljDHCsQP5/1qDJ2E5/SrGr/APITuNvTd1/CqZzs5zzzWS1RkISOSDz3waSKbyn3LkjvTRtwfWp0KvGF5/CpkrqwGlFqURRVOAWOKuSPFsynXGc56VgTRJHgqfm9qdazESYdiR256Vw1cM1rEuM9NTafEiAE8UwlIiFXoR9ar/aVkIRW68DNWPsYfDsO3euVxadnoapp6oiNx8/GOT9al+0mqlxHsYGMHaOCQM0zzG9D+VVGN0BW2Pzxlu2Ka8cmfmBH6U9JCCOMc96sxyGQ5IX5fevYOYpeW3oePTmlRPY81oeYoAAC5zUTyoD0Gc0DKgDZHBwDQY2PVTVgyMW+VR69KjFxIcDHOeuKYDRG/BZcAdM0nl8k4+lPkd36kj2pUDEAnp0oAj8gDk9c5pxT5RjildOcgnHvTwhIICnimhpXIgmDwSeKdq8bTaVZKg+fc45OOnP9KnUKmcjqM1BqIluLOOBI1JR94JOP89abJa0OckhkjdtykbRyevv/AFFaOiXKGQ2dwcRTArz2z/nP4VWlhmj374GRGGMLnGfX8aq5IIPQr0xWezJauicWMnmTwn/WxEgj1/8A11X2EHp7VozXvmzw3yDEhASdfVhxn6Ec1oSabFcoLqAAo3Dr/dp2u9BrYxrWa5t33QMRzgrjIP1FdDDpFrrUQe3xY3oGdo+63+BqKKyiiAON2T0zgCrVvIwkG07eOMcY71aVtxp6hFqV5o8wttaikRCcLOOQf8f88Vryyq8AlSRXjYZDA5FTQ6lHcwfZdThW5t2GDuGSP/1f1rG1PwxZqCNNvXSBjuMbE/L/APW/zk1pdpaFcxSvtaht8qp82TPCqen41TFne6r+9un8i36hemfoO/1NaFrplppxDKolkU/fcZ/IflUxcuck5Oevc96hpvcm9yr9nitYCkCbV5BPdvxqEv7d60BatJgOSuR6Zok06zijMk9xJGo5LZHFNxdiWmzO7j1pxuWjiY9dqk4qCS9thIVt/NdAfvOAM/8A1qT7ZHDD5wU7icRqe59foP16VhzNOxKTRc1G5bTrZI7oxTXEkayBEz8hPIz7jg8dc+lYo1G5DmQXD72OSc9aryyNLK0kjbnY5Jpmarmb6miRsQ+J9Rh/5bCTHZhmtCLxhvA+1Wqt6lTiuX70Z6cH6U1Ul3Hc6o32i3kgdS9nP/fUlSPxFaVnq2oW2BbXtvfxgYCTH5h/wIf1Brh7e3munCW8EkreiKWq8fD+sRIJDp9yAehVc/yreEqi1SNYuotVc76LxRbcLfwT2b9CzruQ/wDAl/qBWrDLDdRiS3lSVDyGRg2PyrzGIa7bYCw3eDwFMZbP4GlS8vLeYSPYTwy5/wBbCrxMfy4P410wxM1pJG8a1Rbo9RhhWTcuxGYjI3HH+TSJHdWTlrSRuB8y4zn6j2/ya4a18bT27bbnM6Dr5w2OP+BDg/iB9a6PSvGem3Lgef5ExOQJeDn/AHuhH5GtHVU3dfczX2ql/kbX9px3GEuoQJCcAp3+lZWseEbDU988MixS45kHyn8RXQ+XZDFwzoQwDiRD0PuB1H0qv/ZwunE9pdbQSdyOc4+jDt35qOdX1VgU1ezVjyrVvD97pRLSJ5sIOBNGMisnJQ5Dcg5BHavXxNbgmNtyuDtKkY59+x/EVj6r4KstTBktdsMxGcIMKfw/w/KlUoX1hoTUoJ6x0OH/ALSW5dJbnMd4hBFyg+9j++O59/zrbj1tJnhluVTz0BBnQZ8zOOo/DHHbt3rE1bw/f6SwFzEwUn5WHIb6H/Gs5HkhJwSpPb1rlldaTXzOWcek18zf1MSRzW2oQu0sTNgMOQMY4weMcA4PrW1c2FncxpHdRu779szKdvkdPnwckDnoeK5e21YJGYpokZWPUjp/9b2Oa6LSNejBYyRlVxt86M7tueMEenbHtTpwjfXUmMNe6CfwKVmkexvNqjAVjjD8Zz+J9KwNbs762h8u+SMmJ/lljIPX1+uM13NjeRRzR21sEkt2UtvQ4wRjt2znp7Vm+LnsrdPLdlaS4TAVD056n6V2VIxdJpOx0SS5HZ2RwH064ozxj1p8iNG5VuqnBpteTY4/MltY/MuY0xnLZP4c/wBK6HSLgR6lJIwZzhEVEGWOFyeOwzjk8c1nadpzS2xul80lH2ZQZ2rj5ifzArctTGl7cRRqsaRbgdoxuI9fU/WnOajGxSd1Yr3DvNPJMVAMh3EA5xTHQlAMjBFTpFzy2Vx+dMkibkk8dqaEV/LxwO9M8sA+nOKseS2wMpzk4qJ4zkDPShgQnchxTShJz6VawOppjxhydp60CIoneFww71ft9WeScROAB0z1qm4IAH4CgRbOScHqMVlUpKfQpNo27mYpGcZIAyTjFUP7RT1/SiG+McLJJliR1PNV/Lj9B+VcvsGh8w57eThV6HmkSKQBwc5HTmtEWzSEAOAvfBqYWEZQKbjABycV3kIyPs8hAYE9c9anFuwxyOeTWiLCzwN9w3HbNTS/2eYRCgO9Dkv60N2KSuZSREEYcZxzSIhORxn61K9vFnPzYz1oEcb/AHdw4xTQWIjE5YAbcj1NOMMoTllwRkYqQWW8ghmH41I9iNnLtkH1oAqODgZP5Um9+CG4HerJsV8sksRg8ZNaln4WN7pguEu4kklkKQwuceYRycN6/wCc1Q72MIyFyTnk0oLnGQTUt1ZvZzmC4R4pQeEYYP4eo9xUX2qKMj94u5eCBz/KjUBjyNyB0pr28cww8KsR7UqTI8mFYFmPAPGa19D0C+1qcCBDHCpxJM3Cj2HqfYUnqJ2Kdh4XiucqMQvOrMXY/LBAv35D7kjaP+BHtVDTro2dy7LDKunyNtRnUjI9efWvStVuNG8LiR54i7XSohiJDgKgAUYPQE889Tk15x4n8Wy607RwxLFC3O0DLcep/wAMVKVtSdi5dWphO5MGJvunPSlhjBPQewqp4fv/ALUDY3QIfblCeMj/AOtWobZrWQI+TxlW65Fa6PVBYcBgD0z35pkmPTjqanAGO/40fZ2kBPRRwTTs7A0ZZ3O4C9Sec9uasxRrGNx5fqTUkqLHgKvfr61kajq6W2YoMPL0JHIX/E0XsrsFoXLzUYrFAZCTIw+VAeT/AICuavb+a+lLTNhV+6g6L/8AX96ryytLIXkYs7HJJPWkijaVwOgHJJ5wKxlUbBskhjDks+fLX72OM+gHv/KkuJmmkJOOOABxgeg9hTppRgRoMKvT39z7moMDrUJdQClBx2pOeKTNUMlEq/Sus8K+EhqQW91EYtT/AKuM8GX39lH61F4c8JtK6XWoxNs+8luRlm9Cw7D271276Xqd9hGZbWLGAM9B+H/1vpXZQoW96R10KGvNIiuL/TNHTyIY98ijiGAYx9fQfnWBe6xq98SsciWMR6rEcMfq3U/hiuqs/D2mWakXtwshB5bIXcf5mpVutMspz9ngiQKcE4zn/Cu5auyTZ2q2yTZw8dhrUhEkc94yg/eLMMfiTWzbWOrrhpNSmGOCDJu/nVvUfFIuHYwoPLJwB0zWVfa46BlUkDA9v/112QhJpXSR0xjJraxsx28uAbmWORO++NSP1HWobhNIh/fPb2QKDIJjAYn2xXL/ANrTM/G58jG1SRmmSyo+N0EmfQtiplRgtWROlFO7Nx9b0+zQPb2/71uqqSAfqOhNPsvE0cMhlET2yMcMpOUP+fT34xXLy3KRgrHCqZ6ndnFULi6Dk7mB/GuapOlFbHNUnTStY9Av9Y015xM1ysZYDeACc+49ciqUnirSLYApPM5HZI8GuCmvXlAVmJ28BickVXyOfeuWWMsrR2OeWJUVyxWh2svxHkJaI6bDNbsMFZiTn69qxbm90XUSS1pPYuxz+7bzEH4HkfnWHntRn2rleIk9zD28r6q46aNI5iqyiRAflYDGfzpEdojuRip9QetIcH+EdOxpA7DoR9CM5rG7vdGN9botRX0kbhg7pIpyHjOCDUt1czalJ5txMZpNu3cRjj6VQz34H04pRu6hiCOhHFVztqz2HzNqzLN0GmIlVhJIEBkA5x2/wqrHye2ByTmnxyyQyCRGKyDkMDT5bp5R8yR57sFAzUOzJsbkey3sI7QxMZ2jDq4JGzdliDjqTwMe1XrmZRe3awZcvIWkkGDjPb2IGOPeue/tLMaLI9xKVXG0uEX9OSOnpW6k0UsEbW2xYeiqoxtPfj19+c4pNXeoLQEjJJHP40/7Oz8bsY5oRxg+oNSIW5wOvQ1YyLymCAbh14pDbjGSwz+VTJIoQ5UnFCzQYOV59KAIDa/Ju3jrjFRCJUcc1eEtuUI29aYRESDtzxSEVPJUnJboakEUchwT29akcIQcrgZpiIvJx0oAQ20Yxh/wp32aL+/UWD1Ck5p+z/ZNADkvUjPGWB96kF3EM/KSQc8VnGNQgI9frUiIcnjtiiw7lx71JDjy8BTkU77bEMhYRuJ4NUsEY479aWMDgkH1zTAuS6i3H7tRjjHWo/tzF2ACg4zUMcT3UwjgBeRjgAVqxeG2MW5r21WXH3GDDH/AqpRbV0itTO+3S8cgZNIbqYgknp17VPLod5bgl4vMXs0R3j9KjhSIeY90/lW0Yy7nv/sj3NFmnZhrYSJLm9kURhioOPTJrtIYTa+GLScusk2n3O7IHRWxkfpXndz4gnlcx6aPIiPyq38QHt6Z4Pcn9K6jwTcNJoOsW9xI0hJjfcxLHJJXH1went6c0XWy3C6tYs317Nq1hqFnJKv2i3ctG6jDCLPQegKn9Kx5YohbAgKsQ+VcHqfQVc0e3kvNVS6hdQfK8udHPVRx+H/160LKLSPBMMkpk+0XRJIZzxHn0H8P15Jqk7bivYj0XwGif6frziKIDcYc7c/7x7D26n26Vb1/x5a6ZALXTAsaKNqbFxgf7K9h7n8q5TVvFmo+I7kw2jBI8Egk4AA9B6/mfpWP9ltfLLIt9c3J5LGEhc/j/M1G70J1Zt6VFP4pg1Ce5dlKsgUh+TnOck9T+XWsebR/7OmlaSUNEoKj1yeB+YzWp4c16x03T5rO6SSKVpfMDkZU8YwfTGDWdr1vJcLHcw+TLEo+Z4mLEZ9f06UN6Csyvc3slxItxbR7ZLd8DAJYDt+HbFdxpN1F4g0oMNqzL1X+4/8Aga5LRZYBavAFHmg7mz1b/wDVS22ov4f17zoxiGUAso7jv+I60Rdty1odXDbMC3njaynBU+o/pTL24AyB0HQDtVjUZTdWy3ls27Kgtjncvt7iuevL+K3j82Z/lYfKByW+la8ySBsq63eNDahEbEkpwCD0H+eK5vnmrN5eyXs5lkwOMKo7CoEw8gGGbPAVeSawbuyRY4S4LuQkY6sf881a8m4cRQ29ux+0HESgZdz649/StKy07LrJdKrSDlYhysf196feaktncwy25DTwkkMRnqMflzT5dLsGc6c98575pOSDXV/ZrPU9NjnitWeX7sgQ4O7/AOv1p1v4TWzhS81CCWSNj8kWPl/Fh1+gwPc1UKLk1HuXCDk0u5g6Xod5qz5t0CxKcNK5wo/xPsK7XTND0zQUE7o1zcZ++4/kOi/qfenpeMAojWOJFGFVFwFHsKjupjcBiPmYDgHgGvXo4OnTV3qz06eGhBXepoW2tsgJVVUE8Y+Y/wD66L7XLhkJQgbRnk9awo9StUgkkuIPJKg4UMzbiOo9u3880n9s2c0JBspwMZLJJ0HtmpeMpJ7EvF076ImMkkozNOxOcnBximPNBHli5JxyM5zWdefZjam5sJLplGNySpz+BHXHpVCVNSNqbhbO4W3XrIYyAPqfereMjuvwK+tLdP5Iu3FyJJBsUKgHQHNVbm6gjypk3N6rzWR5jyZLMeTyM0oRR3rGpmEmrRRM8wk1aKLJvyOIw34nFRNdTycbsD0FM+UE0kpZEDbdqtkA+uP8K4Z16kt2cc603uxjlu5bnnk00nNJknrnnk55orncm3qYNt7gASQB3NH40vp9cik496VgDNLT7e3a4JA4UDJYjOKYRjIznB7UwCijHSj1oAKT196WigAoNFFAB61q6CkjvcNv2wxqGZSM5JOAPqf6VleuBXQ6bbNbWoVhhmO9h79vyH8zR1AvptI4HI61KHGMdKjjBHboaBzuJ/WqGKZFAIA79qiKAk8e4qTZwOmOppUKkkkDpxSER7OOnPvUgQnHGMCmGQAZx+NKLnnp+AoAmKKU5PWk8pUGGPuKj85SORyKV5CQCQaBD0dU4z9Kd5gqs8nTj86d5n+yPyoAqCP1B2g8g96eBl+Oh4xUkkigEAH0BPam8A8DJBwM0xpAI8kbjhQOTTPLBRVDdTgVM8YeMcEbjjrSCNecFTjgD0oHsW9ImFrJKGA3PwCO1aDhppUUOm987ULhc46nJ4AHqaxQDC4O1pCG+VUGS3t9abpFlBrguL2+lkXawRYgdqn6t2AyBx1J7CrjVsrFU05OyRFrOq3AIFoyomPvR5P/AI8f6Vl3WpSX6xR3KBtgwGLEkt6/jjpyPpXR6tpi2TmJtxgk5jY849s98fqPfNcveW7QyEFenQ+tKTb1JkmmMHmzAiMLGgPLE4A/+v7V2mk63F4e8EzxXDN9pabzYEMe1pCRtIOecdDk9q4yG9ltQzwBRIeA5GTH/u56E+vtVV5ZJXZ5HZmY5ZmOc1OiXmGlvM1rTXltTIyQNG7jBZJM4/A01LS51WJrq4mKRltsbygiJm7gsOFPTlsA561lZParmm3N7bTM9izZC5kUDcrL33KeCPrRFpuzErX1JJI5ba5MEyGCeE8DGCD6/wD1+9dLYa0LmzlkuFTevEoJ2gD1/GqNv9k16yKgLBJEMIDyIGPTnvEx7H7pORxWSkn2a8AuY9pRtksb/kc/TrVWcXdDtZ6EurfZpLoGCeJ88gqck+n5U3TpBa3Tuv8AqxBIJc85G3/EipZI4JEl2+Wpz8gC4yPb6k1WmCxxm1jILAb7iQ9Bjog+nH1NS+4mZ6SMmCrFSB1BxV+31X5PJvk86JhgsB86/T1xVR4sEjcuM/eJzSBI88yDn0GanUR1PhrVRC5sHl3xbswuOM+3tVLxHpvlzm6gB8tvvqOdp9R7VkxFFwUds9eRjH0qxJe3+tTiMOduMED5QB6mrvdWC9ynb20t1IVgQsF5Zuw+tbthpsdujOGAA4eYjp7D3qxpNtZ2aGSff9l5WWVThnPsO4Bwce3rVTVpphOYWZfKQfuxEcoy9mHsaElHV7gR3uojmK2ysfcnq1Q2Gm3GpzEIAsan55X6L/ifYf8A16u6VoD3xE1zuig744LfT2P+fWt/C28YihVY4Yx0AxiuqhQU9Z6I3o0lJ3k9CfQ7Wz0mMrHhSSCzzDeGI/vjsPpnHoetdWNYtDG0d1G6ysvzQld4Yeob7pX3rhJJCcLk46hen5+gp6auLKER3ZDW2ciPdtZT6qeoP5g9xVVFDmvHZDqqEpLl2Ro39l9od5dJtJzGP4cF1H0YDp9M/WsGQmMM93N5QzgqTtrWvvGGpzWW7SpUnijXDTeXiaMf7Sdv94ZH0qreWS6tZQXVzM19HKBtdyFnUnsG6Ng5G1sZ7HtVLETirLYpYmcFboc3fahC858hGdDxIG4De49CPWkSUgbbRmZT/CThh7e9S6l4fudOHnBWlt/75QqV/wB5TyD+lZmBxXJNOTuzG/O7nTX+pxW3hu3tgjecoYlim3JPUfQE9fasfRdbnsrwmSeRreWIxSrnO5dpHT1HH5VWhuJbaQSwyMrqMBgen/1vaormZrlwxjhTAwRFGEz+Xep1i9GJLld0Rl953YAyMkA9KMmm4AzQSai7JuKCCQpOBnkilmlM0m4jaoGFUfwgdqjxS0gDiiinKhbPspNACxTNbyCRApYDADDNX4obS9zIQyPnLDfjn+o/w9azM0dycD8elFxGlc3FvbQ+Ta4ZiPvA8Ln+ZP6dKze1L83p+Qp6RSP0UnH4VUYt7IqMW9kM9KP84p7wtGBkHpzx0qPnnihxkt0Di1uhaKOaSouTcO/4VLb20ly+yMZxyWPAFPsrGW9c7FIiX779h/8AXroLez8qBUhiYIOp9f8A69C1HuQWthBanIDPIB95u30H/wCurUeS5AyeM01wyOc56YNSIdmMEZxVBYeCyY3d+aXzFyBjIPWmEscjrS4EYP0oAdIV5VT1HHtUQOABjr3zQAXfPYDPNLxz6CjQBBuwBxjvShB1z2pA/VccnrxThtGOD0oAXDJkEcE8UO7EhegxTfMJwWzwe1I+e65yc0CHEHj9Kfk+hqKT76EZwB0FS5X0agB4t1kBDjG3n0JqT/R0RCFzuGST2qv5glmAWTjoSTUUe8yFR8wXjNMouCS2EZAQttbJyc4qZHtuXjgU/LkgnFUDDgl8Elh0p01nLkbht4GFz1oDci1u9Isg8C+S6uCrIcEVU0G6aSB7NQhLMX2scE/Ljj34B5qe/tZfInWH7wTPJz9R+Vc3FI0TiSNtrKcg1E1daF0anspqXY9JtX/tHR5ra8gkKwD/AFo42+5J6Y6//rNcnNELy3O1gxU8MO/+etQnxBezWbQSOrRyLsZgMMF9OOMfhUdrcGJ+cbScYA6VVPazNcRVhVm5RVrlCRDGSGzjpUJwOP5Vs6jaq8YlTGD1x2rLjt2lIG5V4PJPpQ1Y5dhsMT3EwSMfMf0rcS1jtdNvfJO5zbsC/TPI6e1S6XYxwxoA8cs0h5CZOfYd+KuPZsbK6CyQOzROhVG5DEcDnrnHUehpwWpSXUzfD5VLZyDhjIQSRnPHT6EEiuu0k6XHpl3qGpWccpWWOCSR4w+B0BOemMgE+wrh7O8/s6zlDpvlcho4weRx1OOg9utdT4fjaXw3e6fcq4lu5JUVchsMIw+D7n0qk+jC+liDxdpqaHdG5s7WEW8w3Bipby2/ujsAeo69TXJxW8sttI2WSIDzCxOA3YcdyTXo9vZr4j8IxwzBo8x7FLHcyMv3ST69D9CaybGy061sjY6xLCs8W0MEjJZMghSrdm3EHHHTqaGhHEx2VxMCY4ZXAGS2zAH1J4H41I4tbZGUgzykY3A7UX6f3scj05q3dI9w8gN41yicAtIW3fQHuevtVJ91psKtGZGbJGNxTHH05znjPSoFsTPvt7ZYSm65uCpKkZKJ/CvsSefoBWxDZxWNmVkLFQcSbDjzX/u59B/nmqmh2ckszXbEmRiQjNzg93P0H6mrV86lwqcRRrtUH+vuetUlbUCtc3TzEFiAFGFVeAo9APSr2iWyXRIuI98MR3KxHCH3PoT29axLiYR8d/Stnw5q7WNlewsoxKqsQ44xz29CDQm77XHDd3Ny51GKHESEbxwcc7frVeWXEZdiEjPJZ+C3/wBaqOmS2biacBjOgyIW5x7r6j+VZN7dS3s7PI30XPAruc7r3TZrmfLHTuW7zWF5S0XqeZG7/Qf1rIld5SWdizE9SaeUx+FRkYJ/SsZJhy2HQyy20yywStHKp4ZDgitqz1qKaOSC6CQmX/WEqTBL/voPunvuXHuKwutMP8qi9mS0mdiTqTmO1tbxkSQcRSyKWKd9kuMSL+o7isjWPD82mR+cxV4c43jgr9Qf5jNZ1tqUtqhjGJLcnLQycqT6j+6fcYNaFtfW7zCaAs05zhZyGkX2Bb5ZB/3y3vQ5p6EXa0Rhk9e4PoaTmt+4tYtTeR1jRZVALCL5SD7qe/scexNYVxH5L4EiuM9gQR9QehrF7ivcYaaM0Amio6iHIhfPsM0lKHIIPNDgDHI9jTGJzV2xTfHJxnnH6Ef1FUqvWImFtI0YUIZACzHODj09/wClNCZVt7WS6n8mMAycnH0olhltpDHMhR16gitTw9+68T24PO5mU8YzlTXaaxolnqsJV12ygfJIvJX/AOt7V1UcP7Wm2t0dVKgqkG1ujzqGUlxvYkLwAe1aATPPB+tU7/TrjSrzyLlcMOVYchh6j2rodM02S+0Rpo0BaNydwGcjgEfUZB+hNdOCSUnGeh0YNJNxktTPSMORnv2rTh8PxXyAiAqxH3t3U0+KwjtUE943lRAckjpVY+Nnt5CtpbKYxwC5xmvQrzo01aVrndXnRgrSsS3PgG6CFrW4jY45Rztrnr7SLzTZPLvLd4mJ43DAP0PeuhHxBn48yyRvXEhFSjx/DLCYrrTjJEx5RmDKfz6fhivKqKhPWLsebUVGWqdjkIpJbaQvG7Iw64OM1uWGrtcOtvcERuxwHBwD9fTNR3N5oN45aNLuy3dVZBIo+mDnH51UMVkSPLvYyCON0bD88jpWDox6NMwdNL4WdKdImwGUM244BznNImk3aZDRsDnAyOtRaPr62YTY8SSIQGUNuilHqQfut7j8q73TNWtL5B8yK4HKsc49fqPesZpxM3Bo4waRebDthbjkkjpSnSbsouYzg8ggda9Dhe23lWZfnHBJ/wA9KaJbXs6EA4GTis+YVjzw6VcA4KEc9hnFKNMl4G1unpXf5hdRukiGTgjIOaI4YMsjSoOMls4xT5h8rOGTSZeQQFLDIOOtNGkXH93Oe1d1ImnmPzGePavAOacPspBcvGuFAJz1pXFY4J9FuQASvXoKYdKuT0UkDg4rugLM5fzoyc8c9KjkjtJeBPHz6GjmHyrucT/ZU+QAmDngDml/se7/ALh/Our/ALOtYpFAu03MCT83SpP7Msv+f3/x+lzMfKu5wgto94B25c7Vx271MBG6PGkiowH3gMZq/wD8I3cqhVn8xlGTsGMU/wD4R+4PHy44QF1xn/69aJozKQeN4wfNUMq9D3oEyyAfOHZRk1a/4RicuVwDwSMcYpB4bvInyImU7sg5zxRdDMTWLxE090hyHlYIAew71zzxGSRY41y23GB3rW1yE2+rJbSE5iTc+exPP8sVTssRJdXnaJcL9TwP51cIczKhHmZQQmM4I47irKHjryeQR3qohHQ5x7mpEOzIP3c8H0rPZks17KZX/czHKtx9Kq3ULWkxGeM5DDt/9eokOMMD8wPNXRIt5AUc/vFGQeuatO61GnfQiivRBA53ESj7uMjB/D061r+DLaK8vLiO8KuhiGA5yVychvbk4/GuZlRopjx8ymrWk340i5S8B3OTgxKMZXvk9sjsPQHipT1JudqZItMv57ew8IrmNtrTkFgfyBzn05q9ZyXuoi3uDYi0ltLtZRAU2GSL7rEZ7gE02+1K+uNBF1o9wqyoN5yobzI+nfoR3rkU8a6v9pia7lSQRtyvlqp9xx2PTFaXSBnS6UZ9OkvbeGF55bDUcCJSRmOQFckeg2g5PSrfjW3mttKkvbNFVmKlpAoyCucHJ9RkfUCm6h4jS/0G4utBlij1GRY0fICyhAemT94Dp64rK1XV7m/fyzK32fGNgOB9fxov0E3qcQZGEO0OQWJJxxnP/wCqr9tYLfSRQ2uSZG+Zifujvn0wKo3kLQzlT0J4962vC+UNy4HzsFQN6DrULV2Y/U1LhEs4RbW4+VQF49v85qjKiwxyXF2SFUcIDyfb8a0AGLlYwWcHlj2rB1h2lvUtNwCoNzsOcH/6w/nWktEDVijFDPqU7mOMsx+Y7Rwv+ArY1KxeOyt7gq+VURyOejH+mM4q5Y6SgtlE6ZQDIiJ4H1/vH3P0HFJdRR28Mgth5aMMPGnCt+HqPUVKVtWUtHcwYrh7eZJI2AkU5B/z2NbL2MWpWy3VjtV+kkWfun/6/wCtc8+E55ODirem376dcB1G6NuHQ/xD/Gt6c1ezNYtXVx9xFJCdsilWx0Iqq/412t1psN/piXdo3m2j9Gz80Z/un0I6c8fSuWvLKS3cq6lecDIxmtp021dam8qbaujPoPen+WRUT5wRXJK63OWSa3Gk03H+TS0dqybZmWEvH2BJh50YGBlsMv0bqPpyPaqxIycA4zxk5oNGKTuAUUUhoGLzQOeOPak5pyIcMcHjr7UtxAgz6CrllLOQ1jbRq0k8ilWJxggEfrn9KphyhyMenNXLWT7PqcDsCu11br1H+FWkmUkmjSm0q98P6np11eNGfMkSQbDkAE4P8iK7oRebdbMlVIIBHGcVjeNYRLoGnTjlkV4yT6g5/qa1bKYTWtpOMHeFfI7ZX/GvUwLsmkd2Edk0g1TR7bUrMwXCkEHKuOqH1HsfSqfheJ9IjvNNufvKRMjYyrKflP6YP4Vt3HRW7Hg1yfi25lhni8uRkPkEZU44PH610ygrOXU6rKzl1Oe8R602q3rJEx+zRHaoB+9j+L8axxR6c0qbcnJAHrXh1JupJ3Z5E5ub1Y9ED9Dz6GnJEruEdljJOAx6VMlhNIheFTKqjJaP5iPw61GVZAHYAxtwGByPp9fY0nBpEuLXQkutKubWREdGy/K47/8A1qrGJhnII59K0rG88p4VuGZoFBVSefLU9fwPp+VX76SzuN6oBaou3yfMBAK45Oemf8aVr7MEjn4Yo3mVZ5DFGxwXA3bffHpXZWHgq6EkL2uqZjZQ4MfRh2xz0PSuUkjCE7cMoPUHOa6Twl4jbSZFtbgj7FK2QTz5RPf6HuPxpNMDoX8MXIw39oNu3Bcg9DTx4PucEtfMSBnAPeuleRXc42lF5LDn8vXNSQyl0GCrPySCeB7VnexSSOYj8I3Mn+su2GDxk9Ke/hGc5X7awCnAJ4zXVECIgyFGcrgEGll3IAJD15GOaL3Haxyw8GSkA/a2Izk+1P8A+EOfq16+1Rzgda6pCE2k8O3QGmO+wZYH1OO9FxWTOVTwa2Mfam5AJz2p3/CEsM/6U+Ce3aurGUjDgD1INNJb5Dg4PUA0XHZHMjwZGIVL3MhcDn3qT/hDo/8An4eukx1B4wOO9P59G/Ki4WQyW3RZ8OF34BVhxkZ/xp5eIRsZmjGwZDHpXHzeIfM2svmRlTu2k56f41Xe+W4B892RZOcZ4Hf86pJ2JujtJJYUjIwMgZye4NVriZDGQHUncu0A9fwrlftSGGIQGZtrfvNxzge1TG8UQTb5mVolZlIGccZ6/hRZhc8+168N9reo3RbPmTsAQOwOB+gpb6H7H4bsUx89yTKx9u39KzZOYQerPyffNbPi4iO6tLUdILdVH5Af0rqp6QbLg7Js58Vet9MurkFvL2IVyrPhQ351Vh2+dHuIAJ5J6D/9XWt37Vp1jc3FnBaR3O4lBdTfMSQOGUYwATn17VhbQy6GKQ0EhjkGHU4PP+c1Mj7CDnHPrirurW8Ut7d+SyFVlfy2QYUDPTHoOlUre4jigKPbgzLJvLseox93HpnmktATNaawiEEN5MUCt82yUEb8dsDnB55H51Tj022vrbzYLxI53mKCF1IRR/vcnJ/HpWjoOlLrcxl1GdmRsnBbCoo6s57Aeg/lU+raRFFZgWqG2snbzI7mRCPPxxu29VXH3fXknqBTbTY2my74XtdT03ME0SPEuWjZJAwHqpHXB61W8QeD3kke606RDxueCX5GUexPBHbt2rBeSSyRmhumkCAFsZTg9GAzyO3Yj0q/JrFzpkz289yJwFIKo2eGwcg9iMA4NUpK1mAzw5ompTaqIhbyLEB++J4BUfzI68V09x4cERw9wqEjgMef0rA0HV7a3mih82UEqUVmGPcdPer3izUbyzktzb3TASBiQcDGMe3vVKyVxWQlz4fhuIZo2mBKAFWUZ59/QAAnNUdJsf7Oe5hndXYOMbGyCMfpWR/b104aO5fzYnGGHAPpkHscZH4mrOkXBlmuHbguQQM9McfpxUpq9w6nQSTfIFU7V/ujiudHGpXE7Lna+MeuOf54/Kt4TWdvbQyTx/aZpZNvkmQoAu4Dt3wSfbGelYTv9ouWFsjPvlZVA5Lc4HTueKcncG7mzHq8JhHDjIyTwcYOP1/rWnpvhbUNexKALe2bkSyjBb6L1P6D3pNI8MRWI+0agFkuSARCTuSPHr2Zh+IHua1jrFxbOfLcsW6qTnNXFN7k+0SdjB8U+CotIhjuLczXESjE6kgN/vDHT6c1xODzz9K9C1Xx3BHGYWg+0S4wVBwq/Vu/4VwNzcrcXUkojSISNkInRfzonZWszRO5qeHPEE2g3m5R5lvKcSwnncPUe4rurnSLTWrMXWnzbopl3qFG4D147EeleWitzwx4ll0G6wdz2sh/eR5zj/aHuP1rahXcHa51Uazi7EmpaJNZyMGRiB/EBwawZYiM8e2a9jjNtq9sGDKyTDMZxuVv8+/INcl4h8Lm0jedxlOzJjOff2966qkI1lpozpqQjWV1ozg+lH+NW7m1eF9rrjiqpTnFeZUg4uzPOlBxdmMPU0tIc5payIDp1pCM0pNTWVlPf3UdvbIWkbnA7Ad/oKpK7sg30GRR5yT0H61ck0m6Fmbvy2S3673O0N9M9fwrqYdO0vw3Zi71HFxOB+7jPQt6AHrj1P5Vy+sa1ea/eCW5f5FG2OIHCxjtgVtKEYK27NJWSt1Ibi2ltrNNyKNx+Ykcj0/Co7YNK+3k7Qdo9K29Kih1GOG3uJ1BZWD5IDED69yO9VZfsek61shLTWisVLg5JHY/UflUU7cyb2Jha6vsdlq2b7wYkmfuskgHpuXB/UCo/C8puPDsIBO6IMmSemDkU7RbhL3wc8ZzuaJgFAzgq2f5Gs3wkGuLDVbBHCyBgyk8gZ/oduPxrtw8uWWh00JWeh1kssTwiMuqyEgqp4z349cjP5Vx/jLi9A9Lcf1q6ula1qWuQS3gWG3gZQSsm7IVt2Bnnr69KpeNcDU3H92AL9etdSm5U3zKx1Rm3B3VjjR29+lBB5+tA4I/SpJRjHuK8Q8kLe4ltpA8EjIwOQQetdHZXtrrT+XIIbXUXG3c4/c3P+y47H36+9czQCB1HetIVHFWeqNIza0eqNfUdNayeRljkRUbbLC/LQsf5qezd+nWrGi6r5I+yXPz2zn92CAdp9OexrS0q6fV4I7O7AOorF/ozyHAu4u8TnvkdD2OD1rn761FrPtXeYZPmjZ+GHYg+4IIP0zTlG3vR2HOK3Wxbv7BMGeERsHbG2M5257celZSbxxyQONp61p21tBew5KiOZflYp8uff8ArVC5haKbb5jMevzCoeupm11O68G+IBcgWN8WeWIExMT1UDO0+pH8q62ILuL7VSMHBZRnr/WvGbW6ltbmOeM7ZY2DAj2r1vTdQi1PTYbmFWEci5Kg4y3Q/lyKymikzSjkMiNtUKAMbj1zTooTwRL0OSpNRkHyyAyBs4Wpg4kIRVAB9uwqbFXuTON8JKqFdeMnnNNGHJGN3AGajfKEgHqOxzk1Kf3bJHuCsRwTzn/9VAmOO5yAgBYjgE4pTCpTDHkHJIPT0pNi+WAPnIP3ume1SSDYjcsMnk46UD0IwdmCctk8VLsm9G/75qKPJQcEDvnvVjzbn/n4P5UBY8slmWPymLh1XJY8jPoKWa8V9v7tSrAYYnO2qnlMgMnzBG+9njNBC7HyQVYjOTjP09q2XmZliS8DllDeWowrMBjNNudVlFhchgAphKggeoxn8ahiCR4AKmQnBGOMf4jpVK/x9mmXzN22MngYxTAygg22y45Zwp/OrXiws+vTZ6qqioI+Ta+vmr/MVP4pQpr027uFP6Vsv4T9TWK/dv1Mkjpn0rehvrk2EawaUs0aSeYJmAdjjGRnHA+X9axoraW6k2W8bSSbN21BknA5rqPDHlvZuLhcLCzMXPO3K/1yfyNYNNK5lbS5zj3U0ckgkjIZmLlSCMEnP9ahmuFmwdgV8YODnIrob7TWvLl1JKSyr5RYnAEi9AfYgY+orKltXTSIRcuY2WZlSHyzvOTg5PsR0o5W1cajpcs6BeWhL2eooHtZCGYEkYx34r0L7S3ii1OmqYIkUfu5m9B2Hv0H4VwUfh/7LpqT3kqJPICfJPJCgd8fhVnTdXn0WRbO6ZvLGGilXjb34PcVi79Ck9NSG9sZvD1/NDPAJUcFJomHEidcg+o6/rWTNYMZ0TTy1zFKN0YAy6j0YDoR69O9eji9svEMIi1DHmkYjkHf3H+Fczc6Pc+G9QF3bp5kgyYpFbaG7c/UZBFaJp2TMzDtba4srqGS5iEMZbAeYYHT/P5100uuaZfokM5j3DosgDL+DdvxxU9zrWka1psaai8PByYZCVaNuhwR/wDXBrLmsvD+wtb7Ceu03Wc/njH6/StrW2egk0Nm8MWtzHJJbSrb7V3ncdyH8e1Y5sbrTZik0bKzdD2Nbdn/AGdbO8lncXdsU4bOZIweoyR0wcHNZEdy0l+fPl8zy49gbOQcHr+NQ7XGyxbie9kEECM8r/Kqg4z/APWrr9H8ON4chLzxMblxlpip2qPRPQds9T9OK5/w+W/tXzYVJjiQ72HQZGP1NdhaeIb2wJEcmYj1R/mU/gauMbq5nJ62K1xdKIyxdVRRkknGK4zWPELXW+GzJWHODL0L/T0FegajeaL4js3s76wWzu5lKR3MYwqseAT7Zx615TcWbWF/PZ6iksUsDFWRQM5H17H1pTbtYaglqVxuchVBJY4AFXH05IbBppJW+0B8CFEz8uM7i3Ydqgt9oug1uGAxgb+SM8dvrW9JcrYWsiQyNLvT94JDuz7j06npUJX3LSOfHzgkZ460dvrSRytHMCPXpUlyYw4K5G4ZIPY00ykza8OeJp9DnMbMzWjn50U8qf7w9/bv9a9DlvbCTTQGuVkt7hCxZR2x29814+c9q0tJ1RrNxDMWa3YklQcYP9M124asuZRk9O52YeqlJKWxNLEXcxkfIWyMjOKz5rdo3IOCOoI71szSLLI8gCpxwq9qo3CEuoxkgA124qhGUbrc68TRTV0Y56n60tLKMTSexpteI1ZtHkNWbQVr2hj02wE0jMJZxkKDyV7D8ev5VkdwcZAPT1qS4uJLycyzH5m7DgD2HsOlOnJQu+o4tK76jrm6lvJN0hwBwqjov0o2tGAMEu3AAFFvGHkG77q/M1aGm20l5c+Yhw+SsbEZ2HGS30Vcn64oScncnVsls9Ma4he3gjjafcC8rnOMZ+UegJyM+oNZNwWMgOCFxheKsXUwTJtpmSNh5YQHHyj198jP41JaSRSxqjor7OdpHDD/ABpeQmtTrfh+5m02SE52rIytjjhlx/Sqfh+QWnjGaHI/exlSAc4Iwfz61kRO0Udwun7441kDEvITwRwMDqRzzUOjz/ZvElrI7YxKAT654/rXTTqNNI0pSs16nqYmjt45JJCfK8zbvAyFb+6fc1w3jOWObUDLCyvFJbqyspyDnNbet+HtTugI7G5iFvNIWYP8rL8xYcj7wBJrmdWksdNeS0RpZpLcpGsqnGNv3jjuCcjHauuVR8subRHc5tJ82iMKWynttjTxtGjdGPf2+tMk7HjpxXR3t+yaay3UPz7SYgBuDbu+fUZ9qx7GOOR1jnOY5BgKO59R7ivKTueduUaT+taVxoc8WCskbK2du4kEiqBhdJPKKkSE4Cnvmlu7C3djfeSJPDdlM05jniG6FlHIcE8fpn8qv6rH/bWkx36xlJZj+9QDG2dV5/B0GfqBWPHCtzrFtYqd0NqME4+8Ry35txXYW4a9EsLsqvcfuxxjEi8xt+BBH0NdUWvgOhNfCcJbyNvXEjR7+CUPPtRcpLvLM27HBJHNS3kPlXkoClVYeYq+mecfgcj8KZNIPLBOeefrWLVm0zCSs7FXJGcgge1dn4A1FPOmsJnwvEqMeenDD8Rg/hXFZOemKuaVdGz1S3m37QsgDH/ZPB/Q1D1Qk7Hs4ljLkx+W5OMHGMVKZlQn5s7hkKK5oRMgIS8AKnAJ7/8A1qk85rd95O5iwHXOP89ahF3OiEkRJy67lPBx39qm82InY5+YHnHGP89a5d9VKFgrKWAyB7dKfHqqH5T8oIBJPGaTTGmjpkuIy4AQbVJbdnr/APqqYSI+QWAJPKk5zj/IrkJL9nj4Lgg8qp6VRuLyRypEj7mbjJ/zwaFFlOSfQ7uG9WPHlKrZONpHAq//AGm3/PJf++a82S9mEY23EhIO7Cnr9Panf2nef8/D0+UnQ53Bl3u0rOVGOOQaZMN77k8xlIwOMAU2GGR8qF2Z5KgYx/8Arp8Z/ehVbKFSQvQnHXP+NaJp6EWHfI8JjJwHPLAZz/8ArNVLyJYrKYKFyygNgYz/APqqzHtQRqWKyM2Qzjov9c0+ZIjDKx3szKV3MpUnj09KAOfXKCJ88KwOD7Vp+NYymspJjAliDf5/Os3/AJcj2P8AKt/xUi3ug6XqMfJVQjn6j/Ff1reGsGjaGsGjK8PXEVrrMM87BYlifcx4x8pp3hi9lh1Xyw6qLgAKXPAOeM/Xp+NUltvO0sTDH7uQxn8tw/r+VI8Q/s23nXhldo2x27j+v5UNOUEuwO7il2O/uYludQMyQKIiGM8bsDuCnH5leSPb1qrJJb2t1LeqjeXKqCKMrgIOP1OB9MVi23iSNI4Xv93nMGIdBkH+H5h6nnn8fercryPueEHY3zEMduScc564A7CuaSa0Rgrp2ZR1O9YSPPJtO35UAOTnuPp0rBjvD8yXO6SKRtxA6qf7w9/51Lq24X8sTMrLGcKUGF55OPr61VjRfOVJNygOAw6Y5pJWG9S7a389i/GXi4IyMZHY/jiursdbiv4Dbztvjb+F+SKxPIfTiIpl861aTKFQDjPY/wA8HjuOazZsW97K1oCkaNwM5xTcHa6H0uzQ1vSPs7loVBiPIKjpWERgnuK6Oy1xXhMc+Fz1brgev1qm+kNeI1zbYWNj8iHqf8/59KmMujC3VGQCVB2kgMMEA4zVvTbGbUr0QQgAsMsx4Cj1NVpY2idkcEMpwQR0rb0PVrKzRIZA0JJy7kbgx9+4A9Oa0ik3qQ3bY65LGHStDEdsSqbxknq59T7/AMqrbyRziode1aGSwtobaZZAzeYzIcgdh+J54rNh1Fk4b5hitk0tDKzeounB0mure8mna6aTMSsCV28ndn0Ix/hVyTWyUFprVlFfwKNqNKPnUf7Lj5gPbkU+PURLCIxIdmchSelJLskBDAEHsafLdFqTTIU8PaRqU4l0y+MLEY+yXGEH4SAY/wC+gPrWZeeGtViuTatazorAsJ3QlCBzwVyCT/OrEtguS1uzI3cDvTPtOqRYjhuZ0QnnY5A/Ss3EtNMxJdMv7cM0lncqinBYwsB9eR0qC2uHtrmO5TbviYMuRu5Hsetd1Z+IdTsUEfnmeIDmOYb1P58/likuYvDmt5+1WjaddNyZoeUJ9x1H60uTTQN9jhfM3k7sAnkEdqljt2cSSMwVFHOMEg9uPQnjIrevfAt4iGbS54dRgHO6I/MPr/8AXxXPyW8tq/l3UTxEHALjGP8AEUWaKRpWNyJYTHJyyjhgeo/+tTrjh1bjkYrL+a3mDDgryD2P/wBY1omRbi2EinBU5K+lejRxPNDkluj0KWI5o8r6GbdDE7j3zUdS3X+vJ65ANRV51RWkzgn8TExmlAwR7UvrT0TeQB1Y4rOxBNjZagD78jZx611NnajTPDF3eKoeRj9ljCnnHWV/bnjPsKx9Ms2v9bihjwyxAuO2MD/HFX7y9fQ9Tu9MmdXaVPKe5t1CyBWGdo9+gPqOMjrW8U4x5jWKtHmfUxHkjvbbdOojugoEbKMCQdOfy+919c9ahsE8y5KA7crkseduO/H9M065hW2kIWXeinCsBgsB/LHSqscrxSB43ZHGcMpwRWLdjI3rcIl5d24KviMqWU5BZT29RWXcnyrxZBxghgas6RIv2mDHGSVdfqP5VBqSYce3H5VpfS4RdmemX2vpa+GkvkI8yRQYc92Yf0yT+FeWHdeSMM5YnIJPXNadtevf2dvb3Z/0ayQ4wccHpn3/AKCsdwokby2LIDgMR1rSvV50ktjetVUkkjTA1L7NDayBzboS64Xpxjr7dKsWCK9+bbCxSKcgOMhxjP4E8GmaRq4SQW1+zPC3CsTyp/qPr0puuQyW17bTBj5rRI+QMfMCR+mAK59tjDU6O6MpLEMrsjZQAdF6bfc8Hn6VyV5eC4vDcIpRYwFQHr+Pv1NdWLZokD26sAFciEcBnJz1Po3865fWrf7PfuAhQSASAE5xnr+RyKS0dxJ2Zb8OI4MkowuWCh89cc4/UGuoFy6FjCCCTldw5JHOaxvD+6201JgUXczNlxnPOP6VsYleRpvPWQouRkYx/wDXq4t3Li9bmV4st0j1ZZYxhJTuAHo4Dj8izCuekjw5Y8kdPaur8WQvHpmnOwYMsezDDGdrkD9HFcrc7gQe5HI9a0qqzuXVVnfuVnHP1pO4zj0oJJPtSc96xZkdVbXH2i2glQuXZBuYnvT5Lh0eTa7YUZPOc1V0WZfsCKwyyswPPQDn+tWEeKYhwG2A/eHAP596aGOkklG3Mis7Dcdp+77fWiWY4QnLFeRznFL8saFtqiRjheetOTYiBSrcDHIzk0AIhc4Yt8zdMd6VJJowdrjLDk4xtFMAaOAyNgxZJOARj2+tLFcqTym5QQGXODQAsfm78iQkY2kg/jU37r+635VFFcxID8h3K2fYen1NT/2o3qPyoHYzCWOBvZokO4FT0/OpY3fzMs24sCAMY3L6VG8bxxyRBF8wkOcN0A9/Q+ntTCWCHlPnO4kMRx6f/qoETJcs9uRsBK8qxGWJHYZ7VMLiQo7TLliMl2fJGev59PwqkgXYScEMOcHOKkCEZJiCxMcKHGN3v+dMDNjTmSL1OBmul0W3Or+F73TGwZYT8vPTdyv/AI8MVg3MRjvGXpwCMHP+RkVp6BfrpWsxyycW1wPJlOcYz3/A4Na0nZ69TSm7PXqZWgjzJ7iwkUg3C5RT/wA9E5x9SNw+pFXP7DvrbT7ppoGNjMu6OcYKh1OQTjpnkfjV3xVocmna/DfW58uKeUEsP+WcvXP0b7w/EV0ceow2umXEN1sFtKrMu0ZVXxkr9D1Hscdq6KaTTR0wgmmn0PMztl1FE6xqQg7cD/Hmt4II4WZSoy2G7EViLp0psPtq5ZA22QD/AJZnt+B9fXitO2maWHcAAuQCPQ+v9a5JJpu5ySWplamjDUJQxBJI6c1a1W1Ez+fHy/AkAbP41Xv0ZL8FjncAQc5J5xW3FGt1I+0MFA5LAEYHr7fnSjFt2Ek27FGzvmTSZJG3eareWv8AtHt+X9KzJsxwKhOS3Ug9f/11oXEguZDIoCwISsYPGfVvqay5pPMk3Z46KPQCipZaIc7bLoNBKAjqD2Naljq8lsBH96PsD2rKo54xWTWhKdjsbe2sdajCyH5uzgZI9iO4psvgO4lINtNAwByPmx/OuThupbdso7Kc9jWrb6xqkcYZDI0bDAbGf84rNxmndM1UoNWaLl/pM1tOl01koRWzOtrKVDfTOcE+2R7VYfU/DWATbXfzN8yodrx/0YD25rNj8UXsQKEIwzkh1znnNNfWrOYgXWlwlh/EhKE/WqjKa3RM1B/CzqrLw9p2rwiTRNWUsOsVwMEfUjp+I/Gor3QNX0kA3Ns3ldpAdyn6MOK5yG40mOQzW0t9ZTLyjIwbH9cV2GlfECXS5FtprtbpDjc/l4zn1XofqMGto1LuxDjbcw/N6bgVJ9adkHPIJr0GOLwz4oQMyLaTMcCSE4Un+WfYgVk6r8PL2yDyWcqXEQ55IRh9QeD+B/CtFJPRkNdjiNSc2/lXPJERIOBngjH88VX+0TRPaQSAO0iAysexJ4/wrpNS8H6n/ZpLIpDDJCHcVwcjI/wrmr+3n8+WdSQEEZCAZLYOT9MUpJp3Qti1Dei3uZPIuHhlhIDMDtxn39K101yS4j2anbw3sZ/icbW/76HX8c1yd7GxuroKeJZCGHsFD1PNcvH9jMblVSJWcZ6gkClzvqWnY2L7R9Pv4S2lK8U2dxhfr/wE9D9OD7Vy48y2mMcikc8g1tyXzQzXeVytuFK44Jz/AIVZvns9S2Q3jrHdOMxzEfe/3sd/9r8/WqUk3dbjUupzNz1VvbmoxVm+tZrKQwXC4YHII5yP8Kr1E3dtjbu7iVZtQBMCRkKM1XA6D1q3Dn98w/hFStWSdJ4Ej/4mEk3HLY5GcBRk/wAxXOaheteaxe3PeV3wTzgZ/wABj8a6jwsBb6Hf3QI3R2sjE+5OP5LXHW7iE+aVDhcfKwzn8Pwrpq6QijpqK0IoZJjAHGc5x6Uzv+NSuFk2mNGLY3ScZH6dB0ohi+0z7FwuSSe+BXK9zmLFikgElwgB8khlXOAT7+2M0lzN9pc5kMjFsgImBz6Z5/OtQpZWtmPnmRSwVWwOfl+bPXn6f/WrXuW0vTLeOztVtpC9q88kgXLQuBlPm9zwQeuegp+Qr6nF52EbhuGeVJxmlkkEjswQJuAAUdBilk4dxx8xz0zimxIshKlirMQBxmkt7D3LthYNcwyOXVUxgKedx/pXTfYk1Ow0+K5ZkntjvLEZ8xR95fqOK5cX7wwi3TaiLlSUHLfj/hit3SLpPIvNUm3AwrtCYAA79upJxzTbsh9LG9b3EN99ojQyK9pc8lDjd8vQ+oyP0rB16yaacTXMSxutvKQoO7GG+U/XDZxTfCsjSwX6zRvKLiRVkZTgrkPk/wD6vWp/GEUshsYIFbeQw2g9gE60NaJkdSrFrFpp1hBBtWR1QBlQ5xx3P1z0pYtf1O9Aj0+FIip4mK/d+me/5mqEOlRQ7ZLs+axBIQDAH5da1UR0jEibShXIVR0/wAqoya2NU2loXtfS6fwjbtfzme5WeQNI2MnOw9vSuUvRjyzjqvaup1g/8URA2Npe5kwCc9lrmdSTHlDPIWrqu9rlVHe1ygc5yKQhedpJXHejmkxisTLodH4b2vZyKW2t5uAT7gf4Z/Ctd44/PDM4cgYAIyornNH3/ZZxHGX+cFmzjaMfzNaRkYcghsDAijGc+5pjLkpSMsXdFlz8qrzjtxUDgoH/AH298YBPOP8A69RxJ5mYtuxwN7MzAY/+vUIdSWbDYHt1+n+NAFgu28I8rYUjJHIH9M0jyZ8whlxnAAGMfWkKHAjzhpOQrdv/AK9BRoUdtql2O0MTnH+NADDl8FOSV5JGMU77Pe+lKY4ntgE+aVRlnz3/APregqv5Teo/I0AK/wDqnePCKSFVS3Le3tn+lMFvsIE0a4ZdxYN0Hp7mlMSuQBNHIT12/wCJ9ODSxo0zxxJtd1OApbb+vpTAuxSpFH5aW8WDlhIcMwH0zjI9PaoQAUZzLhgTjJxu59vzqMStb7/lQFsq2BuJwen4e1OQq6KjELATuKhBkfWgY2+tmQrJvDOi5fDBsg9uOh7/AIVTcjZtOOOnv/8Arq19+ErGAyAEkdwp7kds1Qj3Rk20wIdRlSf4l/xAoA7fw/qVtrmnjSNTCtKU2R7zjzUHRc9mXqD+PqKw7/Tb7w1cTEq11p7fK4YEZHo39xh1DDjuMjisyOVkiCbfnB3KQdpz9exHrXU6d43/AHKW2tWrXiqNqzxHZMo9+zfp+NbRqWNY1O+5h2UUscxutIbz7dx+8iYZKj0de491yPYdKuXGm23kebHZy2srEBcktET9ew+vT1q5caj4VkcvDNLCSclWgZCP++eM1Wk8S2NsG+yCeeQ+oIH5mtlyNXkzVKLV2ylrHhuVLq1kjngeFYgZHRvlTnpnv17VTvL5JoXt7RStoTiWQDBl9h7fzpl9fz6mS13IEiB4hjPX6nvVG5ufKAVcA4wqj+H/AOvWU6iV1Fb9TKpOKdokd7cf8slwPXHb2qp6UHJYk85orm9TAKSlpKTGOijMsyovVjj6VvxOtvhPLb5RtBJwB/8Arqpp1sYkLFP3rcruGfwHvWjGFCbmQLtPzKpB59Ov6/pTQCyAefGpUhsgAdxn+VPEOCA0QkibIAJ4Yj39qhS4MeZMLuPIV2yF/L196EcCAptaSMDcWwSFH9BninYCC6tbby5GeJY3yQAozg44/P8AGsLzD3AyBz2rpYzsSYEcSKCCT0H4dD9cVCLWMj94qOxywJH6UmkwMuy1K4sZhJbSPGehwcg/X1ruND+IrOiWV40sYYhQU+ZT+Hb8PyrlZrK1fAWGRVxkkdT9Mf1qnc2C2UYnWVidwKowwQPf9KpNrUTPXptbjNsGgkV1IxuU5H/1q47U0Fw5mhAWTOTjvWRDM8e3yMhZFyzA9O+B9fenHVZIiPOGY24LHgr9fatnUTVmTawhkilJSeMB8HnoRkY/kcVBNpUdwjGNssIwkYb+HHei4uba6yY5AJBwCwxmoUuHiOPmU56ZrPRjG31nIftMzo2QiFWB6nv+VMvJf9NDbSfKEYDD+HnPP1BrQivx0cZB61KYra6jZSo+fhsHk0WXQCeQLND5M8SyxZ4VuMfQjkf54rmr2H7PeSxgbVByo68GunAAx6Vk65bApHOo5U7WPtRNXVwRlQgPMoJwpPJ9KsxFUgnHJJ4HvVWEF3wOoGR+FWU5tpMjnOaiIzrbGMw/D3UJAMF7dQO3c/41xAB8gkdGbHPfivQo9r/DA4HP2Vsn6Ma5Lw/YRareRWU+4LJI3KHBHyZ/pXZUi58qXY66ic2kuxP4YjWW9mBHSFT+uf6Vc1aNIRZTW+WkuAxjVl2kZ2AD8OTzS6bZQWOpzQQ3he5IKBQn3VVh17ZIGMD61tR6ct5cxSzq6NaTMUDAfN8uM/T/AArknFwdjkmmp2ZheINN/wBDso4cDEjbmIx2HP41i3khixE7SvGAMJn5Tj3HUe1dddSjW9AmvIYxFJaTbio5ynrj/dOfwrElt5b9ESE7y8iqiHgtnjj+f4UopsEr6GJIktyTMY0jjHVsYUe314qHYfmweR0wM5rd8QXSwKmmwPu8vHnsBjc/+efyqjpUqlJLWSRI0lZAWYZOM84/SrcFzKNzTkSla5nYIrpEtph4VNvBGXlnkBOD1GRz9BgiorrQ/wDicm3tmQk4kVVOSAeo/Ag8elaup38WixpbQKst6FCBMZ2fX39vWlOHLo9xSi4u3UvaBYHTbUQGLzFnJMswONpxgYHcEnH4VR8RGK21C0s7b7tvAFUMSTgk/nwBzW/Em2yt1uY3uZ7eRCwh5IlPGSB2G7OD2HSuSvLg3Ws39w24RZ8uKRBk7Rx+AOM/jQ9rGaWo6Ix4aWS42iJc4wQCfbAyaagMnliR1ZM5beSu36+w9KZCVjjl+YKMbQxXJY/j3FKkQjPyktIR8sbncW9+OmPSgvc1vEAMfhXSYCylpXaQ7RgHLdvbC1yupSMZlBxwvNdV4uAj1PT7FTkWsChvYhf8WNcjfSb7l+nFVV0aRdR62KxPtSZHFGaMdKxZka2lIBaSMwUqzH7xxnFake47GUKrkAEg4Cj/AOv0rM0+MC1hIZtzE59Fz6epOKuSbY3wSS4OeMnGPQf1NWhgEeWYpGGcMxxgY3H6+lT4aMgtt83lSAM4/E+mKYkkUoQPuKj5lRDkg+p+tRo53kSsxJ+6vXJoAeNww4bL5xvY5ZqX/VlhBESMEYc4z6/5FOcxiCKRt6lvlKgY2gf/AFz0FMkG8+YX+RQBgkLj6UAOFy3kkgIdwAG04xTfn/vR/wDf00wSY3BgpJGAMZxTvIh/56H9aQyBEl+bBO7AOQu76fTmpPMIcyF1EoPRVxnFNEYjkkRyYpFGdxRi7Z7D0/zzSQw25cs8yxgnBZ1Jx+Xah6AiSEyRlZRKrnjO7/6/9KQ5LySmbaCSA3Xn/DtTbibzjhgxIGxEQ4U8YJ5GcflUM0hRAgJR0GApOMfTIpiJiCciYCMgblEh24Pr05Hb8ar3sX2kE+cz3KkkAEHH/wBepJSpyWVxgAgL3P8AvHrVeV4ojiN2+Uc712hT6D1+vFJgRQ3yv8lwNrjgtjr9fQ1bGQhG7cpORznFUJIVuCSm1WUFiSwAb/69VBI0RO0sp9jii4GsMu5GSB05OcUjoE6lVA7njNZv2qfvK2O/OKjJY8sWJ9zmldCuWpbpRlYFyT1YiqvJ5zk9TmjmijcYUUUUAFW7ayclHZRyMhW4z78+tQRRqXO9tp6gU8y4J2sxBGMsAT/n6UCZejkGQRI5IOQqggg/4D1FSXF/NcSKCYQoGCwTbn6/5NUElYZUs209uDQmXG7Kjb8uCepP9BTC5rTQyGCOdpIDtUDajhZFHuP8PyqvaXRtclSnmsdu5znH+OenOaqecHBUqjPnhicCkjRpIw+6PlsCMn5j+FAXLpuR5KNxsUHOF5/HFKCbgRgFWdm/ibGfw6Ae9VLm6cxiLYEKn5sghj9fX8KjSRkIkZVZc45Bx9OKAbL/ANoYSGRtqhQAVUkg9ufr7Ul7maMqiAbhkIDjHf8Az3qmZVfYGKIF4BRTx7n19O1KtwJNgdlVRkZOT+lFwLdlKh02MlD5iMVLE4H+Oasu8RJEbPJEVAZgoBORz16Y9TWVFcRo7YQK5OQxJwP8/jTvNkkB2ElWOCAcf5NAFW5QwnyesedwPXPvTI5XjHDHHoeauymK8coF8kADDOc7T749fTFUSMEr1wcZHekFjRtttzgCRUbGSGIANPTdjcrLjOM5xWYjtG4K5H9a0UuA8KyrOsT7iu0ZBH0ppgWob2RCFILZGQMdasySR3MLwyZjZhtKsMYrPa+MtwGdnbAGQFx/P6VE9yHmbcJWLHcWY5J/GquBUiLWt4Nw5RuQe9WBgpIBjbkn61PLFDI7u+EZQCd8gLHI9Mcn6VBb4cMCMBhnipWjA73QI/tvw9lgxk7ZosenUj+dcHpF5JYb7uHHmwlWXPuCv6ZFd18PJhJYX9kc/JIswB9CMH9VH51yU2nGz16/04qRu8yJM98fOv54H512Ntxi0dTd0miPRZDbalDdyPzKCHc89cgn6967by5Y0kt7hmy0SxRz9fMkb5eg6fNjn3ritMSObT51ZisiBtpHHPX9cEV3OgajLe2duYRGZ7Z9lwHOW246jHc8de4Nc1RNO7OepHVMxfB5ZNTurZwI3MRXZjoykA5+nIqnrVnqMdrI62csf2dsiVAA3JHTHJA25yeRmuvg0yS4146xG8KPudbiGLnepHyt7MR94fjXI6r4jv8ASPEVxGrvLbyMHCOc7lbpt/ukDjjjis1e+gr63OVSYB2Lqsu7qHJ598jvWhpkUV5dL5dllEBZirFsY+pxn2713P2awvdPN7DaxXBwSAIwWJHOPr25/lWAniiRIwlrZQQqeCr5JH5dPyqrtEpt7FmK5u7awuLy009/tLlYY9seHXjmTHUAkZx6mn+EfDbmeTUtZQQxWx8wvK3VvU/TrzWppGp6hfo1w1jtsI1w0kUZLsenyDPPX6Dv6V0sI02K+uP3bK8NuqytIDsMZJbvwTkEnvTTd7lK/Uxtckj0m1u/s8BilnICSnA80svLe5VR1PfFcL5Ko4EZJVhzlRhf15Pua0vFurJr+pgIS0MWUjjU7dvufc4z7cCsBLCLhlneMtwGJyCfSkwtYv8AmyRvFIdoDE7SR0/+vWn4ft/tuvQLsVYkbzpWAwSo59eh4GKx7WSS1uTkefHjhZyQAfYg12P2jTrDwrJqdnYi1muIzEed27nsT1BOBWlOKet9jWEU9bnMajeG+1m9vGPBJUc/j+nT8K5yR97lv7xzWlM5t7IqT87nBOepPWswntUTd2zNu7bE6Ck9MfhR/UVNaxiW5jBBIBycHGcVAjbsyqRxiOFZGiIDEDp+NSmNXcs7FthwFUk8k9B9KZyXZmMgROjDnHt9aaHlRz5DKqk4VSC2Pwx9fWmBLIWCSYkb5cAAkdPw9KYHUOZY1C5bIbO3H0B7fX1qRGXyVRUfzg2RL1BH0PSmvGsjorqjs54UksR6+wB9qYExRSQPMUrj53PJ/wDrH6VFMh5MJwnQbhtz+dOkhYHaCVVWyd+CqY5/MUyJEGWc7uc7n4AJ9c9T39s0gFF4qYjaRQF+YKcL+X1/HpVr+2D/AM80/KqPAhBj2SBzknbkrz15p/8AxL/+fof9+zQBATLgTtJIjsdoY5GPoPUc9fWo3kwVj3OVxkk8c0OVkyPMjBYjaqA4X3OadEDIUQuz8nbsGST9O49zQAspk8sOyvvVgWYjPXkfUnPenSP+/DQRsjYGVPzEt+efwpYzJLg7RLKSFYk5JOf5/XOKhkLREyL90uUjwByfp7UCEldhIDuclupKkfl9Pb0pIrXzYRs2uQ+CwGMd8sR2+vNPJMhkM0jrEoBBc9T26dB27UWqBH2ZjYscAE5yP8TQBQlt8OVDDCnkA8H6VWcHup4OK3JJSnlqltBGinl/LJJPpnrx7VSc+ZIfIbLkZJ9Pp9aTQGbRVvy9+47fmBwAOcUn2cEnGWAOOB1Pp+FFhlWipnhAcgHI5wBzSSW7RkAkE9cDmgVyMd6UHg4HXvThE+CQBgDPJxTdjDGRQMM4OcHPtxTzIuCNuWY53MOR9PrTMMCcL+maUgjqD9aWohYyCSCwTn7xGR+lOD7CygrICcc5OffFNQsHJXdkHn2pQcEjd5ajkY5yadwsIdrks2PmPOBjFKApccgJ3brijJ5fceecnvSF8uTgr365oGOcoEIzuOcLjII/D0NKJFTaCS2Tkrkqv0+tNKcISw+Y85ycfWlG3ILlnTPKg4P60ySVGVHSR41aI/8ALNZCCR9f6055wZG8iNFizlUbDED03dTiqx3HAGeBkA88UDkd+T+dA7FhEll3Bm+ZRxk5wKiw0TgoxV/7wypFMdNhC7fnByc9vanP8+XzhCeSegoFYXK7sFs5OSD39afJbtK5PocFiQP1phmaXAd+F+6pPA/+tSAry20deQPT/P1oGMdMyFVHGflx3pAWicZ3Ag9PSrOFQFwAFYYjLtk/p0qGTEgB6PnjnPFKwFmMmbAWRIxgAKxIzSSr5d4qSKyAcFVcN+o4qtHI0Z4P581LGCMOsaybWBwVyPy75p3Al8wbM/Km48FiTgfX2psOEnKjOPfjNS3PmxHy7hWXeuTu4LL2A9BnsMGoQUDo+GQ5wBjj/P50AdN4PvV07xLDuOI7oGFs+p5X9Rj8a6DxhpvlXsd/Ai75VVlY8YkTp+YwPwrhmOMEMVZSCpHbHQ/ga9PhMfi7wiNxCSSrtYjgxzL/APX5+hrqoy0szppSTVmeayWscOsTW4JW3vUDxN0xu+ZfyPH4UaVqUuj3SSIWVyxE8TD5WX0z1GD39aupZS6jYT6fIrLqmnMzxr3Zc5ZPwPzD6mqN8PtsMd9DgMxCXAHG1/X6HH5/WnUhdXQVIXWh3dlfrdC4uNK8qJZU3GVvvGbGMOvYgAc9DUd1YaVqzwnVCWvmDeU8JCksoy3+zjPY+tcPf3EuiXVvDYs0N3Gm6dlORubkKQeuBjr3NdLpniRU0p82sPlxDJWEgNuPoh7k88VxzXK7HPJWdkQ2AbQ7o3EKXEouAitC5UbD6nHGR0yK0hbWupCS8SwtLqYfMozgSMDjk+3P5VgDxBpXmSXAjuQzsMqUHHYY546VIPFVvbeXNZ2TI6KyoZZNqnd1+UdTwOc+tLcjU7YXkMcx3XD28dlgyqBtjYMpwCe4HXC98VxPinxbLqLvb2hZLJWwxPBk9z6D2/Pnisi+1691WdJLubcEOVQcAfQDp9f1ql5jGN02oEY4LEZz/n2qkUtC2kikJubg8CnRlYwytMqoBwSDg/T0qvDbN9gMuVkiD7CQc7T2z9efyqAysSRty3TGM59qtxas+5bVrPua2j2M2p3sVpHKwM5ySRnavc/QD+dbHiS9iutQh0+1wLOxUYUH7xHA/wAfxFWE/wCKT0N5rgKdUvFwEzjy1P8ACPTPU/SuTlk8qHz2bfLJn5gfvE96p+5G3VlP3Y26sq38vmTlB91OmO9VTRk0lYmYcc1csowUd8gMBgZ6f/rqoBk4AyTV+38tBGNy8feyKEIuvKbjbECSE5CjgEnr+P51JLIxLxRvtMfJXoRVAzMdyKRs6nYM4P19DUkQWQqF3gjGWdsZP9aYyzvWLK7w5yMqcnn/AApru0YyxCEnhgDxn0qIyEIEB3MjAiQnKkH2oeTLjdgkE/KBnFFxlj5i65TG4ZAyeffHrT8rEczbJTngEcD/ABxVeW6RIcK28ZBOw/zxzmmwyAnJ38jnJxn2FBI/gxnflixwQBjH0x2pPso/un/vr/69OkkgkJEayxnacsX3ln7fhSbn/un/AL5NAxsKRbAqISCDkvk4Hr1pQVWcdwvQMMZHYn/CpMyW0QTy0MkoIyRvB9sDoeCfegJF90KpTdny94DEgd8dutAtiL5cMUUKMgFgMYJ/n/SlR5IoxGPMVGJMgB5PtnqB0+uTQZF5HBbHGDkjp19gM0mFQB2UqWJKv17+/fFACiOQ7rgRs5GAWfnHsO2fr0pkgZ2dlhUqzYLLzt/HuR9KfGPLLEh2KjCAseT6/WiWMAEEAliMkE8H056UARvvMjs5UouMEHA/Kh5WGWYqsjycsckgf4VLFFEiRjG/aCCoO3I+ppcM/wB4iJWOQS+ccelHUZBKIjsCI2/bkkc8nnnH8vaoinB3Mu5em3vVqP7mwn1BIJyW9Pp7mo44d8JUBdwHzAkHJ7/l6UCKwRSSXJBI5I55ppAAOBxnJPpVrCnLFQ75AIDjH+eO1D5E4DBU+TAwhH+f0oCxWKNhflCk85J60iI4LYj3uQVCkEgf/XHWrEITJMiuGUZwpzn/AOvUttEjkSOojiBwMsfm59u9AalJw20KqAFhgAGk2Ng5U59fWrk0cTu23cqA4IQ7icetNRDKcqhUdixyR9AOooDUryIZOSF3LwOAP/1mmvHswyNuGAS23v6c+lXEtiAC6MdvIYHK/wCfc0y4jy+cKHcZ2qCSPoO3HegCtJGcAs+SRjpjH5VE8TIcEAEDv3rQ2GUnlFKjJLNhj9APp3qPYDGm1EAByMfeb/Hp2xSswKWMMCFJ4wc8Z/8ArUYOOoyTgqB0/GrRRChwG8xui+v+Hr3/AApPJUOPmTkZ3MT/ACH5UWYFc7wA24g9OKCjRHlWBxkbgRmpBGxyQ6Lnj5+M0PG3locls5IJHX6H0pbARcEAkN6Mc5pQDI4VY/YY4J/GgBjyQWA5JpwLHj8x0AoQxhH3s8c/dz1o+bkN1B4GMUqYBJIBxwCT0/KjzMOOFfHXdzk/1/GnYQgPQccc4A605y0kgbDEsMhmwP8AIpBLjC7Yzk5DbeRTA5yeozwQOM0gAhjg9eM06KN3OxA7E9FXvSZJzwAKVzkLkfOODxgYpjJU8uKN0YqdxyVQkNn39qjdGG1GDIQMgMDxTQR3B4P3s07cHIbcxJznvxRcRoQnzbUEMPMUYODnNdJ4K14aTemO4YizuCFkJ/gYcB/oOh/CuQsZvs04cqTERhgBnH/6q0LiIW8gmjG+KQcAHrmrjKz0Li7O533i3Q5xPHrWk/LfWpDOFGfMA7j1wO3cU7w+dI1OFtQs7SCK6bIlAHRjztPsTyD3+tV/CXiWN4I7C/mAQfLBcMc7P+mb+3oam1jw7c2OoPqOibYbzrNbn7kw/wDr/l9DXbCSZ1wakebXNtMY31CTdIk0hBfGcMTyCex6fUVWBIGVwHByCByPfNdrb7BJKbGHyXk/4+dLuDjJ77M9c+nWs2bRLO4dzpzLBNjLWd0NpH+6T2P4/WsKtB3utTKpQad1qYccT3Vtcy7gxhUSOxPqwHT8e1RDcYwQSdp/i4Vf/rmt/SNBvkttW8y2ZEFo43HBDNnPB74welc8iDnKvvxkbR/nArOUWop2MpQaS0Hh2AXbuAbq2CM/56UeYfLZueDzjH8/f2xTPmcFBu2n+EA9qu6domoajIEt7cnd/Eeg+vpUqEpbIlRk9Ei34flVtcjtpjvt7w+TMp44PQ/UHBzXSW+gWPhgvqmoSiYxZNshGMn+8R3pLXSNM8HQi91N47m+P+qQcgH29T/n3rA1PUbvWrk3F2cDP7uLOMfX3H+fWujSnBKWrOjSnFKWrC6vZdSvHvbtuSDtUnOwe/uawbmbznG0AIvCgdqmurjIMSNlf4m9f/rCqnFcrk27s5223dhkUUdzSgZOO2c5pCJIY/nBJAJ4GatiXykmRXHXAOM5H1qtH8hyu3gcA96EySDnBznOM4//AFUxXJfNZwV38Z4GAP1p/nRF1IhAx95S+d1Vt+93ywIJzuHGaUHBGR9Cc80CJzIHzmNUyc5znH0p3GGJIwOCSMf5zUKOxwhORnoB0o3NGcZBye3IoHcsechcuqsI1xnJAx/n8abHcAT5BJ+bK7jnFQuGjIWQrwMgE+tIZCOeAV5wBjFAXLM1wHySRnqOAKTzj/dH5Cq7uwcbsknnJApcD0H5UBc1Y5mfaPLTaxyCnUY/QUyR2JIbBRQSCei/4mlmDvOTC4mZVwHUkjn0z09M1HsQyiL5fkOC6E8+30oAeEQnYHBCKMh8rt/H9e1MSNrwoE2xoAeFbJA/H1qZE84jbCZpByVdgF9M896bC8gyuFwTwqnIHPoOp96ACSJbfBU5DDO89VA4PfHbrTUMSJiB380lmIDZ+U+vvjtzTiixyPIJNu1ghUEnjH6evtUjmBIzj5tgAYOAMk+/X8aAIpU3v8pV5F4CHI2jHt+f9KI4VkjEhb7wGxd3zN+HvxQUQZGQWGB5aM7AH39alRDHdFYGSSWSMAeaVUL/ALPPcHjA/WgCBEZAQ6yR47k/d/8ArjJpzxxxl9onUnJVSATg+vuaSa1kikZJHbepwzPkAfT2qMQlI/MkLbASp5zuP+FAE3ksIxKYd6sDsy2ACMjjB6ccdM9qJI8Tn9ykLKoBERLFfzPFFxIrlJ33BEASMkgtxxx649aBNnDqAmDghAQzf/Wz60AMjVTlVVvKbJGwYIP1/T8abGmQCQY4lHGTk/5PpUm2N49qxPJLgtI4fOB6DFJHHseNBGvA+YAdM89T37dqAGIChHlqPlG1RnHJ7054gCuWPmLy2SCR24HenhGlPysdoXnJ+9+Xbp1605In3xoqHcRkgAnHvk96AINimbBkZ1Y4XJxu+o9KNiHMhOSP4gM8+lWZCyQCFFjG1izEKNxHbnsAO3vUYBG/5UCRdIvMI2t7g980ARJCZYTtU5JyocgYHc0snkZdpCoRT8oAzn86ABISfv5YDpkn8uAMU+RxHI24RlsdTg4x/QfhQBBCQ77vn2KdwXJUn3JA/SleFQCQNsm7IGSeP5ntU3AjYBlDsOSH9f5nmlckAJGGKk4ZlXOc9s9/880ARw25mjZxIvmqMBSTk+31quluoUlsgAEE+pqxGGJChygYbevT8P60qFoyMjcofbtHJyf6UAVUibY+MYIAKg8e2ajMIwA2QuBnHH+RV10UuCQCD2znH5dqSOIgguFbBwA/Kj6+3egLFExAHjk4yOcYqJ0YDJzzySRitTl0BdIQrcghP8KiMROOCGBwAec/h6CgNjPcMXJbvx0ox35rRe3EhJLgbTjpjJpn2ZkK7gMbiu1hnFKwXKIRT1RiQOqnFAA6HOW6c4zV4WzR+U5AUvkj5c/5FCWreYTlCV6AYYD3OP5UAmUnAGV5BB5wd2aTpg55J6dKsi2lO1Fzh+QCev4fhSCJ0OE8wFhg5XGD6df54osFyvjYAVYBycADtV2y1PygYLrLxE8Medv/ANaoBE3nFShLjkgjOPf6UksOSDEUkK/MSgIHP1/pTWgXNTZJauGQ+ZbsOV6gj/Peuv0DxaIoEtpd15bKMBHOJYv91u/0rgLLU5bLKFRJA3VD2+laCR294Q9jLsf+4xxirUmi4ya2PTzaaX4gT/R5Irlx0ViI51/PrVC88MK4MUztJgYVbqPcR9GHzD864M3N1FhLiPeV6P0I/EVdh8SajEAIdXu12jBSXEgB/HtW8K9nqdMK9tzu7bz7eBIQttsUYC5z/SsK38Iok8had2RjxHk4Udeo7D3rLPjLWRGcXlq5A4JtVyaqXPifV7jO/VHUEciGNUrR14PdFOtF9DrzoukaUnm3McUSjktMQP51k6j4ziRGg0WASc485htRfoO/+ea5CXddSB5jNM/Z5WLY/OmS3Cw/fbcR/CtYuvbSKsYus7aKxNM8t1O1xczmWbq0jn7v0HYVRub0ODHCflHBb1qGa6e44PyoOiioMCueUm3qYttu7Fooo/xpCD2qRBjjIz045o8sDqpzjJzxQDjGOD1FADnKkBAirtPJHU0uM52smF4HzYJ/xNMJ5xnnPOaMqHPyDpxzjFArDsHB3ZAHTHNA2+WCxbdkZGKaCTkZznkgnFO7EFQGA65pgxA5B4PPp1px3gAuRhhwBTYw3JXA47nFBwduc5PByc4pJ3BjiUcjagHYjOM0JkFSCpK88DpQ+9CwfO8jBBHSnF/MJ+UDIwQo44pghTIHcuyBmJJZi3Wl8xv+ea/kajT7gVSNxNS+XL6n/voUrBc03kjEjBXwowSACwPbv1/T8aD5TxoqSruZseWFIwMdSff0ppjktpgtwrdQWYPnH0A7/WnQuDdIG8oxs3zLuIDY9cdAfemAqeTJMFV2fbwI2G1R+vH/ANaoxJ5iSbI5hHIfvAKPrye5GOlT3xjuLqZrGFIoeoWJuB64z1/Co4SoBeRMqqZJ6/z4FAwjCTAJMxVR9yJRjefr+HeowAiEEkMXG3DYJ9v/AK1Ok2yRx42kYw4DbsZPfjj+tOKQW5bHzEEkA8b+3boB1/rQIcgi2SO0mCMbdvOPw9eDzUAiVCoCEyMQQHyT+Q9SadGkSDa0gJUbyqL936e/bmnxpcx5m5yw3P5YAI9sDnjrnijQBiRRQIpEKvIxIIwePrn/ACKmErRujQtyDgsoHy55OPr6mnvcqbmR9h8pQCBJwcnuOO/XHPSqaJbjCYG3P38bsH/PegZZjERs1G5pLtmJCqA20eoPY5/SqvnBAqRsVDNznJJ/+tVgxwkHLyRxR8KMgE/8B9DSHYhAAMY5KKBlgP8A6/vQIjSbEGxnXaTkqO/1p0jvs2FxtB4AI4z0/OkMvmHy/l2AAlVXHA9/X/GkjkaSRT3yQQF7fX0HSgAKB0GCyxgYK7sfoOv0qTy1jciEsuRlgWzj8R2H9KiGAXaQOQ3GB39+e1SiM7whRizHIyeo/oPrQAyVDsTLsWJ3Anknn/PTNSsFSy3iVZcMRIrAEqSOvPUH2qIFSSojJBOVAOf8jg0j3DFN29sKckEAZ+mO/Hb0oAsypmHJLHdxhSc/l2GaZcOYowuFLAjIBzkD26dP5UkkiyRxlARLgAoi5x/9YU7ZKjoAud527mO7Jz1GOg+v6UABebeMjywy/KAmMcfT/CkMYJAVmbjOQcAf/WzUkkaICoDFmXBJOdv49s0scLeSiCNQ7KDuK8tj69h74HPpxQBAHbjCtuQFgTxjPc/y/GgKgACNjBwM89etW7a1ZzCpYiOWT5SCCG5x19TxU9lbRzTKYFdvKO+VgM7AOuewGR3znNA9ygIsAlHwpOC2MZ9h/wDXp4sS8iH5vmJAG7OMe/61sxWERvN3mDdKGZtpB2qOccdByD+PtV2HSkljt5LRWygGVY4C9+3XAPrzmldDSZzBtZfvDdhiSFcDA9MDqenerT20lxGsis6pGAuHyfy9B9Px9a6U6U8cZmSNohIcyGNfYjkj5gD6dMHtSC2kMM0Syo8iMdyISvl4HUY44pNhY52TTY4bwyRqDFtypRsgZ4zk89foc1G9qYnMS4WSMkbSBx0+b3PNdDNMpto5EhCRQjlohwT0PJ646YAGc/jWJeXKnzItskW1g5VO4wBkY49f88UJ3Boz/sqpIQ+6QY/eAj5j36np+nSnxxvjasXJIBAIGR7n3pkryRuW3jknLEAfjTJJRg7XYyHqS3Ax6+vc1RJPGmyEq4VJVBLNnGRnsx9j/wDrqpGivcmNmUJ94FRu/T1PvTnleJBt+UAEhjwfyNSG6eK2jXbksCXJXJbn1PUBcce5oAQXSB8XCOirGFAeTGe/IXr9P51XuvIuDGiRkZGAD8o9d348cHNS4ilkEjKi55O8kD8hTJZjJO/mGMopwu3kNnvz7f8A6qAsZ80Mcf3JVcqcbkBINVjkODkgjkEcYq81n5xzCFABwFzjP59KpvG2QOCcZwOaTQFmLU7mPA8wuo7PzUw1ZXB8y2jJ9QcVmj8aKFdDNE6lD2tff71MOptz5cMajsSM1Rop3YEsl1LL95zj0HFRUUlIA5BpaMHmnAD2P6UAIiE56D604ZTpnpS/KO/0xSAjuM5Hr0oAd0B4XnGDnpSEl8E/WgIxXIUkDgnFABcgdfXHBoAMcgEYPvxTsgEDkrnnHemkYIO4Nx2PSkGM8k4PoM0AKQMY28569MUozg4DBQOcE0gJAI45PPFB7FehHcUAKApycgY6Z70ucdBkMMHNNx37/lQck56j24oEOTocMR7DvQJGQ5RiCOMik567R1+lKAeSobA698UxAQH+Yk89TjNPwfT9KaQQQBu55AI60fvP7rflQBqDB1B4CqmMZABFFmisVjI+Xef5UUUDLFxCnlStg5ABHJqO1/eTgv8ANgEYPI6UUUDGPgXZQABRIAABTklcLcrkY2E8gdqKKBEkSK6Qswy2MknqTzSbvJt3KYBVjg45/PrRRQMs3NzNDG6rIxBI4c7hyPeq9/EkMqeUoQbUYAdFJ9B2ooqVuBVjAEG7Ayc5NIqA28kpLFygOSx7miiqEW5AI9QUqAPlOR2PHp0qCzdpL2OKRi0bvhlPfH/6zRRQBd06NJXkWRQyjoD2qmv7y4O/njp2oooAeJHSS3jViFRiFA7ZH/1zStiW9l8wBsP3HtRRTGIs8kbybDtIZTkDnn3p0WGaNyBu3nBx060UUhCWxMt1GjcKwUkDjvWq0MYthOFxIobBBPbGP5miigC9DEgu1jCKFwx4HfPFPtQFvpinyN5wXcvBxlu9FFT1KiXkZrdLCGFmVJ2eSXnPmMDxnPX6dKtTzPbX0McJCIbSR8YB5BX17cnNFFQzRFWxYy6tPpr82f2YyeVjjdkc/rWcYUj1aaJQRGqZ2ZODhu/r+NFFNEspzzyt87OxaVBI3PVgeuKpTO0qq0jMzENyWPY0UVSJZnwEy8yfMZG+bPfBqZ0V7hIyPk9B+NFFUSQwxq91GrDIKbufXBpZQFVSAPlAIGOhoooAZcZEzcn7tNiAaCUty24DcevIOefwFFFAEdwixRlkGCeppkDs940ZPy7QOPpRRQAgUN5yEDavQUqW8T3BBXjcRgemKKKQynIirKwUYApp6iiigBPSlFFFADsCkwOaKKADA4pD0/GiigBd7eXjccZ6dqFOQvuaKKAFHU0oAzRRQA6P7rfShAGfaemaKKAFcASuB0FIehoopMBWAUD39adH95h2z0ooqiWJzuHJzjrnmtGO3jaNSVOSB3NFFAI//9k=;" vertex="1" parent="1">
          <mxGeometry x="604" y="-1111" width="120.53" height="119" as="geometry" />
        </mxCell>
        <mxCell id="mkIjakdbtP-4XP5yUZ4M-84" value="" style="endArrow=classic;html=1;rounded=0;sketch=1;hachureGap=4;jiggle=2;curveFitting=1;fontFamily=Architects Daughter;fontSource=https%3A%2F%2Ffonts.googleapis.com%2Fcss%3Ffamily%3DArchitects%2BDaughter;exitX=0;exitY=0.5;exitDx=0;exitDy=0;entryX=1.017;entryY=0.077;entryDx=0;entryDy=0;entryPerimeter=0;" edge="1" parent="1" source="mkIjakdbtP-4XP5yUZ4M-51" target="mkIjakdbtP-4XP5yUZ4M-1">
          <mxGeometry width="50" height="50" relative="1" as="geometry">
            <mxPoint x="380" y="-680" as="sourcePoint" />
            <mxPoint x="230" y="-920" as="targetPoint" />
            <Array as="points">
              <mxPoint x="280" y="-480" />
              <mxPoint x="280" y="-942" />
            </Array>
          </mxGeometry>
        </mxCell>
        <mxCell id="mkIjakdbtP-4XP5yUZ4M-86" value="" style="endArrow=classic;html=1;rounded=0;sketch=1;hachureGap=4;jiggle=2;curveFitting=1;fontFamily=Architects Daughter;fontSource=https%3A%2F%2Ffonts.googleapis.com%2Fcss%3Ffamily%3DArchitects%2BDaughter;exitX=1;exitY=0.5;exitDx=0;exitDy=0;" edge="1" parent="1" source="mkIjakdbtP-4XP5yUZ4M-75">
          <mxGeometry width="50" height="50" relative="1" as="geometry">
            <mxPoint x="380" y="-680" as="sourcePoint" />
            <mxPoint x="600" y="-940" as="targetPoint" />
            <Array as="points">
              <mxPoint x="600" y="-380" />
              <mxPoint x="600" y="-620" />
              <mxPoint x="560" y="-620" />
              <mxPoint x="560" y="-940" />
            </Array>
          </mxGeometry>
        </mxCell>
        <mxCell id="mkIjakdbtP-4XP5yUZ4M-87" value="" style="shape=image;imageAspect=0;aspect=fixed;verticalLabelPosition=bottom;verticalAlign=top;sketch=1;hachureGap=4;jiggle=2;curveFitting=1;fontFamily=Architects Daughter;fontSource=https%3A%2F%2Ffonts.googleapis.com%2Fcss%3Ffamily%3DArchitects%2BDaughter;image=data:image/jpeg,/9j/4AAQSkZJRgABAQEAYABgAAD/2wBDAAoHBwkHBgoJCAkLCwoMDxkQDw4ODx4WFxIZJCAmJSMgIyIoLTkwKCo2KyIjMkQyNjs9QEBAJjBGS0U+Sjk/QD3/2wBDAQsLCw8NDx0QEB09KSMpPT09PT09PT09PT09PT09PT09PT09PT09PT09PT09PT09PT09PT09PT09PT09PT09PT3/wAARCAHMAwIDASIAAhEBAxEB/8QAHwAAAQUBAQEBAQEAAAAAAAAAAAECAwQFBgcICQoL/8QAtRAAAgEDAwIEAwUFBAQAAAF9AQIDAAQRBRIhMUEGE1FhByJxFDKBkaEII0KxwRVS0fAkM2JyggkKFhcYGRolJicoKSo0NTY3ODk6Q0RFRkdISUpTVFVWV1hZWmNkZWZnaGlqc3R1dnd4eXqDhIWGh4iJipKTlJWWl5iZmqKjpKWmp6ipqrKztLW2t7i5usLDxMXGx8jJytLT1NXW19jZ2uHi4+Tl5ufo6erx8vP09fb3+Pn6/8QAHwEAAwEBAQEBAQEBAQAAAAAAAAECAwQFBgcICQoL/8QAtREAAgECBAQDBAcFBAQAAQJ3AAECAxEEBSExBhJBUQdhcRMiMoEIFEKRobHBCSMzUvAVYnLRChYkNOEl8RcYGRomJygpKjU2Nzg5OkNERUZHSElKU1RVVldYWVpjZGVmZ2hpanN0dXZ3eHl6goOEhYaHiImKkpOUlZaXmJmaoqOkpaanqKmqsrO0tba3uLm6wsPExcbHyMnK0tPU1dbX2Nna4uPk5ebn6Onq8vP09fb3+Pn6/9oADAMBAAIRAxEAPwCqzUm6hqQV6p5wu6jNHFHFABmjNGBS4oBCA0uaUCjFILCbqA3NLgUAUBYN1G6lxRigLCZpc0YpdtAWEzRml20baAEzTgaNtLigBN1G6lAFKVoAbupc0YpcUAJmjNLil20mAm4il3GgDFLSCw3Joye9OwaMU7hYbml3Uu2jFFwDdQGpcCjbRcBu6l3Uu2jbRcAzRmjFLii4CZpQaMUuKQWEzRmlxRigLCZozS4pcUBYbmjNLijFAWEzQCaXFKBigLCbjRmnU3vQKwE0m6lIoxQFhN1G6lxRigLCZpC2KWg4phYM5FJmlpKADNJuNLSUBYQk0ZNKTSZoCwmTQSadSGgBMmkyaXNHWgLBmm5p2KTFNBYTNLuoxSYoACeaTNLRQA3NGaXFIRQFhd1JuoxSYoCwFqN1BFJigALUbqQigigBKAcUUYoAXdSbqMUmKYg3Uu6kxRQFgLUm6jGaMUBYN1BPFBpKAsGaN2KKOKAsG80bqTikxQAu6jdTaKAsPDUB+aZQOtAWJd9FMx70UATMKQCnNRjipLG4pQKWlAoAbilxTsUYoGNxSU/FGKAExS4p2KAOaAG4pQKdilA4oCw3FLinbaNtILDQKXbTgKKAsN20bafijFAWGhaUrTttLigLEeKXbT8UYoCw3bRin4pcUBYjK0bakxRQFhm2l20/AoxQFhm2jbT8UEUBYZtpdtOxTsUBYj20bakxRigCPbRtqTFGKBDNtG2n4oxSAZtop+KMUAM60Yp+KMUAMxRin4oxQOwzFGKfijbQFhmKbjmpdtNxzTAZilxTiKMUhDMUYpxFFADMUEU/FIRTAZijFPxSY5oAbikxT8UmKAGkUmKfijAoAZQaXFBFMBuKMU7FIRQAlJS0lACGilxQRQA3vSU7FGKAG0U7FIRQISkp2KTFMBpopSOKTFACHpSHpS0YoAbRS4oxQAlJS0hpgFJS0YoCwlFLikxQAhpO9KaMUAJRS0hNAgpDS5pM0ANopaQ0ALSDrQDQDQA7IopMiigC2wpccU9hSAVBpYZilAp22lC0ANApcU8LS7aAsMAo20/bShaQWG4o20/bTttAEe2lA4p+2lA9aAGYo20/ApcUAM20bak20baAGYoxUm3il20XAj20u2n4oxRcBmKMU/bRtouFhuKXFOA5paAGYoxT6KAGYoxTttG2i4WG4oxTttLt4ouA3FAFP20BaLiGYoxT9tG2lcYzFGKfto20XAZijFP20baLgMxRin7aNtFwGYoxT9tG2i4DMUYp+2jbTAZijFOxRigBtJin4oxTAZijFOIo20gsNIoxS4pcUBYbikIp2KMUBYbimkc1JikxzQKxHikxUmKMUBYZijFPxRigLEeKCKfxSHFAWGYpCKkxSYphYZik204iigLDQKCKdRQAzFIRT8c0YoFYjx7UhFSYpCKAsMxSYqTFJii4WIyKMU8ijFFwsRkUmKeRSYouFhmKMU/FBFO4iPFGKfRii4EeKMU4ijFO4DSKTFPIpMUXAZikI4p+KMUXAjxSYzUhFJii4DMU3FS4pMUXAZimkVIRSUAMAoxTiKCOlMA20UuKKANBlz3pAuKkIpAKzLGYpwHFO20oWgY0U7bQFp2KAG4oAp2KMUgEAp2KAKdjigBuKcFoApcUAJtFLiilxSCwmKXFLijFAWExxS4pccUuKAsM20oFOxRigBMUYp2KXFADcUmKfijFADMUuKdijFAWG7aMU/FGKAGYpcU7bRigBuKAKdigCgVhuKMU7FGKAE20badijFADMY6il24zTlUk4UE5pdh3DBU/3iOgpXGlcZto20RyRzIWglSRAcMVOcGnYp3Cw3bRtp2KMUBYbtoK07FLincRFto21LikK0XAj20m2pdtJtouBGRRipCtGKLgRYpdtPxRtpXAi20EVJtoK07jI8UmOak20baBEeOKTFS7aTbQFiMiipCtJtoCxHikIqTbQVoCxHikIqTbSFaAI8UmKl20hWmBHijFP280baLjsR96SpCvNJtoEMxSEVLtpCtAEeKTFSbaTbQBHijFSbaTbQIjIppFSlaaVoAZRTttBFMLDMUU7FJigLDSKSn4pNtMVhmKMU8ikxQFhmKMU7FGKAsMIpMYp+KQigLDKSnEUEUBYZRS45oxQFhpo9KUijHSi4gopcUU7gaTUAU5sE0Yx1rI1G0tLS0BYbS0uKWgYgoxSiloFYSlHWlpR1oCwmKXFLxRQMTFOxSYp1ACYpcUtLSAbRTqKYCYoxTsUYpAIBS4pRS4oAbijFOx7UY9qAExRj2p2KMUANxRTttLtoAZS4pdtLigQ3FAFOxS4oAZijFOxS4oAbigj2p2KbNcLZ281zIQEiQsSe1DYWOX8a+KDo9udOsnH2qYZdx1jHtXH6J4vutKgvYpnedbmPaNxztb1FUNbS5+3m6uW3G6HnI2c5U1mVyym7nTGCsdv8OdVMWoTWDn5bhcrk/xV6Ft5rxLSb06fqltdD/llIGr3HhgrA5DKGBrWlK5nUjZjCKMU4rRitTMZijFOxS4oEMxRin4pMUANxRin4pMUANIpMU8ijFAEZFGKkxRigBmPaginYoIphYZikI5p9GKAsMxRin4pMUAMIpMVJijFAEeKQinmgigLDMUmKfikIoJGEUmKeRRigYzFIRUmKQii4EeKTFSAUEUwI8UhFSYpCtADMUmKfijb7UCIyKKeRSYoAZikIp9IRQAykIp+KQigYzFGKfikxTEMxSU/FJii4DSKTFPxSUARkUYpxFGM0AMxSU8rSEUCGYHpSYp+KTbTAYRSYp5FGKAGYpO9PIpMc0wEop22igDQYZagLjvVaa9QdKqvfk9Kg0sanA70oYVj/bGNOS8PelYdjYxSYqnFe561YWcNQFiQClxQCD0p+BSCw2gCnYoxQITFLinAUuBQAzFOxS4FOxQA3FKBS4pQKBjSKMU40lAgApSKWl60ANxTsUYpaQBijFLRmgBMUYpaWi4xMUYpRS4pXENxS7aXFKOlFwsN20Yp9IKLgNxRinYpcUXAbsyKwvG9wLPwlcjPzTEKPzrfAP481yHxFbNrYQHozMzUm9Bx3PMZZHmKqzE7Rhc9hUXvUsw/eMAO+BWlpWgXOoJNKEIjjXdmuWT1OpGSK9s8M3JvvDFjM33imCfpXjEhyOnSvY/B0iS+FLPyhgKuD9a0pGc9jXx2HSl207A6UuK6DnGYoxT8UYpXGMxSEVJikIouBHg0YqTFJincBmKNtPxRRcBhWkxUmKMUXAjxRtqTFIRRcCMrSbakxRii4Ee2jFSY4pNtFxDCKSnlaSi4yMigin4B4HUcmmn1JwD0zQK7G4pCKeFJ/hI+vegK0jbYlZ3/uqKG0gsxmKMVZuLC6tUEk9u6IR1IqDHA459KaaYWaGgUhWpAMfWjFAEWKCKfjmigLEe2grUmKQigLEe2jbUmKTFMLERWk21IRRigLERWjFPIpDQFhm2kK1IRTTRcLDNtJtqTFJii4WI9tJtqXFJii4WIivSk21KRSYp3FYjK03bzUxWm7aAIyKaRUpFJt4ouBHtpCKkIpCKdwIiKTFSFaTbRcBmOKTHNSYpNvNAhMUU7FFMDKbdRggU5hSgUjQQD2pwFKBS7aBofGcVOsmBVcLS1LQy/FcDvVtJFYdaxQcVIszr0NKwjYLqO9NM6jvWYJGbvTlRmPPSkOxoi4T1qRJVbkVQSIDmpRME4pXHYuginVTW4BqaOUYouJompRTA4p6svrQKwpFJilyM9aUCgBMU4DrS896AKBBilxRilxTATFGKXFLikMTFGKXFGKAEAp2KMUuKQWExS4oxS4oATFAFOxTsUCGAUu2lxS4oHYZg8muP8euqvAZP4EOPxrtOMj3rI8TeHx4h0swKwW5j5jNJ7DW55Bp8du15GtyjHe/Br1i2S3/sG5SBAv7gjge1eS3kU1hM1vco0dxE3Oe9dt4f15HtDHIQC8ZBHviuSV7nQjz9uIsehNeveAYWi8IQFs/OxcfSuF8C6UuoeL0WdA8UGZHB6f55r16OJI02RoI0HYVtTRnN9BuOO2DRin9emcUYrYyaGYoxT8UYoEtRmKMZp+PyoAxk5oBqwzbRtqRhjj8jSYpjsxhWk21J074o69SE/rQDRHto21JsZjwDmoLq8tNPTdeXEcP+8aTkl1KhCU9kP20Fa5688d6TayCOGOa5du4HFVW+IMaPtOnZHueazlXprqdMMvrz2idVtpCOa5pPHkBwJNPlQHutW4vGOkMAZTPB7kdaSrwezHPLcRFXcTZxxSYpbaWK8gEtvIskbcjaefxpSNueMetacyezOR05RdmhpFNIp4/vdh6dcVVvrwWaKAnnXMv+piXqR6t6Ad6rUlLXUdPNFaxiS5kCoTx6k1zOo+OIYLr7LY2rXVyThEAzk1h63q93ql/JbWkoklQfvrgfdjH91fbtXWeCIdA8IaJPrmofvZUHyswyxb+6tYyqpOyOmGHk4uXQ09F8Ma5qEB1LxRqC6bZY3tbwnblf9onpT9S+LHhjw4otdGt2vXRcB4xhPzPJrz7VvEXiL4oa+ljaBhCx/d2qnEca/wB5j/PNbvh7wvZ2t+bLw/Zxa9qcRxcahcZFnbN/sEfeIrOUmwUUi9H8VfFWroz2Hhy3kticDcCc/marx+I9VkkP23SbWBiedmTiu9svAcUqiTXb+fU5s5IPyIp9FC44rX/sbR9ITzYrGFCWCjkkk/jRGVgaTOJQiSNHXow6e9OxXXav4bjug01mBHcNyc9MVyskbwu6OmJEbDe9dEZ3MJQsRYoK0/H40YqyCPFIRUpFN20XCwzFJipNtJigCMijbTyOKTBpgMK00rUmKMUARlaTbUpFNIoAj20hHNPK0ADFADCOKbipCBRigCIijFSEU0imAwim4qTFGKAIiKAOKeRSYoERkUhFSYppFAEZFGKeBzQRRcLEeKTFSY4puORTuITFFP2UUAZTLQBU7oBUeKZoIAaOhpwFG2hggopwWl2UhjMZpQMU7bSbaBD1qZTUHSnBjmkx3LIY9KY4JpFapNwNRYdyNAR1qdWOKEjVu9PEXpQNajN7CgyuO9OaNh2qInBoQWHCeQd6kS7ZSM5qAjNLimTY0Y7pX61ZUhhxWJyvQ1YiumjwPWgRqDk0tV4roN1qwGU0gFxS0uKMUAJjNLtpaKAExS4pcUoFADcUuKXFLigBMU6jFLigLDaXFKBS4pANx+VKMk+h9aXFH40AZWu+HLHxDbNHcxqk5HyTKOc+9eQahp174b1Vra6BVlPBHRx6ivdfvDn7pNc7470Ia3oEsypm7sxujI6svpUSiaRZwvw+vxB4xRZDgXQMZ/n/AEr1wrhjkHrXz5ZXcllfQ3MXDwsGr6At7uO+sre8jIaOZAwx2NKFgmuo4gg4/L3pdmO4z6elQ317a6Rp73l9OIY0HCn70h9FHrXMt4/S4dV0/T9xf/li55I9Se1OdWMS6OHnWdonWcDANKAScAZPpWDJ410qFVUxzTXDceTEuTn0FaFhpPiTxMN85/sbTz0UDMzr6EHpU+2i9jWWEnB2qaE1xe29o4SaTdKxwsKcuT9K19O0S6vVEt1H9njI+WM/f/EVHe6OvhPSln0f7DE6kGe8v5OdvtnvWTr/AI7v5tJeTSYzbWxjx9ukALu2P4F7j3qedsz9nFbalyaPyZpIWOdjYzTMdcDgd65LQ/FVzJ4PF/cYuruGbZOO6oT1PuaW98fFFdNPsv3jfdmlOAPwpyrxijWjgK04c0Fc6q4mhsozLdzxwRgfec1zmo+PNPtdyafC91L/AHmGFri5J7m/kluL+Z5pmPG4/L+ApsVu0n3EHy8muKpi+x7mEyKNlKZpX/ivWb8FDMIIj/BH/jWSbdppF3s0jN3ck1oQWLTTqh7ru4pYITv3cAJxzXLKrOR7lPA0KS2sZs1urXEXTCnBIqWSIGbYvbnmqc+qwW87hcS4bgiqE+uTyziRQEAHT1rSNKcjiq5hhqDaWupvOx85VPOB0qCeLcdzYCg9B3qhBrQaUNKmM96lu9RgIVUckDqR3qPZSTNXmGHqwbuaNvLJbYaCWSInptNbNh4yuLRxFOomj7setck+rREjbuwBUkN/a4Z95yB0I61pH2kWc9arg6yS0PUU8Qac8PmQzgyBdwQ9j2zXHeKPEotw9hp8oe/vMfa7tTwFPRF9PesqBVGnGWY7BKC5P90Dp+dZGn2gdmuWBCFiEB/irvdaShqfNvDQniOSnsdLBaW8dutnb5FpboJbmbuW9z/KsW8vL3xbq9tY2MRbcwjghUcf7x/qa1PE91/ZGgwaQjBZ7kCa6IHJXqq1Y8NMfD/h1ri0gkOv6u32azcrxAh4Zh9RXPTh9pnXjqyi/Y09kdPomgeaZPCXhubZAuP7b1ZOrt3hiPp2/wA8+r6VpVloumxWOnQLBbxDCqO/1Pc1R8I+HLfwroMGmw4MoG+eTvJIerVtbQDnvWp5gg5OCe/5GuSudUGs/EO30i2k/daXH9puMd3PAX9af478aR+FtPWK0UXGrXY22sIGf+BH2FVfhl4dl0rRp7+/k82/1KTzpJj1x6fnmmB2xXPXt0rj/GUH2O4gvkACt+7YDu3rXYjPOa53xrGJdEUHqJhj8jVRdhNXOYUqwBU8EZopPCljNregK8Ui+bA5R1P1q5JpV9E+z7Ox91Ga6FJGLiyp16c0m2rLWF4v3rWXHqVqBjtO1sqw9RT5kybMbikxTvr+YoxTFYYRxSbakxSEUARkUYpxFJii4DCKTbin4pCKAGEUm2n4oxxTuBGVpMU8ikxRcQwik20/FGKLgRFaMU8ikxTuBGRSYp5FJimIbtppFSYpuKAGbcUhFSYphFADcU0DkVJimgfMKAFxRT/wooAy3Jz1poFPKkt0p4T2qrmliMLTwgxTwtHSkwGYwaWlpKQCgZo20q96XNADNtG3HSpKKAGjNLQaOT2oAepxU6T4NVefQ08UmhplzzwwwartgtTc0opWC4pFGKM0uaYCdaULSU5TQIASvSrMU5GMmolXNIy46UgNKKcHHNTr81ZCMV5q1FckcGkwL2KMCokuFI5IqVXU0gHYoxRSigAopcUUAFLSgUuKAGilpcYoxQA2nYoxSsVRA8joiH+JzgfnRYL3E9fenxrufG3IIKn6His248RaNaZ8/UoeP7jBq53WvH2hw3do0LzX1uhJkiU+Xzjg5HXmplJWsVyyWp5t4hsV07X760QELDKVA9BXe/DPxLE9udFvpVi2fPDKxwAPSuGliuNf1O4ugBEkjl2llOFUemauahaaTYQWq6bcTXF6G/evghW9l9a5+a2pvCPM0ma3jS9n13xE5SRPsNt8kB3cMO5+ua0vC3gTVtaYSWyNbWp4e4l4Yj/ZHeu88IfDeztbeG+1NfOu5FDiNx8sf4Vf8RfEXR/DQuIFUzTW2EMUfAyRmseR1Hd7Ho/WIYZctBXfct6F4K0bwxbmfZG8qjMlzORx+fSsfxJ8WdJ0mGRNLB1C4Xoyn92p/wB7vXl+r/EXUfFOs2qajIYtMWYFreM4DLnoT3rI8ZXtrd+I7k6XCltZgKEjjPy9OtaqKRxSqSqNym7sl1vxhqHii7MutXDsgP7uFOEX8KuaTqlwbu3i+2/6MWCkPyqL347Vx4I7VoaPaXF7cslv/Au5s8AD3NKSdtDXD14w92S0Z3OoXVn4X8QXdvpO24sr6ICfBypY9CPpms1o9oKkZKjgevvUmh6bYanp11NfO77f3dtBEeXkPGSeyio7W5exMtreqjXMHyEqcjH1rhrpv3j6XLatKjN0Vsx32YxRLuOdx5q9aW0VmJmupkSEjhieazrq/jtrZ2l5wPlHrXKX2pz3zlpHP07UqVHn1OjH5jDCe5Hc6q48XWliMWMfmSqNqyt6fSuVutTubqRi8jAMc4HFU8/SnRxSS/cRm+grthSij5XE5hWr/E7DCaMn1qY2c69YnH1FMMMg6ofyrXlkjh5kMzSg44pMEdRRSdykx1TWVv8Aar6CDp5sgX8zUKmtPw/GrasjMRiJGkBPYilHcpvQ0vEc53raqQiOwjbA/u8Vp2Eds13GIRm2s4t5J9QOfzrDilGqeIQzYMaZcDsSOtarSJa+HtUu8bTKypEo9zzWdd80kjvwHuQnVfQx7S2u/GHiuG3iDtJeTbV/2EzyfoBXsfhq1g1nxxi2T/iVeGIRZ2rY/wBZKBhmz3rzr4YWg+3arq0zmOLTbGRt4OMMykLz+detfCaxNp4DtJHQiS6dp2Y9W3d60sec227s7MHjOOTXMeOPHVj4OsCX2zX8gPkW4PU+p9BVfx18QLPwhaGCN0m1SVf3ceeE/wBpvQe1eY6Hp01/cnxb4kL3u+XZZWxHzXk3oF7IOuaBGv4Y8PaprWqrq+tb31PUR5ke9cCCL+8PT0xXs0MKQRJFGoVEGAB2qrpaXIsojfrELwoPMEY+Vf8AZB9Ku0AGMVzvjSVY9KtlbP7y5VRj6Gug3A5weR+lcP8AEO/a3eHLfurSFrth7jgUAUPhPLnTtclkVghvAF98V3cl/wCVGGjiLAdfYVyHwshePwkZZeRc3G9QR2PNds0KspVeCepoYECairx7/LODxzUTQ2WpFo5YV3L1OMHmmFXgiZH425I4rO0m53G7u5GwW4UfShNoGiHU9BWz+eF8Rn+90H41jyxPA4SQFWIyB6j1FdVY3i3qm1vF3bv4WFc3rqz+Fpv9IRrzRZW6fxwE+h6ke1aRnbcFQ9rK0dysO46/0oxUjLG0KT20omtm+7IP5H3pu32raMlJGM6bi+WWjGECmmpCD6U0j2poz2fKMIpMVKRTSKYyPFFPxTcUxDSKbipCOKbigBhFGKdijFAiMikxTyKTFADCKbTyKTFADKCKdigimgI6Qin4pCKBEeKAOadigDmgAzRTttFAFJo8GmmpXBzTcZoNSOkIOakxRigCPBop9IRTFcbRS0CnYm4UtJTgM0AIAaUA1Iq07aKQ7DQKNuKds96XFICMClxTyOKQDNFxiAU4CjFOFACbaXGKWlxQAA0uaMUmKQxcZpwWkzRuNADuVNSrIR3qHOetOxmgCytwaebk4qnjHel3UhFwXVSRXIPFZ20k9cU9QV70WA1wwPQ04YrKErjvU8dwe9IZeI5BPNHbJPJ7VCtwD169qg1nW7Xw9Zfarth5jjEUXUuf896a1C1x2rarZ6BYte6g2F/5Zx5+aQ+gryfX/FN94iuy8zmKLokSH5cf41W1/WrnXdR866clgSAucqg9AP61Vtod0nHSuatV5D0cHhfaNaE1rYBx8yZB71S1GxNvLhQSD0xXS2sDny4okZ5HOFRRksa9S8H/AA8hsymoaxGk1033IWXKxj+prgp1Jznfoe7mOFw9DDrmep5Z4f8ABPiLxDEkdnYyW9sOWluPlU/8BPWvUtB+HmgeD4Bqus3Ec9xEN3nSgLGp/wBlema2fF3jzSvB1rtmYT3hX93aRnn8f7orwrxF4p1XxZdG51SYi3U5SBD8iD6f1rvjSctXsfMc1lZHaeL/AIuT36yW/h0tbWZyJLpvvv7KP4a8quLqS4diXdsnJLHLN9afdO8xBRSIv4eOv/16q5OCO45PrTnJL3Ygrlmx3O/lKAUY/MSOlF5bOkrFATH0BqvFMYZQ69u3rXQK0M0OEYbyuQvrUCbsc6Fy2O9aOnfZba5ZdQkl+zmMkrC2CWxxn2rp7TwwLjSnVgEnlGVcr0rNu/BV7a2YnikE8oOGjAxgU7OwKS6lCw1QW42tvQA/KUbBUVcZ7i9Zr+C3dreL5WkA6jvTtH8JXdzeob6Ax2q8sc8n2rvba3htIRDbRhLcceXjgg9aUaPNvsdCxso2tujk7rwvqmv21vPo9nvtXHDl+vtWVq/g280Gx+0ahPArE48tG3Guugv77wjdzWMLuNLvzmKQ9IXPUD69Kkltld2juoQ8ucsJRnNa08OrHNiMVOrPmkeXxSGOTcFB9MjNa9tqOqyAJBAu3pxFXdDT7QEMtrCp/wBwU940xgAKP9kVusN1MHiFayMaCBvsCfalHm98VWns0YHCCt5ok49qrzKpOFQ/lW6irGF2cndaajAkLg1kTWrRHpx2rtpbZjnEZ/EVnXNkZM/KM1lOmmXGo0c3FaicYVwrjord6s6a5sZLh5o8P5TKofgf/XpbnT3BLL1FS6bFJqbSWkpBYRMyMRkgjtXNKnY6oyuiTS7SeAvMUDeYvAXqPwqzrchTw3YwbZFZpHaTcmPpWfY61JYzbbiPzAny4U7TxXY6f410N/KOoQkorKTHJH5mQOo/Gudq8rnXHEONN011OU0vVJLTQL3TrdyrajJHHJjuoNfSVqV0DwbEygBbOyGB7hf8a+aGntb3xcJrZVgtZL0OingIm7P8q9/8d6xZr4A1M2t9byN5IVdkoJPI7VXU5zwBJ7jxP4qie7cvNe3KhiTnALdK9r0SGG/+K95BsAtNAs1htIh91GOATj1wTXjHgyW1t/F+mTX0ohtopg8jnoAOa7O2+I1v4d8YeJtQs7f7a19KfIcNtUAdCfWgD3aaaK2geWeRI4kG4uxCqB9ahtLyHU7VJ7SUPBIMo69DXzR4m8a674nydSuyIOot4jtQfUd691+GjAfD3SM8Dyv60mB1SqF4XqTzXjnju7OpajcvFKxiNwsaAjh1xg/UZr0nxTrj6PpObfBvrlvJtEPO5z3+gFeZeGdPPiP4gRW0LF9L0eMiRjyJXJyQfxz+VAHfxl/C3gQuqgy2dq0wXsW7Zrxu6+MXiu5kLJdwwqeipEOK9Q+JWsGDwjqEVuwHmjy5j12j+6K+diOOOlCA9W8H/F27mv8A7F4ndZbab5UlVQDG3v7V3x1ewZmjhyrf3R0x6ivnG0tLi/uUt7SGSeZ+FSNckmvd/DPh/W9O8OQR69HCssTAREEFth7MaYHUaZLaiZHZh5jcITWxfWUWoWctrOoZJAQc9veuZtrVL/VoIgjRLCd3B64rrsdSTnNNhFtbdDxyyuJfCXiObTrnL2LPtKnsD0aupubf7NKFzvjK7kYfxCs34r6eIrm0v0GDLmOQj0HSpfDeoLqXh+2hc/vYiY4369ByKinPllynq42gsTho14LXqT8nk00ipPLcDGxvypPLY9VI/Cu66seD9pNEZFNxUpRuyt+VNKkdQaAIyKTFOPFJxjk0CGEUhFPx37UbeM/pQD0IwKQingYzSGmFmxhFJipCKbihaiWpGRSYqQim4oAYRTSKkIpCKAI8c00ipMUhFADMcU3HNSY4pu3mmOwbT60U7FFAWKjmmilakHFBYYpDxQTSE07CbEzSGilApksZjNOC08LTgKdxDAtOUcipAvtTgvtU3KQzGKWpAvtS7R6UihoXNKVp2MUE0CIyM0Bad3pyigBuylCVMq5pxWkBEEpSlGDmgZ55oAUpTdtOzRQMbto206igQwrTgcUtGKAEzmnKtAHtTvpQAmMUmTS4NIRQAAnIqRSKYBSjGfftRYBmoanb6RZPd3D42jCL/fPpXler6vd61dyXlxuKt8qk/dUegrY8V3U+sa7HYIT5aHt0UdzVDxBcR+bBYWihbW2XCYH3iepNROXIrm1KHNJJmPDHk8VuafZkbPkLSOdqoBkk1VsbUcyNnavOK9b+HfheO2tjr2qBUwu6HzPuon96vJk3VlY+ppKOCo+2n8jX8FeCo9EhF9fqrX7LnJ6RD0rn/H3xaj0zzNN8OOk12Plluuqx+oX1PvXO/EP4qzawZNL0F2hsPuyTjIeb6egrziOPBz1Fd9GgkrHzmIxEq03Oo9WTySTXty89xK800h3NI5yzH61chVI7F722uYjNCcPC6/eFUZX8qD0Zuhqh1JrWcuVWRkotbl4ahsshCEGTJ5gOentUXlRvA8skn70ngCmxSKYijBRgdSOauiSwGn2621vN/aQfEhZso6+wrBajM1E3AnI44q1aTC1nt7hkLiFwWAPX2qGTHmNhNvP3fQ12/hG40ObT7htRtFaYLiVTgB1/vKPUUJiLmneJ4NXvHha3a1DL+6DN94+1bihhgqeRwB/PNcbLd27eJrKRYw9gjBIsfeXPQmu5MbbicY3Gt4sxnZDAhJxzn9KvWNk93MqlflXrjvUcMJklWJVZmPRQOnua6i0toNKtvMvrmGA4zyw/lSlJ9BwjKT0Ql/4cstY0B9KuUADjfHIOqP25+tVdK0xNb0ttM1WAJqVkPLEwX74HRs+9VtQ+I3h/S9y27yX03fZwM1yGpfFHUby/hntIxZRoSrY6uO2amMZs6HS097QuahZzabcSQXZWMocZY9R61i3eu6bafen80+kdc3r93qF/qBkvbmW4kYcMxyCtZZiaJN5QqjcIff3rqi5WszncIJ7HRTeMD0tbTj1dqpSeKtSfhVhX/gNZBO78PXvU9jp8uoTGO3U7ByzntTswbiiydf1OZtiSKzHsFqbGo+SZLqdIIh3K81r2mm22nLtjUPKerkc1keKWYRQqCcfxe9KScVchNSdjPl1WMEqAZcfxdKl0jUI01m1kA25cK341iGnRuY5FdeqnNcjm2b8qLGqJ5WqXSg8eaxH51UBrb8S26rcwXSLhLiMN+OOaxTjtWZQZxRuOMFiR6ZpKKAHbgBjHXrSmRsYBwPSmUDpQA9WwGyeSK+lfh1Ilt8N9MluHWOJITI7t0C89a+aQvtz2Ar1+01CLVPCGl+G47kxabaWoutbuVPCIDxED6k44oAZ4k8UyTI/iEg/aLwG10S2YcpDnmYj+8TwK7zwF4c/4RHwmquofULn97Mf7znoPwFcP4Nto/HXii51ea1aOztSFj3H93boo4jUep65969Pv9Vh0rSrrV77IgtULIAfvAeg9akZ5n8V28m2ttFscvdSHzrgg1554f8Gan4h1tdMtUVHxukdz8qL60/U/ENxquoXOqTSEXV3JwoP3U7AV6l8G7JpJNR1Gb5nO2MMe3HQUxHWeDvBGmeD7MLZx+bcuP3ty4G4n0HoPatPxDtXRLgthSF+U+hrUOMVg+KIZ763gsrdSTM+WPoBTEyLwurzILiTqEC5Peuh7VFaWyWdrHCgGFUD6mpegOaY3scT8VU3eGEfuso/nXFeGLprfR9RKna1q6SI3+82G/Sux+K84Xw7BFnBkl6fSuJ8LoJtL18McL9mB+hGa45ytVR9Jg43y537mB4w1/W9I8R3CQalL9nm/fRYPG09KyF8da8P+X5j9RWr43ha50PQdTK43QfZyR321xJ4JrsU2z5+tTVOo49jpk+IfiBP+XtT9VqeP4ma8nBe3b6x1yNFO7MrI7dPilqw/1lvbN/wCrMfxWuc5m0+Jv904rz+ijmaDlR6TH8U7dv8AXaa491krb0nxpo+rzCJHNtN2808H8a8bzTkODnuKftGCgm9T35SkvKSRN6kMDmhkK9sV49p93K0f7uaRGX+62K7jw/fXdjpkV1fXBu7WdyjqPv2x7Fj6VKxFpWZ11MvbgqsDp8cUmKlKjgo6urDKuOjD1ph9O3Y117q6POknH3SMikxT8UYouTYiIoIp5FBFO4WIsU0ipSKaRRcLDMcUmOaf2poGTQAvFFO2e9FAFBxTe1OY03HFXYBppAKdinBaZI3bShaeFpQtSx2GgU4LTgtOC0rjSEC04LS4xRmgYoFBOKTNBOaBjSaKXFP2UAMApw4pcYpQuaBD1YetPJBpgTinYqRjcc0m2n4pDQA3bRtp1FFwG7aMU+jFFxDCKMU4jmjFFwEAp2KQdacKLjDFNOKlxxUbCi4CcGlLrBFLPJgLFGWJNAFZPi27Fl4UuSrfPMwX6DvVXEzltKTfY3utSON0jtnPZfT8awgDe3bTsNqHovtS29/KdDfTdg2Fw++prcbEx6DJ+lefi6r2R7eV4ZSk5yOl8JaIdf162sVB8pD5krAcBRzg1d+KvjpbqU+G9GfZY252Tsh++w/hHsKfaaj/AMIX8OZ9RjO3UtXYxW4P8MY6t+VeXZLMSWyc5LHqaeGpJK5OaYl1avL0RNY2cl9exW0JG+VwoLHgfWtLUtHudF1OWxu1/eKeo6MPUVQhhYMrKdjD5lceteg4Xxl4V88MP7U05cAHrIK9CEWn5HkuSPOr/PmheyiqmK2buy88kj5ZBxg+vpWfJp88f8O76VzVKcr3RommiurbWBwOPWtmKCeztI9WtI1dQedwyEPrWOUZTypBHtXdfDO/sf7Sm0XWFBsdRQqrH+B+1QtNwscOzM7vI5yzHJ981ZjmZXjZSML09RWh4k0CXw14iuNOuRkRt+6b+8p5BqvDErLtGOe/pVKxEm1sWYrsbwAmFfqR1FbkXim8ssxQvHcKVAG8cpisSKALwxGBV+y09J7iNWI8ssM81qjJ3Z2Hha61bxPZXNpa6jDZamvzI5H+tHoPSuN1b+0I9Qnt9XklNzExDiVs/iPauznis7VotUsvKspLX5Rtb72Ov50viq80Txx4f/tKG4jtdatlwQRzKB2/wpUpe9qjdSny2TOBljkgjR3hkjWQZRnBAb05q7eaLe2NhHd3CoY5AN23nb6c11tvdT6v4cs7L7A97siCBJEw3uAfUdq19G8I6stnLYNZmPTmXKJdsGdM+pHpXQsRFPUiVKS1buedWsjXFrJYNsDE5ikbqD9azZpD5h8xCNo2yIT39a9W0v4P6bOS02sS3CqcqITgfU1W+IPwzW109dV0QSSPAmJ4m5Mi/wB761jOrFu8CoRdtTykWzyXMduCPnOQ2ccV3FvZR2NssEQwoGSw7muM2+dCwxyn3DnmrFnr97ZZRv3yL1V+3vWylcynFvY6twFXgY96ydXsft1qwXh06e9Pg8S2VwAJQ8Tn8qt+ZDNzDMjj2NNtNWMleL2PPpImjdkcYYUgC7Rzz3rrtT0VLz54xtk9u9c1cafcWzHehIHcCuKcGnodUZX3Nq8/0/wTbTBcvayFGPselc1XQaLKsui6np7nG9RMue23msFiNqgdaydyxuKKWjp35oATFOUH/PanwxPLIscKl5HICqvJNenaV8Ko9J099a8aXIt7OFQzWsR+dz2VjjueOKAOH8O+G9R8R38VnpsXMrYMrcKPX8hXYHSjqF9B4F8NSeZaxSCTUrxB/rXHBOf7o6Y9amutUu7TFjpNokWt6n8sNrAPlsID0Hs57n0Nd/4b0DTvhx4Yc3lzFHcSL5l1cHrn0HtSYzYsNP0/QdKXTbQrBp9kuZ5WPX13Hua8d+JPxETxKRpulkppsbcHp5hHf6VU8cfEKbxLjS9KR4NLVvuD787erVFo2h2uj2v2rWrP7ZcysEgsVOWZiOAfahAchH5k0iRwoWcsAiqMkn0r6Y8BaKfDfhS0s5Rm5ceZNk8hjyAa4XwZ8PYrO9j1PUZkhvmPmQwIMrAewPvXpO23aUGK5aSdzhlQ96BGwrk9v1pcAsGxyO9U4rNkQ7ncMfU1ZtlZIsM240AS4/WkPTNOzSdaYHm3xaWRhppLfug7cevFc54SRbiw1y0PytLbgj14r1HxRoMGu6TLDMuHQF0cdQRXkGgXTaX4iiaTO0sYZQe4PArlqxtNM+mwFVVMHKkt0WTZLrvwtms1Tdd2cplhUdT6/pXlJ55NexaYDpOq63YplhF8w9Nh6/pXmviXT003WZVg/wCPWYeZCf8AZJrogzycwgvbOcdmYtFLigitLHniUUUUmgCiiloSAntbgwSq3vyK7nw9qUcErxSYa0vQI5c/zP0rgBWzo10Mtby5Ofun0rnrQvqj1ctrrn9lPZnp+izPp99Lol42fLG+2fs6dsVsFcD264rj7W7S+0cebN5WoacfMikP8a/3a6y0uk1CxhuoxxMoY/XvW+Gq86sZZlhJU5c1h2KTFPIxTetdZ4400hFOIoIoAjIppFSEU0imAzHFNxzUmOKbjmmAYop+KKAMxlFLjApzClAqhDQKXFOC0u2i4WGgU4LTgtOC0hoaFpwUUvSm7qQCkUzvT+tJigBtGKdijFMBQKk7U0CndqAExmnAUi04GpAcBxS7abzRzQMMUEZpaKAECUbaeKKB2GbaNp9qfRgetAWGY9aMCpMDFNJFAiPFOBxRijFAC7qQkGkxThjgHrmgB0agON3TqfpWNfJDqfge5uJUDLI0vlH02GrWsXpsdC1C5H31hYIfQ1VnmWw+H+hWoZcXNpO7k/3mrOcrFxjdnmttDstockEtk8Vo2Vq15eW9qv3ppVT8CcGm3lmbG6jtt4cLErZHqRVvTZ1sTNfv0t4iFP8AtEcV5tT36h9PhrU8NzdhvxD1VL/xEtnAf9E02IWqAdMrwTXMxRZ644pAWnkaSViWkbLE9SauQx46jvXr0qdopHzNWd7skij6VraLqjaLqaXYBMecSr6r7VQUACnc8EdR0r0ORcljjlLU3vGOn2tnqUNzaTrIl7GLgoOsee1YO7HfFKDnGX5UcMx+8PSo/OX7qgsx6BRmqjGKjZgpS6DiASCQPqRSCJAyssYypyD6GtbTvCmv6qR9k0ucoed7jC11WnfBvV7kq2oX0ECHqkeS3+FYTnRW5oudnB3Mr3knm3cpmdRjc55FQKIQQI1ZyeygmvbtP+D+g2pX7Z9ovSOcSHA/SrV/rHgrwUpUraRzIP8AVRLueuaWJp7RiaqnN9Tx2w8K65qmTY6TcOP7zcL+tdBD8MNbIQXq7BNwgjP3P96tO9+O6rPjTtKBiB+9KcHH4V0ll8XdGutPS4MVx5xGGiUZwa5p4q3Sx0UsPUm0o6sqaZ8GdLhVW1K9urmTHzIGwldTp3gfw/pmPs+mQ7h/EwyTXM3PxYiLYtdOfb6ydzWTP8UNZlJENtbw56Yya5XiF3PRjk2Knq429T1hYUUYVFUewxSts2EORjGDk4rxt/FXii+5N4YkPUrgAVSl1LJ3ajqlzev/AM8ozgUnWitzo/sSt1aPXrK103S0kFvIAGPPOcD0GO1LP4g023iczXKBVHIPevM7Hx8NOspILTT0QHOGY5wfWs7SdH1nxtetJuYQZ+eZ+FH0qHXT+ASyjkbnXfKjF8fWOlQa0LzQHEttcjc8Y/5Zt7e1cjLL5j7jtU9wvSvcYvhDAMGfUZuOu0Dms7Xfg3p9pZi6s7i5do+ZFOOR612U6rW552Kp0b/upHjRKnHzDFIJWi5jdlPqDXcHwxpq5/dM3+8aQaLYxjC2y5HrW+u5xOUdjj49WvkGFnc/Wp49R1GQY27wfUV0j2UUZ+WGID6VE0B7AY9qHcnmRiRwXEhPmEKWBHy/yrJnhaCQow+hrqnjH0Iqtd2kdxGQ/Ud6ykioyOc2YXPr0xXe/C7w9oXiC9uo9VSSSaBA6R7sK9cotqbVSrx5J5OQfnX/AGa6XQJree2ju9IkW21zTj5sUQOFuI+6/XFYs0PQNR8N2Gha1HPptglvZ3iRxkKOVZWzx7mj4n6vMdTsNItImnm/14tk5MrHhQfoeall+J/haTRIrm7LPK+GezA+aOQeledeJfiXdatrD3+nW62Upj8pZhzJtqUM6+zvdI+GNtPeatMuo+K7kbpY0O7yif4c9h615/qmsa7421FJb/znhZiVSMEIv0rGto7q4mW4hV5JA2WkY559816BPdi0trW2t71rqe5AJUAfuR3p7DM7RPB+oW4DQwwxysDvmnOREP8AGuy0HR7OxTNtKbiRFPn6nP8AdRe6pWNc6pp088enW8rRW2Q91cE8vjqtV9R8Ryao0djawGLTwwWG1j6yH3otcR0+o+IZ7nTbS28NxYeZ9pYD52GeWb2rr/DWkPpUZa7mE97JgyN2HsK4/S7hvD92qLbNe3rgGXyhxAv9yu603UbfUIfNhJDDh4z1U07AbWBxRxSKcqDS0CA0YzRRQAyXAicnoFNfP1xNv8QO2SU+2f8As1e+Xz+XY3DnoImP6V88qfMvxj+Kbd+tcuIlax9DkUOb2noddDdJcfES4igA8h4mSU9zha4TxBbS3mmxXRVfKtpDCSvYdq63w+4HibVrgjiKEt+JFO0TSf7T+GGvErmTzNyk9jkU6MryQY6MVSl5L8TyZoyjFWOCPXvTWUjrx7GurXw/FqjGLz0t7sL8hkPEnsKwdR0q90mYw39u8TdiRkH6GuxM+dKOKCtKqMx+Wphaynnbwe9PcRXFFWxaKPvNijEMR4G40noNPm0RAqFuMGpId8NwhTJfPGKsxW1zdcRx7VrW0zRxbuJpmBdeQDWNSrGMbHo4PAVq1SPLou5fWPcFL8EgZFdl4O8z+yZg2TGr/JnoPpXN6Rpj+ILqSG1mUFMGTJ6A139taxWNlFaw8rEMZHc1hg6UubmPXzvF0PYKjHWQMtN24qUimkV6x8gRkUhp5FIRQBHikIp+OaQigCPFAHNOxQBzQIMCil20UAZ7ClxxSsMUDmr0GApQKUCnAcCpABSg0maTIPSgBzHpTDQaUUwExRSmjpQAlGKdijFK4CrShaUU/bQO40CnAUuKQg0hXA0UnTrSigLi5peKBz7UEYpDHDFIRzQCKXigBOlNJqTGaYy4oGMJpC1KeaTFVYQm6jdSYoIpAPBoIJ5FNFOJOAKBXOc8fSOvhJwnAaVQ2PStDXbNn8IaHewx747GJDMD0wRUuu2K6nod5bMMsUJjH+12rnPG2qXllYWWjrMyxy28ZuIx0yowMVhV0VzpoLmmkc00ouruacDbvckL6DtS3cVzcQLa2sTyhzuISm2yYAOOvar6EoQyEq3Yg15rq8k72PrYYN1sPyXsUoPC+uSYMej3TD/dq/D4Q8RPjGhXn4rxVy31nUrbiG+njx0wavReOPEdrxHqkhH+0oNdkMzt0PMq8PVUrxlcqQ+APFUxA/sp0B7vxWzafCHxDcEG4ntLcem4kimRfEvxHH965ST/AHkAqZvil4gIwDCD64rR5o2jk/sGtfodDpvwXsIyH1S+uLtv7gAC11lloPh3w3HmC1tbUAcs3P8AOvILzxz4ivlKy6k6of4UUAVkTXE905a5uJpWPdnNc1THtnZRyCo37zSPbb/4geH9P4W7E7DjbAM1zWofFpjldOsc+jy8V5uiKOiipVFccsVJntYfh+hHWepZ8U/EXxFe7rb7T5ETDkQ8Z/GuGkSSTdK7+Y3ck5Ndg8KycMAfwoj0a0kyJIhED1INb06+mpw4zIp3bg9Oxw/pxWno9+LWUpJ/q3PNVr+Bbe7kjU7lU8Gq5AXBBB/pXQ/fR4NOc8LWvF6o7pTCFDbvM3cjFPFwy8Qoq56GuNt9UuLePy424PrTxe3d1MkJnC72xknAXPcn0rmeGuz6NcQU1BKSuzp5rhpMmeXvhgTirWmaNqOsxPJpdq10iNtLDtXOatpX9nacjNcl7kOfMAOQV7MPY12HwS1EW3iC8juL9beBogRE7YEjZ7U1hU9zlnxBO3uQsdH4d+GN1cTiXXdqwLyIVPX3Nem2lpDZW0cFtGI4kGAoGKyL7xtoOn6kLG5v1W4PXHIH1NbkciSoroQ6sMhh0NdFOmoHi4rG1MS/3jJaRjx0z60tIas5jzTxh4ffTLv7TbQGS1mOTgfdPpXKMQwyvzDux7V7o8SyLtZQy/3SOK5LXPANtfs89g3kTk52fwGtoVLbmMqfVHl8oHXGR6+tU5C3PA9gKbruux6Pfz2YRbi4hbY+PuD6VV03XYNQkEckflzMcL6E+lac8WTyNEjxkAs3Cgck9qjisby7dI7SwmmdiNkYU4f/AOtXo/hn4cNfBLzXFZIfvJB0Y+7V6VDbRQRokUSIEG1cL0FZTnroXGPU50+FLHxB4WtLTW9PjjkSIDCDDRtjnBrzzxb8HItG0aW/0W6uZpojuaN8AlfbFe1dOaSVVaJ1fGxlIbPp3rJu5qfIM0SoCVUjtzVetfxEII9e1CKzcSQJcOEYdCuayDwcUDLunXEkUu1H2evvXRwyRTgtEwVj/DXHZq5aXHlkhm2j170ho6MW7J8qj5ielXbTUl0S6jljTdeHiHvtPrWLa6ncRSeVIQ6MMh609IhM06TyKZJ5DyAPuj0FVuTsei+DFcbnmjO5/mZj3NdiLRTdR3MPyPnDj1FcvoUdwQofYgzwM12iRTkKVWLcPepGaKfcFOqCNp9oDIuR6U/zCOqH8KYiQ00DGeetMMoxypFCsCpK/MOmRRcGluZ/iK4W18O30pOAIiMn3rw/w7bG91aFcZWJWkY+mB3rvvivr5tbCLSYWGZvmnPcKK5G0T+wvBdxfN8t1qh8qAdwg53fjXJX1kfQ5a5UcO31lsR6dPs8O67fnrc4iQ+pzzXceFdMZPhfcRgbXuYmcVwV9C0OjaVpEQPm3Di4dR23cc17fplgljo8Fjj5UjCYqqKM8ymlTSe7Z8z3Wl6nDZIzsJYgTh0PIqTS/Ft3ZxGw1OJL2wIwY5hyvuD1zXU61CNA8VXulu3+jlt0JPYH1rMv9KtrzO+IK4/jHep+scr98qOUxxFNVMOc3dzWguHNkgWFuUDdqrmWabARCfStqLw/DC+6Q5XtmrghjhbYoywGTgdKc8WvsoVDIZO8qzsYcOjTzDdK+0HtWnbaRbwLuYA46s/SnrqMVxeJaW7xK7HHmSnCrUeqpbW5KyTSXUo6heIz9DUpVqu+xvKpgMErQXNILrVrW1XZCFZvUdBWFd6rcXR+Zzt9qjYxiVjLHhT/AAj+GrEVnbXC5hlOf7p610Qw6ieVis0q19FoiCx1C5027S6s5mimQ5BBr2Hwt4mi8S6cXGEu4secnr7143NEsZIU/Mp6mum+G07p4sjjTO2RG3e+BXTFpaHmz13PWGBPWkIp2SOtJitUZDCKQinGgj2pt2BK5HSEU88U01KY7DDnpSAetOZgvJ6VUlvUQ9atK5DaLeBRWf8A2ivrRT5WTdFh7f3qHbtNKd4P+sJ/Cg57g1nBSW50Ts9hKM1G1wEODG5/CnLKrrnay/UVfMrkctkKSaQUZ5pwqhCUopaTB7Um7AlcUDvQOTnsPSl5xzShmj+Ze3bFTzKw7WYoXPY04LThdO3DD9KXgcmpTuNqwgWlpeT92jBxVXCwlKBmlVd5xmpliAUmplJIahcgZaToDUzKO9RttANCYmhiyRjh3IP0p25D9x939KgYg9qVTjNFne4XViXNG6mbhSg81diSUNTutRgDvUiipZSI2TmmEVYK+lRuMUJiaIefSg5Ip+efan4BHAqriWpB0oB5p7qAM5/Cmdeh/Ki4WvsPHJHvXmfi+aSfxbcb23eWFVfpivTArKMhePevPfHljLZ64t1sIhmQYftmsMRtY6sI+WonIzYDhferXOKyDqSRKPLXLVVe/uJ5AN+CTgAV5vsJSZ9M81pUY8q1OiOcdKbn86s6HoUd48UV3eNbuQS0jfd9qm17QL3w+8QkdLqGYbkkTrj6USwrSLo5zRqWT0M8mgVCs6nJZHUD1FONxDGMmUEe3esHTkj0FiqTV+YmFPAqGOaJxgOpPsamA4zUSi1udVOcJ6p3JFJFODGmA+lKSRWdjsT03JRMydCKUzO4IbnNQ596crhSWI4HNVFu5NRxs2zmtZ2/bGA4rNx6Vcuy1xfPsGWY8CpLmxFlEjl0dj95c8j6V69PSJ+c4qSnXk13M/HOKdnjnIz39a6zwj4ah8R61FDKxigZcsy84x1qlqOgiS9u49JHnxW8rJtH3sDvitLHNsY0tzNNsMkpYqgRc/3R2qNd6MNpZSDkY4NSRqEfZICrKecirIj3cY5PQ+tBLb6mz4S8YPoF6y6hbR39jMcTxyqCw9wx5r6K0d7WTSrWXTH3WbruiwcjHpmvleS3ZOOd3bPeuw8AfEe48I+ZZXcbXOnOc7CeYj6j/CpaKi7n0QJgfvcVICCODXB2XxU8O3hCyyS27H++nH51vW2v6XfANp2rW28j7rOOfr6UJO1xuLRv1HM/lQySH+BCaxpPEy2Uoj1CB13dJYRvT8T2rVtrm3vYfMt5UnjPUqQRSumJproeTwTeGta0KeQWscmpGdmkOOQQeK8/8RIkJQ2EDqUkDbgnQ16B4s8D+IdGmlk8Lsj2EknmeQqDejHqfU1Q8M+B/FOvXkT+ICbTTY5BLIrIFeQjtj3oHdWPYNFkkm0WxlmBEr26Fs+uKvcAVEXitLYMzJFDGoAZmwFH1rktf8fQWitFprIzDrcSHCL9PWgFFy2On1DVLTS4TLeTLGvZc/MfoK8c+IXxXubpZdL0T9xEwKyy/wARHoPSsTxD43MjymKVri7fIM79B/uiuQt4tzG7uiduc4buaLMpxsUyjIeQVbGR71EalmlMsjN6nNRHmmQwoopR9KBFiG4ZE2FsDtXq3gGLS/FmktZL/ompW3KuP4xXlMNnLPA8sYyqfeHcD1rpPAOppofim3uXk2RsNpY+hpXsWouWyPY9Ktby0la1v4dzIcLIO9dVblo4wGBLetQW00d6omhdJFIyCpzVwEnAwRRdCaa3JUkx61LkcdahGB1wD6U8lsZA6dqQhxOOoFZWuava+H9Pl1K6OEQY2j+I9sVBrPimw0eRLdpllvZDtSBDk5Pc+gFcfren3Pi2636xM9roGn5kkkxgzN3Ue3oaUma0qV2nPY5K0Sfxz4juNQvnMdgh8y4nbhUQchB71Jc3g8VeKYyq+Xp1qv7lB91Y15BP1qpqetvrkiaboVt5OmQsfJt0/i/2pD/jU0FtLLC2g6IftGoXeDeTIPkRf7oPYCuV6ux9BF8keeXRaG54Hs28TeMp9XlUiztTmMEcE9Av4da9XvLmKytpLm4kWKCIbpHY4wBWT4Y8PpoGjQ2ULDcOZZMffc9TXlXxd8VzXWsjQbWQiztCPPUH78mehNdNOLSPExVb21VN7Ix/Eup/8JDr91qSArE7fu89do6VJb3Hn28aqHlnX5GRRk59a2dL8ENKscuqT7VIDeTH/jXU2tja6coW0gSMD2y351h9WlVleR7P9rUsHBKlqzmLDwnf3QEl4y2cJ/hHzO34dq6fS9G07S8Lb26kN8ru3zMR75qxuLHJJJ96crdOOR0rtp4aFPVI8TEZpiMQ25Oy7HhXirSxo/iO8tFOQj5Uj0PNTaReR3eLO7ZUJGFdu1bvxZjRPEUDqAHeHLkdzXCZpPc5r82rNa/torad1ikFw4+80fIH1rLZyW3D5fpV2HUbmysJrW3kURXWPMG0E8e9Jo81pBq9rJfRebbI48xPUUC2NnR/Aeta3bJdIiRQP0eVsHHqB3ru/CnglfDNy93LcCed12rgcL611UTR3MMU1mRJAUBRYzwF7Cgnrg89x/drSKRLbZHwDzSEAdKUgUlamY00pzSHrTXljFSy0DdOary3Cop5qOe7wCF5rKnkkkPpVRRLZLc3pJIUk+1UzHNNyFNTwxBPmbrUsl0RhV4qr22J5UU/sk/9yirPnN/eNFHPIOWJr7FB5Zfzpr7exB+lNmdem2oM8YHFTFmkhzMCeuKb9XzTSQp5GakWVCMFAPepk7DSuiPIzxTxT444XJLSAUTRxIAUfJo9rqDpjaTOKEy2c1IEHTNauSI5WM3+pFOE6jjFSCND+HqKCiYOF5rCWuxrFW3HhlYcAA0xlb1qLzGU4xUqyu3YUk7DaJIlIqR1wtEZPUilmk2jHFNsSjcjiOH4qUyOFOMVAsnNPJz0NZN80i+WyELOwyetMKMafginVsjJorMmKTNSu3tUBJz0q3sRYdTlpgpR1ppiJlx36U7zlXjimA4GT0qpNIN/C1MmWjQWTPShhmqsEpHUEfWrW5TUpjZARztHJqG5v7OwTdeXCx+ig/MfwqPxBqJ0rRZLiPAkc7E9jXm0ry3MnmXDl3fncTWFbEKOiPQwOA9t78tjr7vxzaxsy2Nq0r+prEvfGOsq5UosGRnGzkCtHw1fwuwgNnEGiiO+TjdIM+nrVzXdEtr22STzNgdSbVuu7/YPvWV525rnWqVOE3StZnEXHijUpG+e8cn24qjNrF3MgSSd5FByFc5FSXWnMu7apBU7SD1BrMdCjYYEGqi1LqcuIVSno1oX41s7uBVXMN3k7mJ+Vv8ACqbo8E2043qc5Heo+RVi22zsUkbBI4Y1pujh0Wp0jm5uPDzX9qd0RASUjkoR/Kr0etSzaPaW92x+zxnPm9WUe3rWZ4R8QReG9WZr2D7Tps6mK5g/vD1HuK0rjTG+1Itt/wAgi5ZmsbjHCjrtc9jVJ9yGlI1vK8D/ANmmSXWLxrp8LtNvhhnj7tUD4T0SO6mtTdm4VTkXMTZ4PqOxrkrpmS6a3ghYy5OXblj9D6Va0yCW3uooRKVe46qD91fU1OnYu7ta5a1jS7fTvMl02OaSyibY80vy+Yf9mptM0/7XZS3UU7oka5bjIH1NSaboMviXV5NLt72RoI2xEGb5TXolj8MlsNCe2uL/AMuMn5sD7596pwjLoOGIqU37sjzdIr4WQumgDwjvnBqJNRhYch0PpjNb+oTJp9g1jvFyQ/7tUODj3rCuLS41BgZwluijgL1rjq0qXex9BgsXmM1pG5NHKrEbf1qG/nMVqQDy3FWIrdbdcBi5xjJqhq/GzHNckEueyPdxM6kcI5S3K326ys7T9zDvvD1dugrId2lcvIxJPU0ORls9ajPQc16SWh8JUld3Og8K69Jod+s0dwYmXgDbkPnsavwXDSPe3BdYJp3JxEeCD71x+Pyr0Twzo8HiTwBeCxj3a3p7+YqA/wCsQ+3firuQYkEcesTw2MYVmQ/MxGD+JqPWdGfw/KP3sUtrL02PlkPuO1VIrxY5pI/s80czDaY0B3hvWtbwZc6Jb31wfE0kkYVTjK79x+lCYS1MmNkniKHlSMBx2qtJZvJKFThjwv8AtVb1S+0waq76THKlo3VX7n1x2+lSQ6hpssZSYujfwuB0qiUrFOGdI98V4WDqcfdzVhJYFIMVwUJ7jg0y3leS8uLezCSi9Xy90o5XnrntVW90q7srtrR41kkXk+Sd4H4ir9u9miuVrXob9vq+qW0eINU/dH+F5dwP51PF4l1mznEttfJC+c/u3+U/Va45lK/eGCOMGky3alKpFrYd5LS56lafGbX9PVRqEFpeL6o20/pV6f49ztERb6MqyEcF5sgfpXjxJzxQWJ6ms20LXqdVq/xE1zXLnzNQud0Y+7AnyoB7jvVC6vmvNsnmsYyOUPQVhip1uGW2MYAxnrTg7PUrmaViwghaUPcnEKH7g6tUd9di6mPlIY4hwiZzVdVaRsAEk1r2VmtuFkkC7xyC3QUTld6DtfVmWbcpGWfIb+7UBrR1a9F1NgKAV43L3rPNSSJTgMj6U2rlpbGXEpR/JU4aTbkA0m7IqEHOSiiza208URaFyGkXDL6ii0hDkhvvqfunitSKIKij24PrUos45WBAw/rXHKtrY+lhlbXLKHzHWWp32nN/ol5PFjsHOPyrobT4ieI7ZQovUkA/voCa52XTJ4h5ikOv15quHKN8yke1ZuT6HY8PSbtUgd6nxV14L80cDY77RWfe+OvEOrMVN35KHtGu3j61z9qYZm2yTpEx7t0xVjULhbXT/wDR0fyycCQrw30NLnnL3S1g8JTXtEloFvfPBcMbZ1e/lO1Z53/1Y78mrPiLWr24t7ex1DXTqCQgFooYxGg9ASPvVyyzyyMeAVPbGTXQaLNoVnbiTVYbgyqdxxGShHuK6IaKx5NdwqT9q1ojT0Dw1rPiSNRboul6YT80ij52Ht3Net+GfDmm6DYLBp8WCfvyN95z6k1wMXxV8PW8ICm4cKMKixFQtRp8b7eKVmXTJDGv3fmxurWEO55FbEc/w7Hq2oX0WmaZcXk7qkUEZYk9B6V8sarqEup391fTE77mcyNnrnNdN4w+JWqeLrf7IYls9OJy0SHLP6ZNcssUkq/MAo6BRyRW2xyWue06fPI+k2LyAgvEOe9T+fwBnPv3rzjwt4vl0+RLDVXL2rnEcp6of8K7l2IfIYEEZDL0NaxaIcUzSWWnh89CKpQqW5LcVMZBGpA60nPWxahK2p5f8U/M/wCEq+cHZ5Y2Ejg/SuM6V6p8UBFL4etpHjBnSUKsn+yR0ryrNZsZJGNxxnrxSMpjZlOMjr700ZFKcsck/jQBdsdZ1DTXVrO8ni28gBzj8q9j8KazLruiJcXODcqPnIGM/hXlGiaT/bkNxbQrm6iQvGB1Yd67v4ds1tos4myrq+Oe/tVxZMjs24qN5Qg6iqsl5uPBqN5Cw5qnKwKNx9xebRwc1RMzSt1xQ4OaIxjrimKwp4FQsvsanYZOc8UEqUxnmhNg0im5+bHNNA5qRxSBelbJmQzB9KKl2UU+YDUcKzgbuvtSm3B6VX80LKMjNWvtiAHEeD614kcZPuem8PFlaZCnTmoPJaRucj8amkcuxODQk6x/w5roWMXUyeHdxFtV4zT/ALKoPy1PFIk3VcVKWhXg01iYPUPYSK6xlTwRTXM2/wCRl/EVPtVj8tHlg8dDWntoyI9k0wRpWXD7fwFOVMcetL5YUfeqB5Np61amuhLgwnjBGRxVWN9knIJqwJgeDTflZuoFS5otIm847OKhFwxb5hVpYRt6iomhIY7Rms5zTHGLQglR8gdamhQFSSarx27bySMVcVNqYqISVy5J2I34GRUTMfWnspOQM0wRueimur2iOflYzceppnmZJ2ipirNxgUfZ2A4FHtEHINXnrSqOackRJ5pJR5Z44+tV7VWI5GBkwcFMj60393IeYyD2I5piHecZJY9hUWoapp2iQGS+uNm3pEp+ZvwrFyuzRRSWpaWPJ2orMap3+r6fpCbr+7SM/wBxfmb8q4XXPiJqF/uh01fslueAV++fxrlSklxIZJpGdz1Zjk1fM1sS0jtNc8a22tolja2xWMSbvNduv4VniDH17Vz5tzjdH94dBWzpmoLcoIpDiVeme9ceKjKWp9DkuJpx/c1C7AXtLmO4gO2SNsqf8fUV3sEkOrWU0TzpCt2oktiIshZB2A7EmuHAIbkcntW94cuF2tazzCLY3nRu38IHXHvWWFrcrcZ7HoZzgHKkqtH4l+Rk6zZYuTMnzRnClsY+Ydcj61g3mmpcAlRhhXYXV1a3Edwi75ZmJOMcN6N+FYZXseGHWsZVOWd4nXSw8cTSUasTjp4Whk2tkVGDjrXTahYJcxEgfOvT3rm5UMcm30rvpVVNHymPwUsLN9h0crROHK7h7960odZngsZbW2uXW3l5a3flQfUelZyHfF5bcDs1Q4Kkg1qee9Ua1vrs0EiuERpMYLsMnFSadqa22sreTp58JP7xRwcH0rFFORivKnB9RTuDSsd7pU9rHPc3FpcbIIgHhlHDbs9MVf1nxdfayw8y4ZF27dqcCvOYLl4CCp6HI9KvR62V+8maxq87Vos9PL5YWD5qy1OgXan3F68kk5J/GnbiaxU12MDmM/nTn8QxhMRx/N6muF4ebep9RDN8JCNos1yAnzOdq+prH1W/tzEY4xuf+9WZdajPcuS0hx/dqqTuHcGuilhuXVni4/O3Wi6dNaCNzye9NxS0V1+R896hkkYrT0HX73w5fpeWEhSRT+B+tZdSQxyTypFGpd2OFUDrTA9a1PV7HT307xnb2ETXWpwGJlb7kU2PmfHvXnMDz381wGtDeHJeQxrgr759K6eEm7+EF9ZzLifS7wOVYcqHIFcbZ3txZtIttcSQecuyTYfvD0pMcVdkkOlyXdtNcW7xiKPgq8gDfQDvS22jXFy20LjHrU9y2nPFaxWcLx3MY/fO5wHP07Vq2s9xHcq1uvmySrkAdAaxqTcVoelgsLTqStUf3Eei2C2l60U6ZLfxf/WqDVPtGi6l5tsxjMgwT61JA0sPiIrdyN5gPHHG6t7W9Pgv4RlgXByp9R6VndqSd9z0Z0qdXCTjFW5Tg5ndpnkZg7E5LYrZ8PQQ+YJ723EkAOCvTP41FpWlC61GWN/uI2Me9ei6H4ektvPmu9OZkWEtBGekv/16utU15YnHgsLBQ9tVenY5m/8ADml3lhLeW8y2rj7kH3ix+tcufDuqNC00dhcSQgEmRIyVwOvNeieIPDy2NvFqVjG32KbGUYfNC3cGtz4Z620V/Lo9w++3lUtHu6D1GPes6dWSqcskdOLwFKeG9vQfqeG7T1q1aWU11HiNRtzySele3+Lvg9Za1K95oriyuW5aMj5HPsO1ed3Hws8Y2cjBLAuo/iikXB/DNdZ8/exkW9vFZoxAyw/iNUryZpMknj2qe60fXtPZo7mwuhzggxkiqFzDeKm6e3mjUd2jKigTKzNuPoB0pvel/Gj1NAABk4r3L4Yt4el8K/2PdCFrqZi06TAAN9Ca8QjQs6gDLHoK6rREN0QASJIhkeorKpPlPQwWFVdtN2fQ77xD8LZrRnudBbzYM7vIY8r9D3rh3SW2uDFKrRSr1Vxiux8PfEe+0iVYL9WuLYcZY5cfjXV30vhbxva/vHjW4x8rcK6n61zShCfwbns08RicG+SrG8e55bb3QBxKuc0+RtM2hirvJ/dxW5f/AA61mCQHTvLvoCfldCASPeqR8Da6iyXF3afZbaFd0kjuOB3rJwlE9J47Dzj8RBpuu2OmuFGjW91b5yVnAJz9apa5rtxrt6JWijgto+IbeMYVBVchGzsO5AeD61XdMNuQn6Ue0ewTwkE1UWpKiRO24KEkHpTNZnuWt1t4lPkjlyD96ljJkYAfeJrYW2SOLbJg8ZOaISady6mEjiKXs1ocX/CAPlY/wmkLleGGW7V082l297MkSIfMkYKoXrz3rW1f4df2DpEuoQXCaisfDoMKYz3zXbCpz6nyuNyx4afLc4Aj5u+T1JqwHABAGAevqapSTvJcBmAAJ6AdKssDu9q23PJkuVkrKkqMrchq63wTrTSD+ybt9xUZicnn6VxfzL+FPgvJLa6iuohiWJgw96E7Bue0wxsFPFOZMgZ6+nqKSxuUv9PguomG2ZBipGXnnHPf0rGVVJnVCF4nIfEm3kk8N27xgsiS5YAdOOteWY/KvoZreC8sZra6w1vKpRlxzj2rxDxJoUvh/WZrOT5kB3Rt2ZT0qoVFIzlBoyuNue1WNM0641W/isrRd0spwP8AGpdW0W60eaJLtNvnRrIjDoQRmun+GVkX1ia9wSLdNq/VquUrK5MY6nUz/DqxjtLdrC7msr+KMLJMhOGPfgetT6fpiaNYizidpBuLO7nlmPU10IZinK1QmXLHioo1bmlSmuhVAxjHengkHJ5qwLbcoycUj24XkHNauaJjB2KhO5qlWJAnzGo5YXP3RimMjIvztVKVyOVoHZc4ApCAOgJqPcOxqWNx0Jq72I5WyMxk49KULtIzU5C9MHJpTHkDAp+0F7MhyvrRUvl/7FFHtEHIy68CKeCpNII2bsAPeqSv8xK7j+FSedOIz8hIr59WPWsTyNGo56+1Vt8ZOeBmmATSqdzKoqldReUoJkJI64qlZAaccu08DP41OCjjL4BrCt7nB4V296vx3YK4aMfjSavsBpRtGmcOOae8yBPmAPvWaku7O0KPSpHDFBk80K66ksml/efcD1nTzPbyZZTT5NRlgbYoyKo3d3Jcv8wIxWiqSQlFMla/yOFohuN74YheazmY59achXI3gj3p8zCyR0AlGAvmVMswH3TmsxJowAQwyPUVC9583zN/3zUc8itDaFx83zZpzSDaMMc/Ws22kMgyrgj3qWUmP5pGAFTzyQtC15uDyT+FTBjsJSbt0NZK3ke772T6VMs6nuKr2khWiPmvHib1+lOg1APkPkVAcSZAGTTGhcqTGOR61SnIVkXZb1Y03KRn3rMmurmTLNIixryxfjA+tU9UvU0y2NxeuFX+Ed2P0rgNa8S3WsHy2Pl24PEa/wBa3pKcjKcoo6bV/Hq2itb6OoeTo07jofauIuLi4v7gz3MrzSueWY5qNFzx0HvU6KBwvHvXYo8qOaUrhFFhsipyMUJwKUcmqIHqMkEdqWa3Vj5sT7ZBzSbwvIPPpTGck8d6T1HFuLujU0nX445Vi1FCU6bh1ropJdLmJNq5eI8gN1rh5RGQPNO0+tRx3c1qT5Dsy+oHFclXCqWx7mDzidPSrqjt1uY4mJjYg4xn29Kry7JDletYtnq5n2xuvznoc1cM0cpMZkAYcHaa43h5RZ9NTzChUXNB69iZyF6kce9c/q8KLNujIOfQ1oy6bHOPlmYfU5zVKXQ3GSkm7FdNBRg9zysz+sYiNlT0Mnedu3Jx6U3OTyakmiaJirjkUzpXcnc+VknF8sjTg8MazdRJJb6ZcyRv91lQkGtS2+Gviu5AMejTqD3cgf1pND+IPiTQ41gsr+R4uixONwH0FdnN498VW9rC9zdRxzy9IiO1JuxO5jWnwV8TTgecsEAP95wf5VoL8CNY25a+t8+gBpknxL8XR53Isi+qimw/GTX4zh4UY/7Qppc2xXKW1+BeoCPLXkZf0pg+CGpDrIjfRhUsfxv1hOH0yB/fmrK/HO+AG/Rl/BjVeykhblH/AIUtqGMbOfUSCoLj4K6ssTtCNzhSVUuOTW0PjrPjnRTn/eprfHK5bO3SlX6npSUGVyykrHBP8OfEcUxjksNjj+84xUsPwy8STxyulkD5QycMK6i8+L99qCFW0+0GP4mHNZn/AAsbW1jYW9xFbo/BCLzWqp3Qeza3LEPwR1ue3hk+020W9QxD9QT2ptloVj4Isr28vbmC61xXMNtCnKxdi59/Ssa/8V6vcRFp9VuXHRULcVmRHCktvkkbl2IJLVVOir+8xO66G7orSN4e8XJIzMZIInZmOSTuzmuRsreW8mRIEG8HO6uz0CzuJ9A8TmCGR5Wt4gqMMEjPXntWDb25sbdVGVlP3j6VFRJOyJTcjNurWf8AtAwy/NM7dScZres4ZbKVUMgEsfGUOcfjUMhW7QK0cfnEYEjioreG700OZ9ixD1P365a8LrQ9LK8RToVL1DRvi/2qCUum/pjHLe5o1CZ0tcoSNhz1xWZ/bAluo1VUjYnaHcZ203xDFqWk6g1jqSrvXDDuCCMg1zxoyumz1MRmOHUZwj9oNKvjHqoZSQrHJPvXeReNNQgaEXEnmW8TAgD7wrz7T0BnWVyqBf4R3robJBf6paWj7UDSDdKTgKvvTqxftPdDL/ZPDNVVd9D0eTUUvNYOn3YHlXkY2YHUEck+4rkr/wCx6LrsUumStKlvKCmeoI65rW1vRtXmvW1WxlhNvG6RwMv8GB1+lZPjJoBqjfZ2QymJftJQYBbHUVNWUmr9TfBRp8/IndNO6PbNPuVvbGG4Q/6xAx+tWewrC8J7otEso2PWFSB+Fb2a7Yt21Plq0VGo0thGVW+8AfqKr3mnWd9btBdWsM0TdUdAQas0HmmZnLj4d+FlmYjRLRt/XcnA+lcN8R/hbbDThfeGbPbLAT58Cd19QPWvYDnAzzVTftvmiY8Mvy0AeY+DvhRpN14Vt726eZr65j37s4ER9MVz+ueFb/wdqaXbxtJZucNKg4/Edq9ts7UWW+GMt5bMWXJ5H09qkmgSeF4Z4llhk+VlYcEe9ZzgpI68Ni50HdHgV5bB5vk288qy9CP8arrpk2d4BBH8QPNer6v8N7S6G6wk8gjon8Iqpp3w6ngvFe7vFeEfwAda5fYSTPp45xhp0fe3MfwZofiO5czwam1rYoRuMmSXHt6VW+IHiyTUrptHsLg/Y4BtmcH/AFremfSr3xM8RXOlm30LSJ1t4TH+/wBnUf7P415vbkKgUDj9c+9OrKyscmCofWK3tqi06Icg2YXsKm2+vOaQKT2qRRnANcTdz6aENLEmm2m+/B9OcVbunInwRlsnr0ptgjpdq2cN2FLqalZmUcnk49zWjWhMYqM32NnwlCtrMuryQrNGknlhSwJjzwW+grM8W+JrGxW70fw88lxG9w8k8ztncx68+lbl/c2Xhj4dyS29u0l1exiNrgjARu4x1ry1LSBY0zdFd4yDj7w9K7qVOyPi8wxTnWlbYhVMLlxls0/eRyRTzYSMCYblGHZe9Vp1uLc4mTj1FdGx5LvImMoJ5FQyg/eU1F5gIzmpFYY5NJk7HovgK+M3h0wFuYH2j2HWupjcHndkGvPvh9KUkvY+oI3Yrurd89RivOru0z0aOsDTt3Tyzwc1jeKfDdv4gt7dC4ikiOd5HOO4rUjbZHy1K9yowMBh6msFUlF6FuKZh+LNDj1nw2sMYBubKMeUcclQORVX4c26W/hcu42ySzMDnrxXQG5QucLjI/yKkgjgiXbDGET7wA9T1rX27ceVkeyV7lk3BUYOMVUnmjyf71MupRg4GDWeZstyOlRCbiVOKL0Tl2/iIqXzQnVPzqva3aRkDGTVq6u4Wt8gAMKPaSJ5UMMkbjrg+lVJBG2fnDCsS8v2eYhGwPUVCJnjQkMa1jVaE4I1pggxs60qRsxB3YrGF/MxAxgDua0Ir8NGASM1TrSDkibMMcf8UnIqX7OpOVfrWKspkYfOR+NXU8xRlXJPpmp9vIXs0X/s/wDtCiqHmTe/50UvbsPZopf26w4KmP6CnG9Ey5MzfjUEoik4VgDVSZXjHErH2FLlDmZofa4ol+Yg+9Rz3kDR/Iea5+5S5nP7uTGPWqcjahbcmRWX60KAuZm81+yMAHUZ6cVL50oUMzg/SuSku5p5PnJAHcU0alLHwDIcdKvkJcmdpBqYR9pTJNOuNXjQYbiuUtpr6bDhtufWrs6zGPbLIpPsajlsxqWhtRatayMQGJalmkSQEqxrjnEsMm5ZcfjVmLUZAuHm/Cm4k+1Ntw4bKRs3vmlEtwGGYgB71lPqksYwjgmqMuvXJk2ttAHpQoNidQ60TtnlQKr/AGtUJ8zbWNbXk065ALfQ1I/2deZI5M/WjlsP2h0MDjaDGp55ptwZmPUEemazY9SAjUR8AdAarT3d28hZAuPY1CiN1DUVxDneDk1YhdMfMzCufDXR5aTDN0BPSke6uNpV5doHUim4tgpnQyXLM+1Jgh7VFe6ymiWjT3s/mufuRA8sa5me+TT4zJMzvJ/APWuZvL6a/nMszEnsOwropULkSqk+savda1etcXb5Y/dUdFHpVKNfWmgDNSLXalZHPJ3HDrgVKlRqAp6/nTi+P/rUySbdikMuelQl8AnI9j61o6ZoN7qqGZdtvZr9+5l4Uf1NK5Vig0oVgc/N6jqa2tO8LarqMX2lo1srIcm4uTtUfh1qZdV0bw+Cuj232+9/iuroDah9UH+NZF1qd/rtyJNQuXmI6bjgD6AVLdtRqOpsSJ4X0Ycy3Gs3K9WUbYM/jyaz9U8S/brQWtvp9pZwqeBEvP51sWVravYOLwf6Oi8NjvXJXfki5cW5PlZ+UnriohNTZcoJEOc45Oaekjocg00IxHyqSB3Aq5Z2RfDsMLVyaSLoU51J2gTwXUyIGzwfWrsGo7jhuDULwcAAfSkS3Oa5J8jPoaKxFOyTLcsFtedRtbuazrnRpIgWj+ZR6VeS3ZRnOMVatILi4dgoZIl+87Dgj2pRnKOxWKpUZwbqxtIr+G/s9is1/KBJcL8kasOFPrRcyy3TSTTsc9Sf7tWruG2WEtCNkafeHrXPXuotcZjiysft1b61vG82fNTios6nQtSXULZkYjzk4I9q6Gz0zStbBgvohDNj/Wpw3415jYXsmn3aTx/wnDD1Fd7DcCRYrm3JdHGVPYVq4diFUaYap8PbjSm+0TTj+yupnX7x9gPWsi40bymtfsEn2g3TYjVhwo/2q7BrPU/FF1ZuuqCO1hOGh7j3A9a0vEnhu406xWXQ45LtG4micDPuRW1Nz73Oj2sJL3428/8AgHCw6RqcIkuIILe5iQ7HfIwDVmK+vbT/AF/hqyuNo5dlyGFaOyO4hEEmkXdtaWq7p0TOXb/apkL6ZfzLLDfNpcCchXBOcenvVXm3rE0hOhJfHb5ENv420wErP4SsJAnVY4zlTWpD458K7gbnwmse0ZZwnAHp+NUbq8sz595bGNIY8KyxriWT/aOeKwBq0s6GW6VprIEiIFQFdu2fpTSbfLYxlypNqdzsbDxd4Lub/wC13ui+Sg+WFCuQv1Fd7oj+GNctml0iCzdl5MW3Bz2yK8ALEls43k5YDpVvR55tPv5L+3uHtXtk3eYp7noPxrWrh7Rucka7bsdlrd+1jb6gyQ376y0xQqAPK8sdAAB2rkbu+vfKEl1pLov94rya7/wP4zg8US/Y75o7fUiSw4wsh7mpdVtdZ8S6hJb2tsY7S2fYZXXCn39cVwOTTN7p7nkM17PM3lwxupbtiqUvmbsOzFh619BWXhO30yxuFFstxdSISXYcdP4favNnsYGZvMgTcGIII5zTUgujgwpYg847n0qzdTXV6Va6leVlGAW5OK619NtD9yBR7eppPIVWVNqjHtVJ3F7q3ORVLi3G/wAtivqRxW3pGr6TF5Rv4J5JvMAJLfutnfjrW7w0ZSRQ6HjBHFYupeGo5cy2TbSeTH2FJ009So16kfheh3sPjjw5pmqrLDLJPbeWI0tYuI0B6nB71zS3kGveJlkeRba1nlzhz/CDXCzW81oxEqEds0x5nYAOT7VE6fMzrw+OdG7juz6jsruLZEtq8boi7UKuOlasVyW+8fmHXmvlOx1Sazb5bm5jX1ibkV2/h/4izaSiw+ZPeLIeWlPzD6VVrHG227s98SYH71Sg56dK820r4hafdyeX9qWN/ST+VdJb+II5BuWUFe+DxTuTY6bmqVxHm+hk/CksNSivBtVhuqdgRKGI4FBJIpIbb27GlNNMigDmmCYZOMEDqaVx9LkvbpWD4w8TQeGNIa5chriT5bdPVquazrltomlT390+2KMcf7R9BXgmu+IrzxNqT3l4cIf9TCPuxj296irU5UduBwjrzv0KdzdT393LdXjmS4mO4saWFcc+vFMVefX3qzEO3SvOnK59thqKikh6Jmp0UDoBx60gjLYA49aVnUfIB+NSrI9BaB5jF9wbaR3FaXh+1l1TXY12eaYQZDH2yOmaoxWFzcW8cttHvMkgjUD1967fTNPbw5pTWrXNvaatO/7yYnpGOv6dK1jB/F0PKzPGwpU+WPxHB/E3xO+q6pHZKEjhgRTLHH039xXFzXzySqyoFULtC16F4r8K+HLrdLod7PJeFsuZDlHJ9PevOru3ktLh4JQBIh5xXfTmpLQ+Ene+oxZJImyrEHPOPWtO2uTdKYZAvmdl7Gsjp0PWnhyhUrwR6VbRKdiW5gEL7kyFzjmog+Cc1o6hh4w/Z1DfQ1l0J9RSWp2vw9Maz3bynAK4rtzdW8aZWRc15joVy1rbvtH3jg1tLeTtjCMa4K8bzudVOdkdY2rD7u9cetRtqUQBJmGa5SS/kTIaNlJ7moGv9/y+YoPuKy9mzT2h2EerBmAUhs1orqDiMZX9K4GC8liYGOVSB1xW3a686qN4LfSlKFhqojUub9GPzGRW9qiS9Qkcn6mq7eJ4g+ZIl/Gnx61ZyncLdDnualItyRcE427gM1Ml3bvHiVQCPWsyfXLNUKlBGfas03dsSW+1qM9mNNRM5TSL2pXdrGxeJUqgl+7LlduPYVUubu2lO0SIfoaSKeJQBEwGK05bEe0LjySSDjOfYUscnlYLmqbXdzvzG9NL3DZeeRcUWDnN2LULbaC3arQ1q0XGxHJrjnv1QbQoPvUUmrNHgrkYp+zbF7Q7j+3Iv+eD0Vwn/CQv/foo9iw9qeuf8IFCrcX7E/Sn/wDCDW//AC0vH/Ct6WX+51pQflBYnJrq9mjLmZgf8INp5HFxOT+FRN8O9NmXmSYn1zXScj7pJFKJcDAVjRyIV2cv/wAK60tWGZbgDvjFSr8P9HAIWW4APc4rojK57bR705Bn/lpT5QuzlZPhrpso/wCP+4AHbA4qu/wo04tn+1L1R6gCuzwf9mjzWXqOKFBBzHFf8Kp0zvql2R6kCj/hVGlEf8hK5/IV22UccmkwoPC8UOKJZxT/AAn04DK6ndbu3Apq/C+xQ/NfTOPcCu4AUfw0wnB4TIo5QucaPhlp2D++kx6k1J/wrawAx9uuR/u4rrdy91NO+UfczS9mh3OQ/wCFZ6cRzfXg98CkPw209TxfXZ+uK6xnP8T8VGzq3G80/ZoTkc2Ph5YBcfarkkntjim3HhDR9Ms5r27vZltYF3ENjLEdq6JYyXAV3ZiflAryb4neJvt96NIs5GNpaH94f77/AP1qFTTDmOR1nUf7Sv3lTIhDERKf7tZ5pKK3WisQKDUi1GKcCePUUxMeWIPHWkUGRgsaku1LDFJcSrHECWNdbJ4fvvD/AIcGqQxA7yN0zD5ox7D0NTKVtioxKdroa6Xax3uqW7zNI2I4j/q/qxpt3qt4dUia8k3QJwqIMIo9AK76HXbbxp4HNrJDHDe2q/J2D4FeZTTCdVttrSXAbbtUZyfasYycnqa2SRLqOnp9oaaMARtyqjpT9D06fUbjZaW8krDjKjhfzrSt7eHT7ZU1p98uMraRHJP/AF0PYfSk/tLWdeK2Gi2sqQg4W0tV4z7nrTabVib63NrUYtHsLBINS1Ei46PFZcv9DnisE3+j2eRZ6J5zKPvXbfMPcgcVkX8NzpV3JZXMIiuo+JM8lfaqMW9pMZbk81UIKCBvnaR0ser6hqEJjYQpbNxsVBwKRYQqhRwBUNpLsUI3QdKt5VsHt6VxVZts+ty/C0qdNPqQlPanBVRdzHAp0jiFct1PAA6mnlEtHWS8USXJGY7dTwvu3vRTg5FYvFQw67sm0qC21SST7RciGCIfcX7zHtWxrHiJL/SobO7t4oWsxiKWMY+UdmrjtRk8ucTxzYvGOWVRxj3qne6lcX6gOoVBwdvf610+xt1PmcRjKlZ3kN1DUpL5sfdjHQDvSaRpN1repRWFjGZLiXO0fQZ/pVR/vDtivSfhVYQabFe+JdRnS2toR5cLucEt3xW6SRxttu55vNE8EzxyqVkQlWB7Gui8LX4YPYzN8p+ePPr6U3xvrOm65r8l3pcJiRx87EY8xvUisCCZoJklQ8od1O4j0zS757G+Vvu7jlh2U16dpWoedErK/J/iHQ15FHcC8s4rhOS4zXW+FtUO0RHqKlpLYd2ejLKGHzAMpGGG0YP1rlPEXgl7rfdaO6R3B6xSD5GHoK3rebKiriyUnKVtGVTfK72PB9dgvVb7FqNokLqc7SMb8fTtWXd3LypDA0KwQwZCRR9MnvXvXifSYNZ0G5jmjBkijLxtjnIHrXg98AFTeMsDtNbUa0lUjF63O6rQo18PKrFWaKbHYCT0HU0/VXax0iGy3AzXH72UY5C/w1LYxLNchpzm3twZJD246fnWJqF49/fS3Dty5OM9h2FdmJqaWPHpQ1II5nhlSWFyrqQVYHBBr6R+FviW78TeFRPfpia3fyTIB/rQB1+teD+E/DVx4r12DT7ZSqk7pn7Inc19PaVpdpo2lwWNkmyCBQqep+vqa4DctFFA+5nHYda868WeCZ0unvNMQzRyn5oV6qa9DnuIbVA9xKsSE4BY4/Cof7WsAkj/AGyIJH95icBaVhnik2m3MUDXEtuyRpJ5OSP4utUXgDKTnpXsmtXWh6loU6XF/bRwMuRLkYHvXi11r+lW8rQrcedtO0PGMgikJ67jhHJGRzkelPWQZAYbTWcfEdrLOsNtExZjjLCr9zLHbQmW5YJGvLEdT7CqTER6jp6X9m0e0bgMhq4Rl2sw67Tiuy1SaRdPj+z7xPdcJGeoX39KwvED6cZ4Y9PiCFEAmKnIL98UXBGfbQrOGTcRJ/CPWoWUoxHpwaRuDwfypKBkyTyIMA5Wr9pr93aMphmeLb0Cng1lc0UrDudfp3j3UbGUSC4O8dzXU2nxhuTMq3kpKY5YCvKhE7DIRiPXFBjccFSPqKdh8x7jF8WNJCZe4fPpiln+MehovEF1MeoVABk++a8MKsv3lIHuKfCMvUtaFQ96SR3HiLxhqHi6dHugsFohzHbR/d+p96oRJ0zx71WskMgUAHitaK1IIJ6V51WTbPtctw0YUxiQZwOhParSwpGAGHI70uABgLUbyEcZqEtD1EhS+3IXrUbMApLHAHeo2JBzV3R7RtS1S2twu8FwzL/sjrSiuZ2LnUUINs3HvLPQvBNjeXLNHc/aRKkS9XAOa4jU/GJ1DW7q+mgLCdiQhPQdqX4ga6da8TShBtgtR5MadOnBrlzjuDXpxh7tmfnmLxLq1HLzNi78STz2kdtCoijRtwK9SayppnuHeSV8yHqTTDhvXIptVGCitDklJyd2HcU5h8wFJ1zyKns7c3FyiDjnmqdkKKLV4NtpEvfYKzSK0NUlDT7V4VfStXwF4dk8S+LLS2Vd0MZ82cnoFFTHRFTPVvC/gPTrXw1YfbLUPeOm+TPvzW0vhPSF5S1wa2zZ3B4VQBjA/CmrZ3IxwuPrWcopsE3YxJPCWkOf3lrupq+DdBQ5Fkpb1NdA1nOeoH50n2KYdl/OhRQXZz0vg7RpeGtE46Ypq+CtEUf8eh/A10n2WccDb+FL9jnHJC/nQ4JjuzlpPAnh+X/WWWfxNSw+CNBt1xHZgfUmui+xzn+5+dH2OXuV+maFCPYOZnOTeDdFk4a0Qj8aiPgDw7LzJpy59cmupFlL6qPxoNo/94fnRyRFdnLjwB4aXgaYv1yalTwRoMLZTT4/xJroRZSf31/OlNlMejrj60OKAwv+ET0nBH2CID2zTT4S0Yj57GMj6mtw6fcj7rr+Jp62M4HzyL+FHIguc8PBfh88/wBmR/maQ+DPD+4D+y48fjXSfZHH8YIpy2rEj5lzRyoDm/8AhCvD3/QJiorqPsknqKKLIDzl/i5oiHKabIaWP4x6Fn97pdyo9VUGvHy7DutN85vrXc6cTl9oz3O2+KvhOfAZbiEn+8laEfjvwnKcLfIv+9xXz6r56qD9aRj/ALK/lU+yQ1UZ9I22v6Dd/wCpureT/gdWxfWB/wBXsYf7JBr5kVyvKlgf9k4qRLy4jOUup1Ps5qHRK9qz6X+1WnXySDQLy2PHlV86w+I9VthmLUJR9TnNXrf4geIICNt0Gx/eUVLpNDVU97a9tRx5WDTTf244CZ9q8Vi+KGsof3sMMp/KrC/FW9JxLpsOfUOan2UivaI9jN/b44jNJ/aVsvWMj8K8jj+KDH71iB9GzUy/FC2J/e2cgHfFDpyGpxPVDq9iDgp+NI2r2iD5Yga80j+JOjk7XhuAp/2M1bj+IHh+U8yzKf8AaTFTySRXNE7k6zbucC1J+oph1WAdbZR9a5WPxfoT/MuoIuezHFDeJNLk5XUICP8Aeo5WF4mr4p8YQaD4YurqOIC5kUxQbf7x/i/CvnmV2lkaR23M5LMfUmut+Imtx6lqkVrbSh7e2XGVPDE81x9UkJhRRRTEAqWKF5pAkaklvSmIrOwVRlj2FdDptxaeH7u3a6j85iNzAdqTGja0iCLwhdaXfanaLNp8zkS5+9nHBrqPEnxR0KbT7iyt9ON+ZVxtcbUUfhXB+LfFza8qW0CCO2j5AI5zWPYaVNeRPMT5Vsn35D/SlbuFySHz7+8kj08tEjj58nCqPUntV6O7g0i1P2H5pJPka5cct67fb3qrNJHDbJb25KwyNwehb6+1Itst4081xcR28cC4CMcEn0UUadAd2RXEsMUaFXMjA52t3981ZtvEF/ZFZLG5lglAxujXlR6Vj/NJINgyT0Artvhnpi3+p3AkdBH5e2QMufypSkoK44xbOTuNRkuJjLIN8znMkjHJc+9SwStOWO0KPQCus+IPw+k8PSrfWJ82yl5P+ya4qK5aGPCjilfnjdGlG0J3kaIYj1/CtC/tzpsdu/nLIJ0LYU5K49a58XEjEEHFMluJJOshao9iejLMeX4Tp4GEEQmhPm3cg4c8iMe3vUdraQzvPE1yscqoZN5bOTjOK5uK5mgJ8uRhkYpbc5cszEAfe56itFFJHm1qkqsryZeV4VO9VLuec9c+tQ6jcRSyj7NH5SFRuHqakibIeO1jZzjjI6VXvLOWyKiYLukGeDkiqRnfoVnbcRxjAxVmfVLq4sobOWVjbwf6uPoAfX61TNFMQ4MBn09KSkpxXbjnqKAOr8LTtJYSxE58t+PpXQWFw1rfIy9zzXMeFkaO3uJSD8x2j3rdVslT3BqWM9R02682NSD2rZjbODXI6FP/AKOmT2rpbeXOMHmov0Kje9nsP1u7+yeHL+YnaFhZQfcjivn+6c7E4LMQTgdSa9W+JmrCHSoNMjf95cN5kmOwFeUrKnmy3cmBBBwq93bsBV4f+Jzdj0EvZYJ33kytqdyLLTlsIyBLL8859v4RWZpun3Wq38VnYwtNcSthEUZ/yKuafpeo+KtaFvYwma4mOTgcIPc9gK998D+B7HwbZkptuNRkH7247D/ZX0rWpPmZ5cVYs/D/AMGweDtEELbHv5wHuJR3P90H0FdDfxXUsG2znELn+IjOKnRgegz6n09qduGMdxWTkVY4y40SV74zahf3N+4OQQmEi9gBwaTX/DkPiCwisr+5vxbqQdkEQG76kV2XA4CqAaQN7hcUrjRxB8EaVdJHFc6fcXEcYACyZQEDscVjeL/A6Wgj1XSdMtraKFdsyKckr64r1DLN93OP7xrn9f8AF/h/RbeWPVNQiYMu1oYyHc/hQkDZ5D5ELsJBDHvPcCq+qana6VEqyqJ7jrHCRnY3bNZmo+LlS4uk0iIxwuxEckn3tv07VBpW3T7WTXtRXzpSStpG55Z/+ehHcCrII9VvZbe3ZLoBtRuMNJJnmNeygdqwM1JPNLcSyTysWeQliT3NRUDCjGaUDPFW7axWRPNmnSOMdRn5/wABQBFbW0t1J5cKbj3PYD1NWp5LezRY7UB5l+/J1H4VLJOPJ+zWSGGA/eY/fk+tVltkRiHZQfTPK/WgAGq3hACycegQVPHd6i4yZQq+pUf4VC1yluNsagn1qtJPJL95uPQU7gSXNzLOdskgf3wBU1pbF8Gq0Ue5wBW/ZQ7AqgcmuetU5UepluF9rU1Ltn+5jAQc9yat+ewbpmoxDtIGcE9KvQ6bcNFuI+WvOblJn3EOSlFRIFmDHB4J7U2VMngZ+lLKgQ4YfjUakgnBoexrFXZGy01Nan0Hzbi0cLcFSin0BoubtLaJpW69AK5e4uvtcpMh4PSujD09bniZxjoUoumt2SX0UQ2ypdCaWT55M/3j1q/puh2t9aJMt3mTktHjp9axGQxfNlSD2q7p2ptZzbtgZGG1x04r0Hoj4ncgmgEFwY5jmMn78fNaM2j26eS0LO6OOSat+JdPtrbS7Ka0CCKblQGyQaQTmDSIIiP3mO9RN2iVFXlYzLy3t4cRxKS/c1bs4BZWbzyABz932+tPs7LzpvNk4UHjPrVTWb4SyGCE/Iv3sdzWcW5aG0koozppDLIz+p6V7R8N9Ibw5oRuJBsvbzlsjlU7CuE+H3hVdavjfXw22Fsec/xv6V6s09upwpLgcBvWtJOxitTVfUpQuDKdpOTikGqSP1dh71mxgSdB+dSiNUGWNQUXjdO2D58i0xr2RekrtVGS5ROGcYphvEx8qk/SmBqR30+D8zCl+3SE4MufxrJS4ZmG1GH1qwrSknGw0AX/ALayjqx+lQS38mcb3GaqvO6jDAj8Kb5yjoqsfc0AXBdSf89m/E08Xz4wWOazjM3eLHuKes6HHJH+8KLgW3u5T0ZqVbmbvIwH1qqWDdJR/wAB5qvL5g6SMfwoA0vtbdPNb86jN6y/8tiPrWdHMQx3Fh+FT/aUIwG591oAsjUJc/LMp/Gn/bJiRuY/gaoSS4XO1D9eKhW6LHAwPYUAa/2p/wC8350Vmea/vRQB4PlaXcB0oKqKbkeld5xjs7qDuByKac9qTLYxQAu40opu1vQ0YY0XCw4SYPTNKX3c1HsbtRgii4WHhiO9KZKjzRigY7LMeDTuQOSM0zHpj86MH0pBYUlsYyKaCo6gE0YPpSgLQAGMNyMD8KYybc808n04prdDmlJDRVJyaMmg9aKwZsFAop0aGR1VepOKQGjpcKRq91IMhPuD1P8A9aqcpee4Zn5dzkmvQdA8Jrd+FbvVbphHb24KRA8bn7muMuDBbgpF8znq3vWUampo46Fvwx4Yl8QX+x3EFpF800zdABUviLULe5l+y6Z8mm2xwpH8fuaT+2Xj0hdPtj5fnkCVhxms8ILaaW3cZC/dB6MfWnFSk9SXaKLuwWVoNQuoMrMNkKt2HrisJmMmS2Sc8mr97dPLaxQu7SY4BPQVIbZUs3ReOMljWqhqRz6GjbTWnhsWs9nLHeXdxBukJUFYOelWYPFy6cZLi0jRJpDu2qOAa5eHzPJdIxuDH5lUc4/wrYuJrDUdKKafpM63m8bnTLgKB/Os5U+bctSsVdX8Q6jrLK15dSuwHzKGIX8ulZgAU/N+YqxaW873gtEjPmyHYQRyKvajokVlau0dyXmiIWVCuAD7GrSSVkS3fcyWcnjoKWPbkl+3QVp+G7awuNUA1VxHZqpaQlsHHt71TuxZtqMgtGcWnmERlh8233ovfcXkVSdzd6s2cW+fBXIQb2z3Aq7/AGZbXnmDTpWd4lztI5f6VUYT6fuikAVnA3D+ID09qLobTHyXbRIzwOUaUnIH93sKou7ucuzMfUnNPkkDyblGABgCoqAQUCinRxvI21FLMewGaAG4q9pumS38nHyxjqxq9YeHpJMPdAhP7o610ENsI4gipsjHQCgAtoUt4khi4VBU8alpB7nmlWEkjHSrlnbANk9alsDpNK+RFA4OMj/Ct+3uUhiaedgII1LyMTjAHauatn2gAde3saw/FevPcFNF07c7sf3wTncfSsW9Tpo0/aSV9jK17VZ/EeuvLGC81w+yJAPuoOAa0H+HN3dW0McsyAR5Iizjk9Tmt7wr4aGixGe6Ae/mHJ6iNfQV1EaZwV/M9aqMrI1xdXnagtkY/hWJfDNqbOHSvJLH550JZm/Gu0trhZlBXI9qylY4AJq5BKB0wKaZyWNmNztHGQKlGevBJ6Z6GqMM/mbQmSfQVz/i34h6T4RgKvKt3fkfJbxNkKf9o9qaQmdRc3VvY27XF5PHbwr1eRgoFef+IPjRoml74tLifUbgH7x+WP8APvXj3iXxhq3iq9afUrlinRYVOEUfT+tYY+uBVpCO21X4i+JPFUzWqzOqzcRQWwwQfcjk1x90ksV063JZpVOH3nJzVvSdbudFaeWy2CaVNnmFclPp71Vd7jUr0s2ZbiZugHLGmIs6Rpn9pXjB2220K+bPIf4UHX8anvr061qkSIfKtkIihT+4vt9etP1S5TT7FdItGBwd1zIv/LR+w+g9KyIZWglSWM4dDuBx0NAHTeN/Dln4eureGyu1uC8Yd17oSO4rle/rVq/v59Tu5Lq7k3zPjLDjPGOlRRsicnk0AAhxgscZ6U5Y9rBn5QdxTS7yHJ5X0p8S5VizhUB5GeaAHTXeflhG0d6rZz160rjaxA6dqbQAtKqkmmip0XGD2pN2LhG7LtlEM7sZrd06PfIW9KyrYD5WT8RWpasY1AFcFaR9blkErWOj0ywFxKrvggV1JtljtPlA6Vy2kX21lDdq6gXiG3zx06VMGrHbi1PnVjjNWiCXJGOtUGYIMsdoHU+la2ogT3rsOgrA1WTbayBerHbUqPNI6qtaVHD8/UxNW1EXLbI+I1P51mcH61oaksWyMxR7CAM+9Vbe286KRg6KyYwpOC30r0owUYn5/XrSr1HKe5D3p0YUyqsjELnkj0rqovDOlW1pH/aF/Kt5NHvWIR4VTjjJrGksoLmdLewicuDhmLZ3H2puWmpild6DhEt/eBIWYWsHdjxWslq15KryIVjHyovdvp61esdFNtEsRG5yeY/T3aqOs63FYh7WxcSXJ4knHRf9lf8AGuSVR1XyQOiMVBXZW1jUFtU+yW5Hmfxkfw+31qt4Z8OT+JNTWFCY7dTmaYjhR/jR4d8OXnibUBDDlYt372dhwv49zXsml6Ta6HZrZWUP7qP77EcufWt0lBWRlKbkx1pptrZ2cdpaRlLeMYVR/M+pqwtrbjH3gfTFSpJt6JipROT1UUAQtbRkfxfnVc2y5+8w+pq59oAJwvPvUb3LbfuJ+dAEH2BCc+Zx6GlFuF+7IAPYVKJsgFlX86eHB+7GooAjVAPvSE/hSmMYJRwD65pzO+DnYKbuOOAG+goAjaMsMMc/jTPIQMNobNWCI3HAZT3yKY2FH3xigBhgY8+YfpTRFtbnn608c8hs/SlwWPzPgehoAQsB3QfSgTqp++CKawhU/MufpSKbcj/V8/WgCQzQNwR+VRmOLdlWP5UoaFf4NnuaTzIgMhuaAHqYwxDKzD6UxtmcrEKjac7wNhx65oDsW+VhmgB+f9g0UuZ/aigDwjANIUz0oLYPalL5GK77nJYACvfNISc9DTQ2DTi5/CgLBuP96kJoGSelL17GgBu8r+NCsCeadt45FMIweKAHHjoaQH1NJyOtLuFIdhNo7UoPvQrRg/MD+BpjbM5QkD0NBViTcaCfbFMD4pSwNBNgJHqaSRlKd6Q49aTIIpMpIgNFK3BpKwe5oFXdKi828UHoBmqVaehgfa2Gf4eKzn8LKhubGq6/dNo8WlRzkQI5ZowfvE1h/Z5EBYxuB7irWqwHCzrwwPOBWlp07ahbKsbp5ijBV+9TCyVy6kXIx4IkunVQwUj1PekmkkEwF0pynylv7xqzqVvDBexmdHiHO7C457YqFkW4WNPtIdR820jnPpWqnd3M5QsrEM9zE0BVU57H0qKS+kliWNj8oGDirVva2xgmmmZvMQ/6nb0/GnxaVPqU0cVjErZGTuYL/Onz6k8isUrW8ls2Z4GCs42kkZ4q7pPiK+0XzFsZAFkO5lYZyatXng3VLJQ832UBuu2ZTit2a48O2uli0jtY45SuJpTiRj9G7Uua+w0jmtH12607XP7RjiWa4YnKsM9etXtSnbVJjc6tLHArnKwRDkn3/wAaqyzwFhFpNpJEDwCfndj/AL3atvTPAt1cR/bNXkSzt+u6Xgn6DvWU6kY7spU3JnLpYPfXJSxhdjnGOtb1n4MZXWO8cPctz9mjP3R6s3auuhsrXS9NMluF07Th9+9uB+9m/wBxOo+tcdrniwTo1nosbW1qeHlY/vZvq3p7VmpzqOyWhs4wgh+o6lZ6DG9npISS7PElwvRPYf41zWye6kaQku5OWdj1pI4lOfMJGOwrd0Hw9Nrsbqt5HDBGeRjLGuiFPlRhKd2c7Iu1iCRn2q3ZaPfagcW9szD+8eB+deg2PhfSdOOVi8+UfxS8gH6VovJEq7QFUDsvAolJISOPtPBSx7XvZi57xoMY/Gt220y1tgBBAi4745q1JMuDzmoDdHtU8w7Mc0CgH19qTYvpURnJNHn9zkUuYLEwVc+lTKdnTFVoy0pxGpY1qWmmDh7mTA/u1LZVipJcXlyTZaTEXunGJJT92Iev1rY0Dw5b6KjOpFxducy3LDv6D0qaKWC2i8uEBE9jyfr60h1IL07dAOlKxoqlo8qNhPlOTT/tCjuB7k8VzNz4jtbZC1xcxoo6/Nk/lXO6h8SLWIFbKFrhv7z/ACj8qfKzO56OboE9yP7w+7+dZmqeMNJ0TP2y8V5AOIYvmJryLU/GesamCrXJhi/55xfKKwmcuxZiWY9ycmrUSbnfa/8AFnVNQje30kfYLZuCQcyH8e1cHLK88ryyuzyMclm6mmZoq0hBSUu0ucKCSewqaVIgkflsd+PnyMbaAIgcA+/6Vt2iro2mC/l4vJgVtkPVV/v1R0iKCTUEe7ZRbxHe4Y/eA7VLqt5Pr+rS3EVu2HOI40GQoHAAoAzWJJJZiWJz9aOwzzWw/hPVYbUXFxFHBHjI8yQKT+FY7DY2Ac470Abfh680O3kaPXrCW4jJ+V4pNpX8O9d/pmi+DNXtiNNtWkQg5LPhwa8kBNa3h3WbnQ9SF7Z7S6ggq/IakwR03jHwRbaRpK6hpgkwjbZUJ3YB6GuFGFbP3lH616L/AMLKa7gltdQ01DBMhU7W9e9ee3Kos7iLPl5O3PYU7BdEcjbnyOlNoooAB1qdGyAKgpwJWk1cuEuVl2KYxtx0rbsphKmFIzXNeafSp4LwxtnJFYVKXMj1sFmHsZanWxTNEwPQjvWguqOUxurmbfVUaMLIcj+VXBPEwBWQfnXG4SWh9TSxtKsr3NOS7Kq3d271h6sXZESMgnOWq6ZFCFi6fdzjPanLcaZNapCm6S6lbaB05NOmpRldnPmFSFWm4RlY5m/m82KLjBXIJqG2maBw6xK205GRmu8tvhJql1IJbmaK2tvvFnOMD610ek+CNG06QLaxPqlwvJZvkhT6ueK7HXjY+KdFxbTONt117xmYfNt4orOEY89l2KB7t3roLXR7LR7VpoZFWNR+8vZ12gnuEU9fqKua/wCKNN0ndDJJHqFzH9y0gGyCE/7XZ6831jW9Q8SXiiZ3mYn5IIwdi+yr2rK06z10Ra5YLQv674pFxG9tpgaKAnDyk/PL+PYe1R+F/B914hk82QNBYqfnmYfe9l9a6Dwx8OHcx3etrhOqWwPP/Av8K9HjjSONY/LVEUYVUGFA9hXRG1PSKM5Sc3qU9NtItL09bLTrdYoFGOnJPqfU1Yy2QpmIP0pzv8wCuFx71BKhDZ3An1BpdbiXu7Fre20BOR7iogC7NuYj9KiUyMceYQPpT9gQfO7Nk9hQMeUULywx9adHFAx4yfxqMBMjYD+Ip7u/QKBjuBQA6VI1XhenpUPngcBWx9KjMssbZOSP92pRdMR/qiQe9AhNnmfdzn3OKG85RhQAO/NKVDn+JT6k0wyLDwWzQMaXmf5S4UU8wZTmZT7U3z7eTkIT6nNIHjwduPxFACozg4XGBT2xJ95gpqB5Jgf3SAinK07rgwjHrQA/ytp+Vw1M3bDhlA96i/eq2dpX8Kc06n7/AOWKAJDKmfvA/UUgljc7SvPqBUAdASc8fSnLdxngNg+uKAJCozyWx7igJEWGzr9abI7suUbNQrLOjDG0D3WgC55Q9D/31RUP2mb++v8A3zRQB4Ww2cujr9VxSKydjz9a95uk0qcYktraQejR5rKm8JaBeBiNOWNj3iG2t1WMnTPHwue1I2B7H3Felz/DCxkz9luZ4m7BzkVk3Pwx1GMnyb23dewKnNWqiZDptHL6fZwXhIZnL9tvFXf+EcuVDMJAo7bxU8vgrXbBt0SbmByDGcVZt9U8R6auy60uO6Qf89495/PNDqDUDHfQNS2FkWNgOuHFZ81pPb58+PaB3zmuxHjNVyLzw3Go/wCmcZFD+LPDFzF5V5o14mf7rgVPNcfIcVngY5FMNdBqEHhiaNpNOubiBzyI5fmH6VgupXOHDDsRVomwz60owBwKArtzikbI9/pTsOwEe9JSBl9OfepI4jLnZgY9TQBGTRinFDkjjIppUjrQMRlxTKcTTTWckUFXLOZba4ikU8dDVOgVm1dWGnZ3OsnjEiggbkcVjXVjNaSGSEOAOhXqKm0rWBbgQ3Q3RH+LuK6CDbMN1qyzLjpnnFcrcqbOmNpo5i91W7v7dIrpg/l/dbHIpgnj8mGJFAYNuZ8c108ul2dwxM8EkZPUotMHhjS3PN3LGPQoTVfWI9SXRZg3FxbtMxVnG8cnPGabLOiqgE5I/wCmfBrrbXwtoCv+9uLqceiRN/hXR6X4e06IhrDw7JMf79w4T/0Kk8RAXsjzrTNJ1DViEs7aaXPcg8V2Om/DBLeIXOuXsUKjny1OCT6bepro7vWI9KiC6hrGn6bCf+WNpHulP0YdK5q7+IWm27N/ZGlzX1xnAudRbzMe49DUP2tTbQGlE6eysrOyiZtF05ERR817dfIi/RTXOa54z0yxlP2dv7b1Fek0in7PCf8AZTvXJazrup622/WtQby+qW6N8o/AVkNdRp8ttHtH94nmtKeGV/eZEqvRFrV9VvtZujc6rcvLIfuJnhfoOwqjgLyxDD09KjLfNnJ3dzQWx+NdsYxRk22SFiAMYzT7a+ms5/NtnaJwckA8GqzZ/Cm1V0JI6iHxe5GLpWyepBq/b63aXWAtxhj/AAtx+tcQDR3rJxTKPQkbdykqMD/tU4g59Poa89WV0+47D6GpxqN4BgXMoH+8aj2Y7neYI7/maMxKf3kige7iuBa8umPzTyn/AIEahaR3+8zH6mhQC56K3iC0s1ISeJe2RyapTeM7Vc4eSVvbiuG4op8iC509x42uDkW8W0+rnNZVz4h1K7+/csoPZOKzaKrlQrkiynzQ7/Oe+7nNTXC28uHhbae6kVUoosgJhb5xh15p32XH/LVar0UASOoXjeD7YqOiigDU0GaK1vTPcQtJGox8oziukttM8K6pN539ptCxGXjZDXIWl7NZMWhI+bgg9DUbzMXLkKC392kB6NGPAeiAyTE38q/dTYdrH/Cua1nxhLeX0j6XawafbH/VxxpgqPrWBNdPPGkbBQqdABUOeaEgJ7m8ur1t1zPLMw7uxOKg5o3VJFDLNkRIzH0UZNVZANKBVByCT2pFVu3FStaXKYD20q/VCKYQ6nBVh+FCsIXYem41G2c8mnbz+FIWzzVOzAbS4zQTUkWwI7HG7sKhoq41UJqZLcuQEyzdwBnFQ7yKfFcSwktGxQng7TUM0i4rc1LvR1gso5YnMrN94Kp4rHZdpI6EdjV6z1a7tGzFJlepV+RU0SLqd68s5RDIc4UYFK/LqzXlVZqMEZYyO9ODuD1NdVb+HrTqwdx7GqHiKytrKSFLdNp28571KrRm7I6auW1qFPnk9DKt4rm6lEFrHJLK54RAWJr0vwT4KvdEkOq6vDawvtzD9ocNs9WK+teeaPqt1o12bu0keKbaVV0OCKtPPrWuTgu80rtyGJNOSurHnqR6lrXjfRLBSLi7l1W567EOyEf8Brgte8f6rrga2tSbayPAt7cYU/Ud6fp3w/up9r38hRT1Heuv03w7pmlgeTblpR/GwqFCK1KbbOJ0PwHqmtKJJgba16l3HP4Cu/0bwzpvh1QIU3zd7hvvfh6VoCaQEEyvx0ApQBMSTvLHuxqr3FYsG4LnKOpPbI6/Wm/aZD/rHAHstRCTyRgqv5UokSXjdj2ApWsFiVgsoymw/XimC2k3cyIg9qadqHoCPWlM5/hiBHrRcLEqqYm+aQMfanks4+/tHrVcHcBwFP0oKsDnzRtp3AkeJsf8fGfbNMSBmwFlbd9aiZYC3LEn2qSMBBlSR9TTAklgvAMKQR9agdbkYHmBf1omvTFjOW/GmQ3KSvkNgj1qbhYaHlDYkmLY9BipogGyVXcf9qpMk5OVYHsBTAo6EMue9MAdXAJ8tVHtVYXCo3Ktj0Aq2+BgA5/GoPMVSctigBN7yL8jMn4U1ILpeVuCeaf56vwHp6OOgyfxoAHadgPNmAAqkSiSFvNZvarkp4wyjHuajO3PAQe9ACJKjrwOfQ0vlS9VRCKUFif4MeoWlaWMLtLAN9KAEVZycfLGPan/AL1BjcrmohDJKAY51OO1KUuI8bvL+uKAH75/7q0UzdN/ej/KigDQ+zW6tuCAfUVI0oVQEqQgk/MhP1pVBI+5toEV9krMGLHHpUqw7z7fWpCkgGTtIqMEvwVC0AOSFFyCAfrSSRIV+UoPwqN4pgflyR9aPJlIzsYfjQA0Rwn5ZPKOexTrVa70DTLofvbS0P8A2zqz9nlHQMc0u1h8rRuD60wsc9L4I0Ocn/RNh/6Z8Cqcnwx0NyT9ouIs9lYV2QhYrlQ2feozbn7zKBj1p8zFY4Gf4VQNJiz1Rgv+2KpTfCjUUybe+t3HYEEE16hHC46NGB7VKbcL8zEN9aPaMLHjU3w08QRn5IIpj/ssKzp/BuuW5zJpsv8AwFga9y8qRm2xqg9zR9imTn5F+lUqjDlPAm0LVEBB06cY/wBmqctrcREiS3lQj1Q19EMblf7pHuBUbo8ykSxxMPQrR7Rhynztggcq35U0mvoFtJs5ciS0t9w6grVaXwvpLYZ9NtCT6LQ6tw5TwajFe4y+C/D8uA1jCp/2QRUB+HmgM2fJIHoDU86DlPFalinlgYNDIyH1Br2OT4daAWwYXUeqtUP/AArXw+ScSS/TdQ5pgkzza28U6pbjAufMx08zmrieOtUQcLbZ9Sld8nw10AAlnlI9jTh8NvDuOPPP/AqhqD3RV5dzhV8ea/MCkV8lt/tIADVDUNb1C/ULeazcXB/uliRXpg+HXh1MHy5D/vNxWhaeG9BsmBgt4EI77c0LkWyDVnlWl+Fb7UQJILKUof43OB+tdlpfgO3jRTqF0B3McAwPxrszFaMf9Y7AdulBSE4CKR+NJzYcpy9x4C0GU5SOWM9yrdaz5fhjpsmTDdTR+m4g13H2ezU5mndD6UpWxydszOfoaFNhyo89f4Vxk/u9TVc/3hUT/CebPyapbn6g16F5cDE5En505be25O5+OwNPnYcqPM5fhVqan93eW0g/EVXf4Ya2v3fJb6NXqhEEa5VXH49aQSbyCA4H1o9qw5UeUf8ACttbU/ciz9aY/wAO9cUH91ET6BhXrpkVBlgR7movtdqThmXP0NP2rDkR5B/wgOvA4+yr9dwpzfD/AFsJnyFJ9Nwr18Xtuo4VCPpTW1C2PJXn0FHtGLkR403gvXI+DZZ/4GKhbwprKdbJ/wACDXspv7In5oF/Gmm4tGJMax/gKPaMORHir6DqaYDWUo/CkGhameljP/3zXt6ybj8sSnjtSNcXKkhVG30xR7VhyHig8O6qf+XGX8RU8fhLWpBlbJ8e5FevPdEY3wqR64oFw7f6u3X24o9ox8iPLYPAOtTqSYUQ/wB1mGajl8B6/F/y4sw9VYGvUXmnDZkiC/SpYrlVBJd6XtGHIjx6TwrrUX39Onx9KrnQdTGf9Bn4/wBmvbDqDZAjJP1FNmuLp13KDj6Cj2jDkR4bPY3NqR58Ekef7y1DXs8lyzNtubYSj+6QKrzaHpN6MtpUQY9x1qlVS3E4HkHekxXpt34F0ifBTzbY/wCyRWfP8PLYjNtqDH2cVXtELlZwVFdU/wAPdXBxH5Ug9QapXXgzWrThrNnHqpFPmQrMwsVPa3k9lIJLaVonHdTTrjT7u04uLeRPqKrkEGncR1enfELU7TC3KRXS9zIvzY9jXTad4h0fxJIIjZRRXB6iQD5q8u59acjmNwy4yKTjcdz2MeFtJk3GSxtNzf3RmopPA2jOpIsxn/YOK4fSvG1xp8QhaCPyiRuZPvGu30PV4daiaS1kKbeoY81k1JPQtNMgk8A6McBoJo/o4qpL8PNEOdtzdofqD/SujnCsuWmbPtUEYlDHy3BH+1Uc0irI5o/DnTmbCajKo/2gKa/wwiJPlamvsSK63bMeWMZ/3etMafymANvM/vmnzsOVHIr8Lyc7tUhH4GrEfwvRAGXWog3+6a6rer4227qPc0F1VsLby/UmjnbBKzujno/AN3GQq65CB3JBp0nwxW7PmXWr+aQONtbyt3dMj07iplkXbgbl+hqU7ao2lWqTjyyd0YNv8N9KtiGlvJJAOzHiujtdMsLZVEBCKBgFRVZrYyvlXck9cmpFt/K4Lt+dU22YrQulLWMYe6b8aPLtGGFvG596zpCj5BG7H96lgwucW6H6UkBpfYU2/LdE++aiNnCW+e7bI96hyrf9Mz9arSoyElcvnrTuBqBLNP8AlsSR601hadVkP4Gs6K3klH3CAfWpl0+RByQPxoQWLarb78lyeO9Ks8SSHfkr/s1TeNkTJYk56Co/JndwY2IHvQxI0ZL222HMbfhVRbi2ckESL9DSSW21fmf8qZGIFI8x3/GkgLBjtsAruz70GS3XPmK34VFLsb/VPiqs0UjZ/ekiquBZeaxXHysc+pp4ntUUeXCAT3JrM8iP/loWJ+lTrBGQNgbj1oAsm6ZThUAHtRJqq8qwf8qgKrGQcUG4Vzzlfwp3EL9qRiGKMV9zU63tmD80LH+VUHQZyH3e1TRyMVwluhPrTAlF3bkkpHgfSla4AGVRfqarSrN/cCj2pocjnhvrQBI12SeQn5U+KeM8FE/CqxkdjzbqRQZl6CH8hQBd/tJUBCRjjvmoX1F5CCbNWX1JqkoQ5DROee5qwEyoKoVA96ALIulwAYBEfamm6BbG0kCoCQcMQTn3pVikLgo6AHsaALH2hf7hopnkTf8APRKKANma4aQZKk/SoRfTIf3cDn69KRTI7/NFIB71YKgAbUNACLf3Ei5kiVAKjN8/QDOak3KT864+tBZA3EY/CgRGpkJzI2B7GnC6cHapLHtzUE0kYfDRuc0scKMpIQr6HNMCx9snHDIRj0pDfybeRj/eqBlZU6ZIoGcDCMDQAr3pkxhjjvtFJum3ZjHHqak8srg+Ztz1GKftmU5V1I9aBkUTTbvnZTUrZ/vke1RvO6H5lJ9wKco89txOOMYNSwGZlGSj7j7mgS3K8EP+dPEWCcAmn+UyLnaPxp2AqmW4/wB33NTx/amTPmJ9M014C3LbQDUYtkVsEkfQ0WAfIJeNxJHtQrsPuswPoaT7MgHyyuD6dqELIepbFLQLiiRznfKAO+6jaGHFwpHoKlWWGQFWt8nuaf5MOMrGEFGgXKrQFj9wsPXNMAMf/LM8e9PkWLf/AK5if7opVhyPlY8+tFkFyAzSlsRR4b3qaP7Rj986KPammDGQ8gAp6x9kOaLILhIyFeCXx3pFLjkRoAfSpMsqkPt/GogZCw2qpFFkO4rCRxkgke1RSOuM4cHNWvnIywZT6CmCeONxuRwTxkip5QGxSsCMgkepFOdy+SHK59KlF7Dggqx+gqItAxysTlqOUBgMueV3j1NPSOQgnhR7Ub5SRsGwUzdIGJlidl9aLDHnG3BXJ96eCI0BII9hUe63xywXNBeEYAmVh6UcogkdZP4mPtVYoUcEFR+FWN8efu59MU13HePA96OUAEaOuJHQn0pPs1ov8GD6imlkHzHb9KRXjYdWWiwEhjtwP9WGqBxCD8luakdokH3w3+9TFnx0AH1osFyaIhgB5BH1p7CReVk2j0qBpN4wZ1H0qMNbIfnk3n0osFyY/OMNIvPc0m0p8q3UOew70wrbyjiMkCq0vlxZKwoM9zRYdy21rJMuWlTNQ/Z5EUgzIR7CooZl/wCem32FWVkB/iJ+tFgGmOAqAJmD96eqSFQFkBUetNYxgHMoUn2po2lflnJpWAdOI16xmQ+1MjCknEbJ7ZphRg4wykelPCjJYqR9KloaY6SCM4zuz1wKYYAOViAFPSeOEZ8zBPZhUU14zcI+4+1UooVxQsUZIaR1x2zUf2mDcAA7D1alhlG3MkfP+1UjlOCqJj0NOwXFxDOpGxWHoRVObR9PmJNxpyOD1IHJq2spU8Lt+lJ57FiTOwB7GkrjsmZEngzw/cH5bOSMnsDVC4+HWkuxMctxF7ZBrqluEX7xVj60wiFmznJPrVXkhcqOJn+GycmHUMAdN4qBfh/qMB32N+hcf3SRXoKQIQdjIG96azOuR5q4HXFPmYnE4+DSvF1mBi5t5AOgkOa6G2hu3tkN+wE56iP7tXAiSn/XJn3JqVcRAnz4iewHWpd2CKyIImxzn1NPM2cgPTiHk5+Zj7U2QNGMmJuR6UrDG+X5qHduP0NOSNlA25U+5qFWzlfufWnSRb0/eFyPUU7ATb8N80oqORoW4wC3qKiSONWAVj+NElkpfd5zD6UWEPjXI+VnBHarUcTYyQSaqxMkSkCXOO561OJDJ91zRYY+S1Zh1VSfWozavGg39uhU08Q3BHCgjtSmJkA3oxPoKAKy+Vk7nbPvU0WP4GpskqocGDb7mk2xTHBcfQ0CLwlZVxI6KPeq9zJu+ZXDey1T+whnJjdfwJqaKF4VyzHA70nuPoOikYnBhfPqelWOesbJ9Gqu9zFJhWlbPtUqJCV+SXA96GCDJzuk+7TWe1c4B21HJbkvn7SMelMkhRRlk3/Smh2JljgU5WQGnxzBW5YAD1qCKOM4xCR706aA/wAK4HqaFuJliWaOQYBJ9xVZowG4kYD3qL7KCRmQg+1MkgH/AD0c4p2EWt6DqVbFNabzOI4qp+TG2MpIxHcdqlW3Cj5XZaYiZZGQ5aIN7UktyQpPk7R7VDIJeArEUgWYdQW+tACxTowIYyD61KY0YfLKM1FudlwdophVk+Y7dvvTAlJP3Q1N3kDDSAn6Uu9mXKmMCmuSOZGH4UAiVER+GYGo3WNTtVyfaoi0Z5DE+1KTuA2oo96Bg0KvgDC/zoijaFuHLDtTkjKkFl3ZqQOudvl4oELvf+5RS8eklFAGqDMzfNLUjRyFeZQB60skUWeUx9DTAi5+QH8adwGgCM4zvp4QMDxgU5S4+7tqTa7D5h+NAiq9sCOG/CozA2QAAB7Gpp1WNhljz6U6F4l4Dvz6igCsyTg4jPAp0S3KNmVQwrRTDKQsmAO+Ka7hR/rMn6UARo2QcxFQe4phwD8p/A04zheuAKUS27f8syx9qAE85lXDcD2FVpZS54Z9vsKuCdTwsW360jMv8ZWkBWi2A8Nz/tVI27vOAfSnlkb7mw4qPyYw251J+lJsaBhuxuc/UULbxE53nPvUo2bflyD700usYyxU0wCWIuuAw21ClqyH7/FP88sOE4pd4B6YNMRIATxyR9KgYMCRsyKsb5GHGCPao8ynjaDQAnlwBQWTn2p2Fx+7UfjSjPRlwaRl75I+gpDEZWx8yLULQyE/u3K+wqcIv3jMcehqN3RPuyFj6YoARYpE5d8/WhY0dumfoajMpPHltj2p8e0fwup9xTAcbUgfK7r9aaIVX787H2xSyXBJ5aozHv8AmyBSAlVI8/dZvensqKuVSoTHKF4lXH1qL51P+sXP1pMB7K7njctOVXQ7TK30NRM0/B8zgelJ9oHO5STSGi0Yt42gAkdzUEsJj/5Zgn2qPz8YOxx9KebqQL8qZB9aaE9xAJCRhggps0ffzc/WmtdOww0JBFQCSRyTgDHY0wJEdIzwqk+tPfzJfuMo9qj3IOWYA1MGRVGxlbNICm1u8bZkQMtWF8txgZFPNzkiPy8j1ofCklgVx6CkhldkKsdrfmKdGGB+/FUE91zhGP0IqJZFBy0Z+opiNF2wMO68+lRYTdjhvSmoynkc59acQ/VWUGkMCqnO7AoBgVerfhVd/OVyzSAj2przrtwQW+gpgXI5oAf9bj6iiQLJ9woRVOEJnIyPqKnacDgKppAhyQLkMWx/u09gU5U/nVcgtwrMAfQVGYXAJKsQO5NIZMZGcEOw/EUiiMLnBJ9qiSZAmM7TnoabI8isDGquPY1SEWyquAMDNP8AIULyv4g1Ujlkkypj2+9AhPXzN2D0zSAtbFIwnH1pDBG3+sYEe1RfaRF1Vh+FR/b1fIL4HfIoAsG3gQYCEg9DS7UC/Kikj3qqAZP9WdwPvUips+8v5mgCVHlk+UIi596U2+OTt3fWq7RSyH92q/nSfZ50GWeNR7tQBMMn74UD3qUiIgBSSf8AZFV4oU6NcjJ9OaldFUfLIxPrigAARGJ81h7GrCSu6/Lh1qm3fAYn6UkLzucRtjHqMUATyzqnAt13etNPmSr8vyj2p3ltjc+4mmgRRggpJj3oAdEsoH8WPUgVJJArqNxbPtVYSRlSsbFfxpVRlALM+PagZJ5UUeNwYj6VJmFR8iH8aYZVAAy+R3xUbTA+p+ooBlyOUn7rbajnldSCXBqoJGJwEBH1oMZ3Z8tj9KLCJklZ8jaDmoykSthkIpEn25UqR6VLhWGS+TSHYQXCj93EDn6U597rlt2PamrJGp+7k1IztJwh2+1J7gikr2zPjy5Mg9xVkShFJVF/GoJPMiOSTj6VC8qyf/XpjRbd/NAYMifSoyG6mQke1NjREAGAal86AYBkUY6g0xMVCEwcsxPalnmZEOBio3mhJ/dvHx71GLgk/fBB7CknZgRx6gQ2GUtSuzS8r8v1qYQlxnaw9wKawUYDA596BoYPtqr8pUgelREyDJl3rUzPgEKhI9jULYyN0ZA/2jTExyzEnmX6Zo8+XJxg1GzwueduR2FOjnWI5CgVQhxc4wU69xULAO3zvJj0FTmcOuWQsfao96E52FT7UgFQKOI1Y/71SlQRuOCTTQ6d5x+NQyMi52SL+BoFYmLuvAA/GomknkOIyBUO0SDc0hPsKTygjfu2lH4UDJG+2R8k5WlWfcRvGD60ebKgxuyB/eojuFLDesX50xEnmr/fNFP8+P8AuR0UAdHPNEhB8wE+1VvNWVj+8I+oxUstpBgbQM/WqT2y+ZwVH/AqSAuiMYyjgn60EzKuSR+dQBTH91hioZr1kABwfU07gStOVPKBj9akWUY+7gn0qhFLHJJ1fn2q+kK7epoEPxNt+SQ49xTA0oP+rD/WpMGNMozn2xTWkmYgAbR60rlWHrI4GGQJ+GaDEz8bxg+nFJzuHmStj6UsrR4+Qbj9cU1qIYV8vgk0GBZBuOD9TiomaY/dhX6lqcfPwDlPpmhghRHs4VMfSo5Bcqc5FP8AtJRh5j4/CpTKDgoVYn1qSrEMcpOSxJNIZkDfMTn6Uya5IbadijPY1NbyjGPkY+ppkiifIIXfn2WhfN35ZHPvinvdkfKpjH0pvnbhlndT7CncQ7zEU/vGfntionu4EbCxyE+tRtIyvwzNn1Wl885GIhkdSaY0TxXaODhcfU0xy5BI24+tRkq/L7VqVAAh2MD9alsYsbooG+QZ9KbLKv8AyzQE+1Rk7zyiE/WnMVAwI+famhMaJbg/8syB7VIsrdyV+tVGkIyN+PbNBCbMhsn/AHqYE0t0FBYxsx/2BmkjvnbpDtzxzVAzyiTbGVI9jVoeb5eSoyB61NwsWXEcmPMJX6VAY4wf3eWx61XM8nV4hn1zT45dx2gFT3NF7jSLG3cBhgpqOTzI+u1vpQbJXBbexP1qrMnlnALD8aQE6XAOQwPFK0scvyrKc+gqKAsuS7KQaHuIFJATa3qBTTBonjDryiFsetOLTN9+NVHtWf8AagwIMkgx6CkeeEgD99u9TTEXXeBeCnNMEkJB+TA9arRMWfmFmqWSeQHEcLAD1WkABhyUPP1qZFkZTtyTVb7RkYkibP0pRIzAqjFaENkzDyx877W7/LTEnj3YDB8diKiJBYB3J/3ulRsqhvkRT7g0CNJZo5E/1aAfWq00UR52H8DVdAxBzxTzIIlAY8UhjRGqt91gPrmo5p1iU7VYn6U77QrH5Sx/CrChXTlc0PYDMjuriZsLGwH0q6sdwqfMYx+PNPZNp+QhaeArLhyT+FIdhkbNtIacUjxhufOzn3qN7OI52lqf9nXAHIxRcBUjDcfJx3zQ0EZ6Suh9hSyWoC5D5P5Vny+arbERAfUvTEWXUp/EXpYIQefJGfUuaii8wj9+/H+yM1KrR54lVR/tGgC1ueNOEX6DmoftoQ/vYBnvlaGXeMrMrH2NRbZ0JbKnHY807AW1v4XHyKoI9Ke9w3AVFIPUmqEc4LfvPlJ7han85gPk+Yd+KQDmeQMQAv4HpTQm8jzJTj0pd4YZxt9eKhkMSghtzZ7ilcdi2scKgkbSe1RvlhlflxWS7Df8pdeetaVvJtUbWBb3ouBNmWPGJAaY6tJ3/Kop7l1f7q4pIrnceUP4UxEyDyzuJYfjmlMu9iFcn60v2iMrjzNn1FIId3zG6H0C0WAcqKoyV59qepDH5kkAqvI8S5VcsfXOKhWfHBcgegNAzRBjTJwfxqnNqBjBxtwKBcRMpyrOfeq1xJb7cbQCexNJ3GrEqagXXqo+lPMryH5nOPaqCSoD8sQIHpUxugR86BR25qWwZZ2w44kYn3qVZGUjaQcVUjaMrxj86eFbd8qqfxoQ3oi2XeQguFC98VEyw5zuf8KY5kQcw5981UkvZF+RY9p9apkostIEwUeXH0zUyDcwYycf7oqpbtLMeXXHpU0jNFxI3y+woQ2WZE2kcB/fOKrNbO7Eqyj2xVZrg5wEdsd6WKa5YkKdiemMmmhMka1nUYVEIPeomsbgYyNoH92pd8iLzKGPvxSrLeMAElj49TUvcB8ZZFClnzSS3UoYDYmB6mn75yB9ouYh7KBTJZyuPLRX9zT2BC+ajDeSA3oDTTc7OAWOfUVUlM0jjBVSfQULAx++5PrikmDRae6BAwyg/wC6KrtOzN86q30609bSM/eZP++qhl+zROCJCMdQKsRLHtPOSvtQXKdi3tUYnsn7uo9ajESly0V2eenFIY53ycL8h96lhtZH5LKR7VV8kK2ZH31IJhEhXB/OgC6EEGSBgj2qtcXcnUPjPtTBMWHy5Pr3pHhhOC+8t6UASwbWH76XcD2NSGSNGxDGPqOaqBEDgKjY9akGxH++y/hTuFiz5z/3f/HaKi81f+ep/Kii4WNV71mYDeMVGOSW5Y+gpkgHm9BVlTgDHFSmSVZppFGFVxSW8w3AynP1FW8lsg1nzgBsds0MRqB7V8cHP+zUtqPLkIiRyD6nNZlsP3la1q7CQc1QIndmCkSFsDsBiq4uLbfgpJn1zV/qDnniqaAeYeBUMsUS2wU5Zj7GqbzQM3GV9yasuq4PyiqcqKT90flVxZJahKMv+tB9t1TSCMR4VQT7GqEAAfhR+VTOflJ70pMaGyEryqj8eaDPu2/dUe1QoxbOTmrKqpUfKPyqblgsMUjfMAxNXUhREAjjAqFQA64AFOjdjJjPGaZJHOT533AE7YFVvtJVyDnH0rRkAIFZ9wOG9qpEjTLCciWTbn0ao2FoAdssjH602KJHjyyAn6UMirKAqgfhVASIY1I25HueamaVcf6wEfTFCgEHgdKq3HCHAFQxj2VS29ByO+6oJLiROUXn/eqBHOQM8U9+XFUJlmKRyMuUIPUGmSywJzsVs9g+KIgMHgVF5aGXlF/KgBWIT+FV981NHNGVw0oz7Gqs3KnIFNhjUEHaM/SoZUS3ujLYUsTTyrr8xjJX2qFOH44qYO2D8x/OhMbGrMBwpZT6Go7hpVUsxQr9afnMozzVW/OMihiRW83exwWPpjtU6o2Ac4+tQ2QwcjvVub7lQnqNoazogxuJb2FMBaQ/NIwH+7TU++Klk+6ea1IF/dMeJJAw75xUi7ohv89ic9DzWbk7+pq/CM4B5qWy0h73juMMy/lVVlhQHM5BPpTrtFXOBVOABgMiqRLLOF4Csz9+RQJ50bCiJV9SaYxIkwCQMVCQDnIB+tJgi8JTsB3ISfQ1Gr3G474wVqqgG4cAVqD/AFY+lRJlIi3IFznafQCp0l2oOV59az7g7XGKgZi0nJPFSmNo05Lhd3IVvoaYZeOuPbNZI/1h5PWrkQywz61oQSPMcEbWP0NIJV7qwPu1aCIvXAqrIAzNkA0kUyrLcNwd4UDtnNKl9k5VVJHcioSBvxtHX0rTiijEAOxc/SrRCKq3jkZEat7A1IJkdf3lui+5qN1Cg7QB9KytQdzxubB7ZpDNCWGCTmOVAfRXqM+fBhQWI96yogEcbeM+lbkZOQCcjHem9hjIoZ52H7onnrmp3jmh6oRj3q0pIhwpI+lZV7LIHA8xiPc1CYWJ0uXDEtExX2p4uF2k7CM+tRRMSq8mp8ZHPNStyuhCJlwcqv4mmsDIwKzog9KVlXd90flTJEUqflH5VZDJMKuQJw7e1QrdyxE7wSvtUUShTwMVXvGbJ+Y/nTEaamC5TIDbqilXaMKshPtWZZyOD95vzrWhZmYZYn8aAKgW63ZjBwOuasLO8Yw/U+i1POxW3bBxzVOIknkmhFMvQi4ZQI3Uf7w61HdPIGCvHGx7mpXOCmKp3LEyGpY0RM6qD820+gp8RMi4xuA7ms+QnzDVmFjsPJqWMtHKcqnT3oN3Kg+ZlA9qqMzeWfmNREZxmhMcjSjv4iMMWLH/AGqZM7NwseQe+arxooP3RWjb8jBAp3C1ijCADtyyd+tWGSMDm5Y1ZkVRG52jNQRqrRDKg/hVIhgCX4WXHvimeWFlBMx46inyALtAAFPkVcqcDNSnqOw3eAxw4I9MU7ORwwI+mKiVR5p4pZwFjyKb3EDSqp6KaSRhLjEhQ+mKrx8nJqR/vrRNlJB9nmDD9/jPTila3Kj5pixPoasEDbnuBVWElpcHpmkhS0AGBRtPmZ9aezxFQFwR6Ec1c2L5X3RVcoofhRVslFUohkzsbH0qwEjxkKPr0qcqNpqvIo8v8aSGRO8it8kqJ/wHNLyAAZsn3Wpo1XI+UflUzKvHyiqAgiPGBIMg9hU7E8d8d8Ukar5n3RVogCMcUhoypLxUkZWY/TFNCSSHdHGHB9WqaRVLnKipYjtwFwKAZW8qb/n2/wDHqKv5PqaKdibn/9k=;" vertex="1" parent="1">
          <mxGeometry x="40" y="-1100" width="200.64" height="120" as="geometry" />
        </mxCell>
        <mxCell id="mkIjakdbtP-4XP5yUZ4M-90" value="" style="endArrow=classic;html=1;rounded=0;sketch=1;hachureGap=4;jiggle=2;curveFitting=1;fontFamily=Architects Daughter;fontSource=https%3A%2F%2Ffonts.googleapis.com%2Fcss%3Ffamily%3DArchitects%2BDaughter;exitX=0;exitY=0.5;exitDx=0;exitDy=0;entryX=-0.016;entryY=0.06;entryDx=0;entryDy=0;entryPerimeter=0;" edge="1" parent="1" source="mkIjakdbtP-4XP5yUZ4M-20" target="mkIjakdbtP-4XP5yUZ4M-1">
          <mxGeometry width="50" height="50" relative="1" as="geometry">
            <mxPoint x="384" y="-685" as="sourcePoint" />
            <mxPoint x="33" y="-941" as="targetPoint" />
            <Array as="points">
              <mxPoint x="11" y="-467" />
              <mxPoint x="13" y="-943" />
            </Array>
          </mxGeometry>
        </mxCell>
      </root>
    </mxGraphModel>
  </diagram>
</mxfile>
